<svg xmlns="http://www.w3.org/2000/svg" viewBox="0 0 24 24">
	<g fill="none">
		<path fill="#367af2" d="M22 7.5v9.25a3.25 3.25 0 0 1-3.065 3.245L18.75 20H5.25a3.25 3.25 0 0 1-3.245-3.066L2 16.75V7.5l9.652 5.056a.75.75 0 0 0 .696 0z" />
		<path fill="url(#SVGOlPUCeKc)" d="M22 7.5v9.25a3.25 3.25 0 0 1-3.065 3.245L18.75 20H5.25a3.25 3.25 0 0 1-3.245-3.066L2 16.75V7.5l9.652 5.056a.75.75 0 0 0 .696 0z" />
		<path fill="url(#SVGVZiVneMw)" d="M22 7.5v9.25a3.25 3.25 0 0 1-3.065 3.245L18.75 20H5.25a3.25 3.25 0 0 1-3.245-3.066L2 16.75V7.5l9.652 5.056a.75.75 0 0 0 .696 0z" />
		<path fill="url(#SVGQxrkFczw)" fill-opacity=".75" d="M22 7.5v9.25a3.25 3.25 0 0 1-3.065 3.245L18.75 20H5.25a3.25 3.25 0 0 1-3.245-3.066L2 16.75V7.5l9.652 5.056a.75.75 0 0 0 .696 0z" />
		<path fill="url(#SVGkWeZPekx)" fill-opacity=".7" d="M22 7.5v9.25a3.25 3.25 0 0 1-3.065 3.245L18.75 20H5.25a3.25 3.25 0 0 1-3.245-3.066L2 16.75V7.5l9.652 5.056a.75.75 0 0 0 .696 0z" />
		<path fill="url(#SVGYjwTol7B)" d="m2 7.86l9.652 5.056a.75.75 0 0 0 .696 0L22 7.86v-.61A3.25 3.25 0 0 0 18.75 4H5.25A3.25 3.25 0 0 0 2 7.25z" />
		<defs>
			<linearGradient id="SVGOlPUCeKc" x1="14.539" x2="20.005" y1="9.95" y2="20.515" gradientUnits="userSpaceOnUse">
				<stop offset=".199" stop-color="#0094f0" stop-opacity="0" />
				<stop offset=".431" stop-color="#0094f0" />
			</linearGradient>
			<linearGradient id="SVGVZiVneMw" x1="9.143" x2="3.828" y1="8.816" y2="20.865" gradientUnits="userSpaceOnUse">
				<stop offset=".191" stop-color="#0094f0" stop-opacity="0" />
				<stop offset=".431" stop-color="#0094f0" />
			</linearGradient>
			<linearGradient id="SVGQxrkFczw" x1="17.273" x2="18.143" y1="14.957" y2="21.151" gradientUnits="userSpaceOnUse">
				<stop stop-color="#2764e7" stop-opacity="0" />
				<stop offset="1" stop-color="#2764e7" />
			</linearGradient>
			<linearGradient id="SVGkWeZPekx" x1="15.095" x2="16.681" y1="9.035" y2="21.643" gradientUnits="userSpaceOnUse">
				<stop offset=".533" stop-color="#ff6ce8" stop-opacity="0" />
				<stop offset="1" stop-color="#ff6ce8" />
			</linearGradient>
			<linearGradient id="SVGYjwTol7B" x1="7.942" x2="13.98" y1="1.151" y2="17.089" gradientUnits="userSpaceOnUse">
				<stop stop-color="#6ce0ff" />
				<stop offset=".462" stop-color="#29c3ff" />
				<stop offset="1" stop-color="#4894fe" />
			</linearGradient>
		</defs>
	</g>
</svg>
