<svg xmlns="http://www.w3.org/2000/svg" viewBox="0 0 24 24">
	<g fill="none">
		<path fill="url(#SVGO0WfLcMY)" d="M20 12.5v6.25a3.25 3.25 0 0 1-3.066 3.245L16.75 22h-9.5a3.25 3.25 0 0 1-3.245-3.066L4 18.75V12.5z" />
		<path fill="url(#SVGGWg2yb6m)" d="M19.75 7c.69 0 1.25.56 1.25 1.25v3.5a1.25 1.25 0 0 1-1 1.225H4c-.57-.116-1-.62-1-1.225v-3.5C3 7.56 3.56 7 4.25 7z" />
		<path fill="url(#SVG52iFUfhe)" d="M11.25 22V12h1.5v10z" />
		<path fill="url(#SVGyBZjmeMM)" d="M11.25 13V8h1.5v5z" />
		<path fill="#000" fill-rule="evenodd" d="M9.5 8.5A3.25 3.25 0 1 1 12 3.173A3.25 3.25 0 1 1 14.5 8.5zM7.75 5.25a1.75 1.75 0 1 1 3.5 0V7H9.5a1.75 1.75 0 0 1-1.75-1.75m5 1.75h1.75a1.75 1.75 0 1 0-1.75-1.75z" clip-rule="evenodd" />
		<path fill="url(#SVGSG9yaezb)" fill-rule="evenodd" d="M9.5 8.5A3.25 3.25 0 1 1 12 3.173A3.25 3.25 0 1 1 14.5 8.5zM7.75 5.25a1.75 1.75 0 1 1 3.5 0V7H9.5a1.75 1.75 0 0 1-1.75-1.75m5 1.75h1.75a1.75 1.75 0 1 0-1.75-1.75z" clip-rule="evenodd" />
		<defs>
			<linearGradient id="SVGO0WfLcMY" x1="10.98" x2="10.98" y1="25.733" y2="8.8" gradientUnits="userSpaceOnUse">
				<stop stop-color="#bb45ea" />
				<stop offset=".348" stop-color="#8b57ed" />
				<stop offset="1" stop-color="#5b2ab5" />
			</linearGradient>
			<linearGradient id="SVG52iFUfhe" x1="11.25" x2="11.25" y1="6.375" y2="20.261" gradientUnits="userSpaceOnUse">
				<stop stop-color="#fb5937" />
				<stop offset="1" stop-color="#ffcd0f" />
			</linearGradient>
			<linearGradient id="SVGyBZjmeMM" x1="11.25" x2="11.25" y1="-13.429" y2="21.571" gradientUnits="userSpaceOnUse">
				<stop stop-color="#fb5937" />
				<stop offset="1" stop-color="#ffcd0f" />
			</linearGradient>
			<linearGradient id="SVGSG9yaezb" x1="15.194" x2="11.905" y1="8.498" y2="-4.901" gradientUnits="userSpaceOnUse">
				<stop stop-color="#ff6f47" />
				<stop offset="1" stop-color="#ffcd0f" />
			</linearGradient>
			<radialGradient id="SVGGWg2yb6m" cx="0" cy="0" r="1" gradientTransform="matrix(23.183 0 0 9.33595 12 4.76)" gradientUnits="userSpaceOnUse">
				<stop offset=".196" stop-color="#5b2ab5" />
				<stop offset=".763" stop-color="#8b57ed" />
				<stop offset="1" stop-color="#bb45ea" />
			</radialGradient>
		</defs>
	</g>
</svg>
