<svg xmlns="http://www.w3.org/2000/svg" viewBox="0 0 32 32">
	<g fill="none">
		<path fill="url(#SVG2F7VCYvE)" d="M2 16C2 8.268 8.268 2 16 2s14 6.268 14 14s-6.268 14-14 14c-2.368 0-4.602-.589-6.56-1.629l-5.528 1.572A1.5 1.5 0 0 1 2.06 28.09l1.572-5.527A13.94 13.94 0 0 1 2 16m8-3a1 1 0 0 0 1 1h10a1 1 0 1 0 0-2H11a1 1 0 0 0-1 1m1 5a1 1 0 1 0 0 2h6a1 1 0 1 0 0-2z" />
		<path fill="url(#SVGchzAGLVB)" d="M10 13a1 1 0 0 0 1 1h10a1 1 0 1 0 0-2H11a1 1 0 0 0-1 1m1 5a1 1 0 1 0 0 2h6a1 1 0 1 0 0-2z" />
		<defs>
			<linearGradient id="SVG2F7VCYvE" x1="3" x2="27.447" y1="7.25" y2="48.928" gradientUnits="userSpaceOnUse">
				<stop stop-color="#0fafff" />
				<stop offset="1" stop-color="#cc23d1" />
			</linearGradient>
			<linearGradient id="SVGchzAGLVB" x1="11.05" x2="11.948" y1="12.14" y2="20.828" gradientUnits="userSpaceOnUse">
				<stop stop-color="#fdfdfd" />
				<stop offset="1" stop-color="#cceaff" />
			</linearGradient>
		</defs>
	</g>
</svg>
