<svg xmlns="http://www.w3.org/2000/svg" viewBox="0 0 24 24">
	<g fill="none">
		<path fill="url(#SVGwUgtLdtI)" d="M3 9.75A.75.75 0 0 1 3.75 9h16.5a.75.75 0 0 1 .75.75v11.5a.75.75 0 0 1-.75.75H3.75a.75.75 0 0 1-.75-.75z" />
		<path fill="url(#SVGXufiEe2l)" fill-opacity=".8" d="M6 13.75a.75.75 0 0 1 .75-.75h4.5a.75.75 0 0 1 .75.75V22H6z" />
		<path fill="url(#SVGTsGPHdQz)" fill-opacity=".8" d="M13 13.75a.75.75 0 0 1 .75-.75h3.5a.75.75 0 0 1 .75.75v3.5a.75.75 0 0 1-.75.75h-3.5a.75.75 0 0 1-.75-.75z" />
		<path fill="url(#SVGD4tYAcor)" d="m14 6l-1-4h4.909a1 1 0 0 1 .738.326l3.092 3.388a1 1 0 0 1 .261.674V8a4 4 0 0 1-8 0z" />
		<path fill="url(#SVG3R7RHbCj)" d="M2 6.388a1 1 0 0 1 .261-.674l3.092-3.388A1 1 0 0 1 6.09 2H11l-1 4v2a4 4 0 0 1-8 0z" />
		<path fill="url(#SVGdYvFhdSh)" d="M8 6.176a1 1 0 0 1 .062-.34L9.5 2h5l1.438 3.835a1 1 0 0 1 .062.341V8a4 4 0 0 1-8 0z" />
		<defs>
			<linearGradient id="SVGwUgtLdtI" x1="7.5" x2="9.684" y1="10.182" y2="22.659" gradientUnits="userSpaceOnUse">
				<stop offset=".312" stop-color="#29c3ff" />
				<stop offset="1" stop-color="#0094f0" />
			</linearGradient>
			<linearGradient id="SVGXufiEe2l" x1="6.214" x2="12.033" y1="14.688" y2="18.718" gradientUnits="userSpaceOnUse">
				<stop stop-color="#0067bf" />
				<stop offset="1" stop-color="#003580" />
			</linearGradient>
			<linearGradient id="SVGTsGPHdQz" x1="14.5" x2="16.327" y1="12.444" y2="19.02" gradientUnits="userSpaceOnUse">
				<stop stop-color="#fdfdfd" />
				<stop offset="1" stop-color="#b3e0ff" />
			</linearGradient>
			<linearGradient id="SVGD4tYAcor" x1="17.154" x2="17.154" y1="2" y2="6.375" gradientUnits="userSpaceOnUse">
				<stop stop-color="#fb6f7b" />
				<stop offset="1" stop-color="#d7257d" />
			</linearGradient>
			<linearGradient id="SVG3R7RHbCj" x1="6.154" x2="6.154" y1="2" y2="6.375" gradientUnits="userSpaceOnUse">
				<stop stop-color="#fb6f7b" />
				<stop offset="1" stop-color="#d7257d" />
			</linearGradient>
			<linearGradient id="SVGdYvFhdSh" x1="12" x2="12" y1="2" y2="6.375" gradientUnits="userSpaceOnUse">
				<stop offset=".304" stop-color="#ff9fb2" />
				<stop offset="1" stop-color="#f97dbd" />
			</linearGradient>
		</defs>
	</g>
</svg>
