<svg xmlns="http://www.w3.org/2000/svg" viewBox="0 0 32 32">
	<g fill="none">
		<path fill="url(#SVGr9r94wmq)" d="M14 7.54c0-.844-.72-1.577-1.632-1.48C7.101 6.626 3 11.083 3 16.5C3 22.3 7.701 27 13.5 27c5.417 0 9.875-4.101 10.44-9.368c.098-.913-.636-1.632-1.48-1.632H17a3 3 0 0 1-3-3z" />
		<path fill="url(#SVG7YCQdbeG)" fill-opacity=".4" d="M14 7.54c0-.844-.72-1.577-1.632-1.48C7.101 6.626 3 11.083 3 16.5C3 22.3 7.701 27 13.5 27c5.417 0 9.875-4.101 10.44-9.368c.098-.913-.636-1.632-1.48-1.632H17a3 3 0 0 1-3-3z" />
		<path fill="url(#SVGPEhpRdDt)" fill-opacity=".4" d="M14 7.54c0-.844-.72-1.577-1.632-1.48C7.101 6.626 3 11.083 3 16.5C3 22.3 7.701 27 13.5 27c5.417 0 9.875-4.101 10.44-9.368c.098-.913-.636-1.632-1.48-1.632H17a3 3 0 0 1-3-3z" />
		<path fill="url(#SVG3LOJ9bAA)" d="M17.5 2q-.277 0-.552.014a1 1 0 0 0-.948.999V12a2 2 0 0 0 2 2h8.987a1 1 0 0 0 .999-.948Q28 12.778 28 12.5C28 6.701 23.299 2 17.5 2" />
		<path fill="url(#SVGvP49qbzy)" d="M29 16a2 2 0 0 0-2 2v11a2 2 0 1 0 4 0V18a2 2 0 0 0-2-2" />
		<path fill="url(#SVGLN6hpcLw)" d="M24 20a2 2 0 0 0-2 2v7a2 2 0 1 0 4 0v-7a2 2 0 0 0-2-2" />
		<path fill="url(#SVGePY3rddE)" d="M17 25a2 2 0 1 1 4 0v4a2 2 0 1 1-4 0z" />
		<defs>
			<linearGradient id="SVGr9r94wmq" x1="24.097" x2="-1.371" y1="30.38" y2="5.144" gradientUnits="userSpaceOnUse">
				<stop stop-color="#6d37cd" />
				<stop offset="1" stop-color="#ea71ef" />
			</linearGradient>
			<linearGradient id="SVG3LOJ9bAA" x1="28.5" x2="27.96" y1="10.3" y2=".065" gradientUnits="userSpaceOnUse">
				<stop stop-color="#e23cb4" />
				<stop offset="1" stop-color="#ea71ef" />
			</linearGradient>
			<linearGradient id="SVGvP49qbzy" x1="30.474" x2="40.958" y1="11.393" y2="16.613" gradientUnits="userSpaceOnUse">
				<stop stop-color="#16bbda" />
				<stop offset="1" stop-color="#0067bf" />
			</linearGradient>
			<linearGradient id="SVGLN6hpcLw" x1="23" x2="30.017" y1="20.786" y2="25.407" gradientUnits="userSpaceOnUse">
				<stop stop-color="#16bbda" />
				<stop offset="1" stop-color="#0067bf" />
			</linearGradient>
			<linearGradient id="SVGePY3rddE" x1="18" x2="22.632" y1="22" y2="25.795" gradientUnits="userSpaceOnUse">
				<stop stop-color="#16bbda" />
				<stop offset="1" stop-color="#0067bf" />
			</linearGradient>
			<radialGradient id="SVG7YCQdbeG" cx="0" cy="0" r="1" gradientTransform="matrix(0 6.5 -5.34375 0 19 26)" gradientUnits="userSpaceOnUse">
				<stop stop-color="#30116e" />
				<stop offset=".75" stop-color="#30116e" stop-opacity="0" />
			</radialGradient>
			<radialGradient id="SVGPEhpRdDt" cx="0" cy="0" r="1" gradientTransform="matrix(0 5.5 -3.79687 0 24 24.5)" gradientUnits="userSpaceOnUse">
				<stop stop-color="#30116e" />
				<stop offset="1" stop-color="#30116e" stop-opacity="0" />
			</radialGradient>
		</defs>
	</g>
</svg>
