<svg xmlns="http://www.w3.org/2000/svg" viewBox="0 0 32 32">
	<g fill="none">
		<path fill="url(#SVGixsHIbxL)" d="M2 19a6 6 0 0 0 6 6h16a6 6 0 1 0-.062-12a8.001 8.001 0 0 0-15.876 0H8a6 6 0 0 0-6 6" />
		<path fill="url(#SVGrNquVdHx)" fill-opacity=".3" d="M14 19a6 6 0 1 1-12 0a6 6 0 0 1 12 0" />
		<path fill="url(#SVGZt54VcXh)" fill-opacity=".3" d="M16 22a8 8 0 1 0-7.938-9a6 6 0 0 1 5.359 8.575A8 8 0 0 0 16 22" />
		<path fill="url(#SVGMWYVAcJQ)" d="M16 22a8 8 0 1 0-7.938-9a6 6 0 0 1 5.359 8.575A8 8 0 0 0 16 22" />
		<path fill="url(#SVG8cmJQdhP)" fill-opacity=".5" d="M2 19a6 6 0 0 0 6 6h16a6 6 0 1 0-.062-12a8.001 8.001 0 0 0-15.876 0H8a6 6 0 0 0-6 6" />
		<defs>
			<linearGradient id="SVGixsHIbxL" x1="3" x2="15.015" y1="9.563" y2="27.959" gradientUnits="userSpaceOnUse">
				<stop stop-color="#0fafff" />
				<stop offset="1" stop-color="#367af2" />
			</linearGradient>
			<linearGradient id="SVGrNquVdHx" x1="2" x2="10.09" y1="15.056" y2="22.215" gradientUnits="userSpaceOnUse">
				<stop stop-color="#fff" />
				<stop offset="1" stop-color="#fcfcfc" stop-opacity="0" />
			</linearGradient>
			<linearGradient id="SVGZt54VcXh" x1="10.825" x2="12.942" y1="6.9" y2="17.931" gradientUnits="userSpaceOnUse">
				<stop stop-color="#fff" />
				<stop offset="1" stop-color="#fcfcfc" stop-opacity="0" />
			</linearGradient>
			<radialGradient id="SVGMWYVAcJQ" cx="0" cy="0" r="1" gradientTransform="matrix(8.98356 -3.8 3.39718 8.03127 8.686 19.1)" gradientUnits="userSpaceOnUse">
				<stop offset=".412" stop-color="#2c87f5" />
				<stop offset="1" stop-color="#2c87f5" stop-opacity="0" />
			</radialGradient>
			<radialGradient id="SVG8cmJQdhP" cx="0" cy="0" r="1" gradientTransform="rotate(62.858 3.48 14.543)scale(23.6561 173.962)" gradientUnits="userSpaceOnUse">
				<stop offset=".5" stop-color="#dd3ce2" stop-opacity="0" />
				<stop offset="1" stop-color="#dd3ce2" />
			</radialGradient>
		</defs>
	</g>
</svg>
