<svg xmlns="http://www.w3.org/2000/svg" viewBox="0 0 24 24">
	<g fill="none">
		<path fill="url(#SVGN6wXkecw)" d="m16 11.65l4.662-2.448A2.5 2.5 0 0 0 22 6.99V3.75A1.75 1.75 0 0 0 20.25 2H16l-1 5z" />
		<path fill="url(#SVGEnHRkcXu)" d="M8 2H3.75A1.75 1.75 0 0 0 2 3.75v3.239a2.5 2.5 0 0 0 1.338 2.213L8 11.65l1-4.661z" />
		<path fill="url(#SVGryVRLeyc)" d="M8 11.65V2h8v9.65l-3.187 1.673a1.75 1.75 0 0 1-1.626 0z" />
		<path fill="url(#SVGueiITdTf)" d="M17 17a5 5 0 1 1-10 0a5 5 0 0 1 10 0" />
		<defs>
			<linearGradient id="SVGN6wXkecw" x1="22" x2="14.966" y1="2.858" y2="10.309" gradientUnits="userSpaceOnUse">
				<stop stop-color="#52d17c" />
				<stop offset="1" stop-color="#1a7f7c" />
			</linearGradient>
			<linearGradient id="SVGEnHRkcXu" x1="2" x2="9.064" y1="4.599" y2="9.274" gradientUnits="userSpaceOnUse">
				<stop stop-color="#52d17c" />
				<stop offset="1" stop-color="#1a7f7c" />
			</linearGradient>
			<linearGradient id="SVGryVRLeyc" x1="12" x2="15.64" y1=".559" y2="12.405" gradientUnits="userSpaceOnUse">
				<stop stop-color="#76eb95" />
				<stop offset="1" stop-color="#1ec8b0" />
			</linearGradient>
			<radialGradient id="SVGueiITdTf" cx="0" cy="0" r="1" gradientTransform="rotate(56.615 14.048 -25.06)scale(55.8175 47.8051)" gradientUnits="userSpaceOnUse">
				<stop offset=".772" stop-color="#ffcd0f" />
				<stop offset=".991" stop-color="#e67505" />
			</radialGradient>
		</defs>
	</g>
</svg>
