<svg xmlns="http://www.w3.org/2000/svg" viewBox="0 0 24 24">
	<g fill="none">
		<path fill="url(#SVGYqmhPezZ)" fill-rule="evenodd" d="M19.995 4.096A2.25 2.25 0 0 0 17.75 2H6.25l-.154.005A2.25 2.25 0 0 0 4 4.25v15.505l.005.154a2.25 2.25 0 0 0 2.245 2.096h11.5l.154-.006A2.25 2.25 0 0 0 20 19.755V4.25zM10.75 5a.75.75 0 0 0 0 1.5h2.5a.75.75 0 0 0 0-1.5z" clip-rule="evenodd" />
		<path fill="url(#SVGfuu8jd9R)" fill-opacity=".7" fill-rule="evenodd" d="M19.995 4.096A2.25 2.25 0 0 0 17.75 2H6.25l-.154.005A2.25 2.25 0 0 0 4 4.25v15.505l.005.154a2.25 2.25 0 0 0 2.245 2.096h11.5l.154-.006A2.25 2.25 0 0 0 20 19.755V4.25zM10.75 5a.75.75 0 0 0 0 1.5h2.5a.75.75 0 0 0 0-1.5z" clip-rule="evenodd" />
		<path fill="url(#SVGKF8InbDW)" fill-opacity=".9" d="M14.75 14.996c.69 0 1.25.56 1.25 1.25v.499c0 1.846-1.472 2.754-4 2.754s-4-.909-4-2.756v-.497c0-.69.56-1.25 1.25-1.25z" />
		<path fill="url(#SVGEjfDjdoG)" fill-opacity=".9" d="M12 8.996a2.5 2.5 0 1 1 0 5a2.5 2.5 0 0 1 0-5" />
		<defs>
			<linearGradient id="SVGYqmhPezZ" x1="-1.333" x2="18.824" y1="-2.374" y2="16.454" gradientUnits="userSpaceOnUse">
				<stop stop-color="#36dff1" />
				<stop offset=".218" stop-color="#35daf1" />
				<stop offset="1" stop-color="#2764e7" />
			</linearGradient>
			<linearGradient id="SVGfuu8jd9R" x1="14.476" x2="20.452" y1="4.457" y2="24.832" gradientUnits="userSpaceOnUse">
				<stop offset=".549" stop-color="#ff6ce8" stop-opacity="0" />
				<stop offset="1" stop-color="#ff6ce8" />
			</linearGradient>
			<linearGradient id="SVGKF8InbDW" x1="18.004" x2="13.237" y1="23.36" y2="7.832" gradientUnits="userSpaceOnUse">
				<stop stop-color="#9deaff" />
				<stop offset="1" stop-color="#fff" />
			</linearGradient>
			<linearGradient id="SVGEjfDjdoG" x1="15.752" x2="7.824" y1="18.281" y2="3.741" gradientUnits="userSpaceOnUse">
				<stop stop-color="#9deaff" />
				<stop offset="1" stop-color="#fff" />
			</linearGradient>
		</defs>
	</g>
</svg>
