<svg xmlns="http://www.w3.org/2000/svg" viewBox="0 0 32 32">
	<g fill="none">
		<path fill="url(#SVGh8SmAcxq)" fill-rule="evenodd" d="M19 3a3 3 0 0 1 3 3v2h.314L16 10.5L9.79 8H10V6a3 3 0 0 1 3-3zm-6 2a1 1 0 0 0-1 1v2h8V6a1 1 0 0 0-1-1z" clip-rule="evenodd" />
		<path fill="url(#SVGJvyZBdzo)" d="M3 14h26v9.5a4.5 4.5 0 0 1-4.5 4.5h-17A4.5 4.5 0 0 1 3 23.5z" />
		<path fill="url(#SVGYLyw2b0I)" d="M3 14h26v9.5a4.5 4.5 0 0 1-4.5 4.5h-17A4.5 4.5 0 0 1 3 23.5z" />
		<path fill="url(#SVGZNQmse1Q)" d="M3 12.5A4.5 4.5 0 0 1 7.5 8h17a4.5 4.5 0 0 1 4.5 4.5V16a3 3 0 0 1-3 3H6a3 3 0 0 1-3-3z" />
		<path fill="url(#SVGns90CceZ)" d="M17.5 15h-3a1.5 1.5 0 0 0-1.5 1.5v3a1.5 1.5 0 0 0 1.5 1.5h3a1.5 1.5 0 0 0 1.5-1.5v-3a1.5 1.5 0 0 0-1.5-1.5" />
		<defs>
			<linearGradient id="SVGh8SmAcxq" x1="9.221" x2="11.409" y1="3.75" y2="12.001" gradientUnits="userSpaceOnUse">
				<stop stop-color="#0094f0" />
				<stop offset="1" stop-color="#163697" />
			</linearGradient>
			<linearGradient id="SVGJvyZBdzo" x1="3.929" x2="11.971" y1="16.625" y2="42.091" gradientUnits="userSpaceOnUse">
				<stop stop-color="#0fafff" />
				<stop offset="1" stop-color="#cc23d1" />
			</linearGradient>
			<linearGradient id="SVGZNQmse1Q" x1="5.6" x2="17.64" y1="8.457" y2="22.854" gradientUnits="userSpaceOnUse">
				<stop stop-color="#80f1e6" />
				<stop offset=".552" stop-color="#40c4f5" />
				<stop offset="1" stop-color="#00a2fa" />
			</linearGradient>
			<linearGradient id="SVGns90CceZ" x1="16" x2="16" y1="15" y2="21" gradientUnits="userSpaceOnUse">
				<stop stop-color="#b8f5ff" />
				<stop offset=".844" stop-color="#7cecff" />
			</linearGradient>
			<radialGradient id="SVGYLyw2b0I" cx="0" cy="0" r="1" gradientTransform="matrix(0 14 -28.981 0 16 14)" gradientUnits="userSpaceOnUse">
				<stop offset=".337" stop-color="#194694" />
				<stop offset=".747" stop-color="#367af2" stop-opacity="0" />
			</radialGradient>
		</defs>
	</g>
</svg>
