<svg xmlns="http://www.w3.org/2000/svg" viewBox="0 0 32 32">
	<g fill="none">
		<path fill="url(#SVGybQiheuV)" d="M6 25h20.688S26 25.4 26 27s.688 2 .688 2H9a3 3 0 0 1-3-3z" />
		<path fill="url(#SVGxiB6hehX)" d="M9 28a2 2 0 0 1-2-2h18.25A1.75 1.75 0 0 0 27 24.25V6a4 4 0 0 0-4-4H9a4 4 0 0 0-4 4v20a4 4 0 0 0 4 4h17a1 1 0 1 0 0-2z" />
		<path fill="url(#SVGsJPP1clr)" d="M10.75 6A1.75 1.75 0 0 0 9 7.75v2.5c0 .966.784 1.75 1.75 1.75h10.5A1.75 1.75 0 0 0 23 10.25v-2.5A1.75 1.75 0 0 0 21.25 6z" />
		<defs>
			<linearGradient id="SVGybQiheuV" x1="15.565" x2="15.565" y1="28.2" y2="25" gradientUnits="userSpaceOnUse">
				<stop stop-color="#9deaff" />
				<stop offset=".716" stop-color="#58aafe" />
			</linearGradient>
			<linearGradient id="SVGxiB6hehX" x1="12.591" x2="16.974" y1="7.239" y2="37.373" gradientUnits="userSpaceOnUse">
				<stop stop-color="#20ac9d" />
				<stop offset="1" stop-color="#2052cb" />
			</linearGradient>
			<linearGradient id="SVGsJPP1clr" x1="13.828" x2="20.922" y1="4.971" y2="15.271" gradientUnits="userSpaceOnUse">
				<stop stop-color="#9ff0f9" />
				<stop offset="1" stop-color="#6ce0ff" />
			</linearGradient>
		</defs>
	</g>
</svg>
