<svg xmlns="http://www.w3.org/2000/svg" viewBox="0 0 32 32">
	<g fill="none">
		<path fill="url(#SVGQO99lctd)" d="M5.25 4A3.25 3.25 0 0 0 2 7.25V20h.525c.092.933.441 1.79.975 2.5V25h23.25A3.25 3.25 0 0 0 30 21.75V7.25A3.25 3.25 0 0 0 26.75 4z" />
		<path fill="url(#SVGYLVOgdBI)" fill-opacity=".9" d="M8 11a1 1 0 0 1 1-1h14a1 1 0 1 1 0 2H9a1 1 0 0 1-1-1m9 6a1 1 0 1 0 0 2h6a1 1 0 1 0 0-2z" />
		<path fill="url(#SVGr9upsp5q)" d="M12 21.862A6.97 6.97 0 0 1 7.5 23.5A6.97 6.97 0 0 1 3 21.862V29a1 1 0 0 0 1.528.849l2.972-1.85l2.972 1.85a1 1 0 0 0 1.528-.85z" />
		<path fill="url(#SVG87LVxeGX)" d="M13 19.5a5.5 5.5 0 1 1-11 0a5.5 5.5 0 0 1 11 0" />
		<defs>
			<radialGradient id="SVGr9upsp5q" cx="0" cy="0" r="1" gradientTransform="matrix(0 11.421 -17.6871 0 7.5 22)" gradientUnits="userSpaceOnUse">
				<stop stop-color="#163697" />
				<stop offset="1" stop-color="#29c3ff" />
			</radialGradient>
			<radialGradient id="SVG87LVxeGX" cx="0" cy="0" r="1" gradientTransform="rotate(56.615 11.86 -32.457)scale(61.3992 52.5856)" gradientUnits="userSpaceOnUse">
				<stop offset=".772" stop-color="#ffcd0f" />
				<stop offset=".991" stop-color="#e67505" />
			</radialGradient>
			<linearGradient id="SVGQO99lctd" x1="3" x2="16.766" y1="7.938" y2="27.007" gradientUnits="userSpaceOnUse">
				<stop stop-color="#0fafff" />
				<stop offset="1" stop-color="#2764e7" />
			</linearGradient>
			<linearGradient id="SVGYLVOgdBI" x1="31.2" x2="20.404" y1="30.7" y2="1.771" gradientUnits="userSpaceOnUse">
				<stop stop-color="#9deaff" />
				<stop offset="1" stop-color="#fff" />
			</linearGradient>
		</defs>
	</g>
</svg>
