<svg xmlns="http://www.w3.org/2000/svg" viewBox="0 0 32 32">
	<g fill="none">
		<path fill="url(#SVG19CFuJOe)" d="M27 30a1 1 0 0 0 1-1V16.25A3.25 3.25 0 0 0 24.75 13H22V5.25A3.25 3.25 0 0 0 18.75 2H7a3 3 0 0 0-3 3v24a1 1 0 0 0 1 1z" />
		<path fill="url(#SVGkkuCidCA)" d="M27 30a1 1 0 0 0 1-1V16.25A3.25 3.25 0 0 0 24.75 13H22V5.25A3.25 3.25 0 0 0 18.75 2H7a3 3 0 0 0-3 3v24a1 1 0 0 0 1 1z" />
		<path fill="url(#SVGJrPAAcjk)" d="M27 30a1 1 0 0 0 1-1V16.25A3.25 3.25 0 0 0 24.75 13H22V5.25A3.25 3.25 0 0 0 18.75 2H7a3 3 0 0 0-3 3v24a1 1 0 0 0 1 1z" />
		<path fill="url(#SVGsE2bCeXR)" d="M10.5 10a1.5 1.5 0 1 0 0-3a1.5 1.5 0 0 0 0 3m0 5a1.5 1.5 0 1 0 0-3a1.5 1.5 0 0 0 0 3m1.5 3.5a1.5 1.5 0 1 1-3 0a1.5 1.5 0 0 1 3 0m3.5-8.5a1.5 1.5 0 1 0 0-3a1.5 1.5 0 0 0 0 3m1.5 3.5a1.5 1.5 0 1 1-3 0a1.5 1.5 0 0 1 3 0" />
		<path fill="url(#SVGGmaGqbXI)" d="M21 25h5v6h-5z" />
		<path fill="url(#SVG6mk9bbxF)" d="M22.448 17.888a1.625 1.625 0 0 1 2.105 0l4.875 4.144c.363.309.573.761.573 1.238v6.48c0 .69-.56 1.25-1.25 1.25h-3.25v-4.5a1 1 0 0 0-.996-1h-2.009a1 1 0 0 0-.996 1V31h-3.25c-.69 0-1.25-.56-1.25-1.25v-6.48c0-.477.209-.929.573-1.238z" />
		<path fill="url(#SVGHz160cqT)" fill-rule="evenodd" d="M22.687 16.05a1.25 1.25 0 0 1 1.627 0l7 6a1.25 1.25 0 1 1-1.628 1.9L23.5 18.645l-6.186 5.303a1.25 1.25 0 0 1-1.627-1.898z" clip-rule="evenodd" />
		<defs>
			<linearGradient id="SVG19CFuJOe" x1="4" x2="30.607" y1="2.875" y2="32.072" gradientUnits="userSpaceOnUse">
				<stop stop-color="#29c3ff" />
				<stop offset="1" stop-color="#2764e7" />
			</linearGradient>
			<linearGradient id="SVGsE2bCeXR" x1="12.9" x2="17.649" y1="5.556" y2="22.653" gradientUnits="userSpaceOnUse">
				<stop stop-color="#fdfdfd" />
				<stop offset="1" stop-color="#b3e0ff" />
			</linearGradient>
			<linearGradient id="SVGGmaGqbXI" x1="23.5" x2="19.738" y1="25" y2="31.969" gradientUnits="userSpaceOnUse">
				<stop stop-color="#944600" />
				<stop offset="1" stop-color="#cd8e02" />
			</linearGradient>
			<linearGradient id="SVG6mk9bbxF" x1="5.577" x2="14.981" y1="18.998" y2="37.035" gradientUnits="userSpaceOnUse">
				<stop stop-color="#ffd394" />
				<stop offset="1" stop-color="#ffb357" />
			</linearGradient>
			<linearGradient id="SVGHz160cqT" x1="24.286" x2="22.86" y1="13.334" y2="23.508" gradientUnits="userSpaceOnUse">
				<stop stop-color="#ff921f" />
				<stop offset="1" stop-color="#eb4824" />
			</linearGradient>
			<radialGradient id="SVGkkuCidCA" cx="0" cy="0" r="1" gradientTransform="matrix(-5.50004 4.49996 -1.81836 -2.22248 20 22)" gradientUnits="userSpaceOnUse">
				<stop stop-color="#4a43cb" />
				<stop offset=".914" stop-color="#4a43cb" stop-opacity="0" />
			</radialGradient>
			<radialGradient id="SVGJrPAAcjk" cx="0" cy="0" r="1" gradientTransform="matrix(0 10 -7.25 0 22 28)" gradientUnits="userSpaceOnUse">
				<stop stop-color="#4a43cb" />
				<stop offset=".914" stop-color="#4a43cb" stop-opacity="0" />
			</radialGradient>
		</defs>
	</g>
</svg>
