<svg xmlns="http://www.w3.org/2000/svg" viewBox="0 0 32 32">
	<g fill="none">
		<path fill="url(#SVGqb0dceSz)" d="M25.5 2A7.5 7.5 0 0 0 18 9.5v4a2.5 2.5 0 0 0 2.5 2.5h.389a616 616 0 0 0-.431 4.262c-.23 2.37-.458 4.9-.458 5.738a4 4 0 1 0 8 0c0-.985-.317-4.033-.586-6.631l-.013-.122a425 425 0 0 1-.283-2.781C27.04 15.668 27 15.158 27 15V3a1 1 0 0 0-1-1z" />
		<path fill="url(#SVGQapuBdDC)" d="M14.974 2.773a1 1 0 0 0-1.035-.771c-.53.03-.949.467-.949 1.004v6a.995.995 0 0 1-1.99.03V3a1 1 0 1 0-2 0v6.065a.995.995 0 0 1-1.988-.06V3.007a1.007 1.007 0 0 0-1.986-.233C5.004 2.866 4 7.14 4 10a5.99 5.99 0 0 0 2.27 4.7c.496.394.73.823.73 1.182a1 1 0 0 1-.007.114c-.06.504-.307 2.594-.539 4.753C6.226 22.872 6 25.16 6 26a4 4 0 0 0 8 0c0-.839-.226-3.128-.454-5.251c-.232-2.159-.48-4.25-.54-4.753a1 1 0 0 1-.006-.114c0-.359.234-.788.73-1.182A5.99 5.99 0 0 0 16 10c0-2.862-1.007-7.144-1.026-7.227m-1.08-.768l.02-.001h-.008l-.008.001z" />
		<defs>
			<linearGradient id="SVGqb0dceSz" x1="16.462" x2="40.694" y1="3.75" y2="11.981" gradientUnits="userSpaceOnUse">
				<stop stop-color="#6ce0ff" />
				<stop offset="1" stop-color="#0067bf" />
			</linearGradient>
			<linearGradient id="SVGQapuBdDC" x1="2.154" x2="29.967" y1="3.75" y2="15.086" gradientUnits="userSpaceOnUse">
				<stop stop-color="#6ce0ff" />
				<stop offset="1" stop-color="#0067bf" />
			</linearGradient>
		</defs>
	</g>
</svg>
