<svg xmlns="http://www.w3.org/2000/svg" viewBox="0 0 32 32">
	<g fill="none">
		<path fill="url(#SVGau1xsAGW)" d="M30 16c0 7.732-6.268 14-14 14S2 23.732 2 16S8.268 2 16 2s14 6.268 14 14" />
		<path fill="url(#SVGYbPd5clO)" d="M15 10a1 1 0 1 1 2 0v5h5a1 1 0 1 1 0 2h-5v5a1 1 0 1 1-2 0v-5h-5a1 1 0 1 1 0-2h5z" />
		<defs>
			<linearGradient id="SVGau1xsAGW" x1="3" x2="22.323" y1="7.25" y2="27.326" gradientUnits="userSpaceOnUse">
				<stop stop-color="#52d17c" />
				<stop offset="1" stop-color="#22918b" />
			</linearGradient>
			<linearGradient id="SVGYbPd5clO" x1="11.625" x2="15.921" y1="10.428" y2="25.592" gradientUnits="userSpaceOnUse">
				<stop stop-color="#fff" />
				<stop offset="1" stop-color="#e3ffd9" />
			</linearGradient>
		</defs>
	</g>
</svg>
