<svg xmlns="http://www.w3.org/2000/svg" viewBox="0 0 24 24">
	<g fill="none">
		<path fill="url(#SVGpxifffbs)" d="M15.247 20.258a2.25 2.25 0 0 1-2.019 1.736l-.173.006h-2.111a2.25 2.25 0 0 1-2.147-1.576l-.046-.168l-.405-1.756h7.308z" />
		<path fill="url(#SVGdAFTsqTR)" d="M15.247 20.258a2.25 2.25 0 0 1-2.019 1.736l-.173.006h-2.111a2.25 2.25 0 0 1-2.147-1.576l-.046-.168l-.405-1.756h7.308z" />
		<path fill="url(#SVGblvOodDP)" d="M8.23 18h7.54l.644-2.783a.25.25 0 0 1 .07-.125c1.83-1.747 2.766-3.704 2.766-5.84a7.25 7.25 0 1 0-14.5 0c0 2.136.936 4.093 2.767 5.84a.25.25 0 0 1 .071.125z" />
		<path fill="url(#SVGDtYZweND)" d="m8.46 19l-.346-1.5h7.772l-.348 1.5z" />
		<defs>
			<radialGradient id="SVGpxifffbs" cx="0" cy="0" r="1" gradientTransform="rotate(71.806 -1.52 8.91)scale(14.468 24.6328)" gradientUnits="userSpaceOnUse">
				<stop stop-color="#ffe06b" />
				<stop offset=".376" stop-color="#ffa43d" />
				<stop offset="1" stop-color="#e67505" />
			</radialGradient>
			<radialGradient id="SVGblvOodDP" cx="0" cy="0" r="1" gradientTransform="rotate(74.837 .961 6.69)scale(18.226 26.4109)" gradientUnits="userSpaceOnUse">
				<stop stop-color="#ffe06b" />
				<stop offset=".376" stop-color="#ffa43d" />
				<stop offset="1" stop-color="#e67505" />
			</radialGradient>
			<linearGradient id="SVGdAFTsqTR" x1="11.999" x2="11.999" y1="18.5" y2="22" gradientUnits="userSpaceOnUse">
				<stop stop-color="#d34719" />
				<stop offset="1" stop-color="#d34719" stop-opacity="0" />
			</linearGradient>
			<linearGradient id="SVGDtYZweND" x1="11.385" x2="12.725" y1="18.095" y2="20.874" gradientUnits="userSpaceOnUse">
				<stop stop-color="#ffc7a3" />
				<stop offset="1" stop-color="#ff9c70" />
			</linearGradient>
		</defs>
	</g>
</svg>
