<?xml version="1.0" encoding="utf-8"?>
<svg xmlns="http://www.w3.org/2000/svg" viewBox="0 0 30 30" width="32" height="32">
  <path d="M23.003906 5.9980469 A 1.0001 1.0001 0 0 0 22.933594 6.0019531L7.9335938 7.0019531 A 1.0002537 1.0002537 0 0 0 8.0214844 9L11 9L11 12.222656C8.1860739 12.735687 5 14 5 14L2.5996094 10.800781C2.2216094 10.296781 1.63 10 1 10L0 10L0.74804688 15.240234C0.90804688 16.358234 1.6800469 17.287297 2.7480469 17.654297C5.3160469 18.536297 10.414 20 16 20C20.569222 20 24.480915 19.523859 27 18.642578L27 21 A 1.0001 1.0001 0 1 0 29 21L29 17.646484C29.643248 17.164229 30 16.614478 30 16C30 15.507296 29.618987 15.056787 29 14.648438L29 11 A 1.0001 1.0001 0 0 0 27.984375 9.9863281 A 1.0001 1.0001 0 0 0 27 11L27 13.714844C24.826736 12.941257 21.991378 12.428103 20 12.179688L20 9L23 9C23.552 9 24 8.552 24 8L24 7.2597656 A 1.0004882 1.0004882 0 0 0 23.003906 5.9980469 z M 13 9L18 9L18 13C18 13.552 17.552 14 17 14L14 14C13.448 14 13 13.552 13 13L13 9 z M 20.5 21C19.672 21 19 21.672 19 22.5C19 23.328 19.672 24 20.5 24C21.328 24 22 23.328 22 22.5C22 21.672 21.328 21 20.5 21 z" fill="#FFFFFF" />
</svg>