<?xml version="1.0" encoding="utf-8"?>
<svg xmlns="http://www.w3.org/2000/svg" viewBox="0 0 30 30" width="32" height="32">
  <path d="M15 7 A 1.0001 1.0001 0 1 0 15 9L17.521484 9L19.132812 11L16.5 11 A 1.5 1.5 0 0 0 15.087891 12L9.9121094 12 A 1.5 1.5 0 0 0 8.5 11L3.5 11 A 1.5 1.5 0 0 0 2.1503906 11.849609L2.1484375 11.851562L2.1425781 11.865234 A 1.5 1.5 0 0 0 2.0488281 12.123047L1 15L5.5 15L6.0273438 16.052734C5.8524311 16.031816 5.6802717 16 5.5 16C3.0265633 16 1 18.026563 1 20.5C1 22.973437 3.0265633 25 5.5 25C7.8024856 25 9.6954732 23.23796 9.9492188 21L11.519531 21C11.876462 21.611552 12.52273 22 13.236328 22L14.763672 22C15.478212 22 16.123637 21.611552 16.480469 21L18.050781 21C18.304527 23.23796 20.197514 25 22.5 25C24.973437 25 27 22.973437 27 20.5L29 19L29 17L27.945312 14.099609 A 1.5 1.5 0 0 0 27.939453 14.080078 A 1.5 1.5 0 0 0 27.876953 13.912109L27.867188 13.882812L27.863281 13.878906 A 1.5 1.5 0 0 0 26.939453 13.066406 A 1.5 1.5 0 0 0 26.703125 13.015625L22.615234 12.132812L18.779297 7.3730469 A 1.0001 1.0001 0 0 0 18 7L15 7 z M 5.5 18C6.8925565 18 8 19.107443 8 20.5C8 21.892557 6.8925565 23 5.5 23C4.1074435 23 3 21.892557 3 20.5C3 19.107443 4.1074435 18 5.5 18 z M 22.5 18C23.892557 18 25 19.107443 25 20.5C25 21.892557 23.892557 23 22.5 23C21.107443 23 20 21.892557 20 20.5C20 19.107443 21.107443 18 22.5 18 z" fill="#FFFFFF" />
</svg>