<?xml version="1.0" encoding="utf-8"?>
<svg xmlns="http://www.w3.org/2000/svg" viewBox="0 0 30 30" width="32" height="32">
  <path d="M11.984375 4.9863281 A 1.0001 1.0001 0 0 0 11.839844 5L7 5C4.2504839 5 2 7.2504839 2 10L2 11.832031 A 1.0001 1.0001 0 0 0 2 12.158203L2 14.878906 A 1.0001 1.0001 0 0 0 2.0078125 15L2 15L2 20.003906C2 21.105906 2.8940937 22 3.9960938 22L4.0410156 22C4.0191843 22.166345 4 22.333177 4 22.5C4 23.347222 4.2770139 24.207882 4.8769531 24.882812C5.4768923 25.557744 6.4166669 26 7.5 26C8.5833331 26 9.5231076 25.557744 10.123047 24.882812C10.722986 24.207881 11 23.347222 11 22.5C11 22.333177 10.980816 22.166345 10.958984 22L17.755859 22C18.551859 22 19.316906 21.684094 19.878906 21.121094L20 21L21.326172 21C21.114301 21.477305 21 21.988707 21 22.5C21 23.347222 21.277014 24.207882 21.876953 24.882812C22.476892 25.557744 23.416667 26 24.5 26C25.583333 26 26.523108 25.557744 27.123047 24.882812C27.722986 24.207881 28 23.347222 28 22.5C28 21.890492 27.850714 21.275821 27.546875 20.726562L29 20C29 20 27.611132 17.153726 24.732422 16.267578L25 16C24.996802 15.800003 24.979642 15.600309 24.964844 15.400391L26.265625 15.400391L26.265625 12.400391L24.367188 12.400391C23.655457 10.122095 22.515784 8.1474895 21.742188 7L22 7 A 1.0001 1.0001 0 1 0 22 5L12.154297 5 A 1.0001 1.0001 0 0 0 11.984375 4.9863281 z M 7 7L11 7L11 11L4 11L4 10C4 8.3315161 5.3315161 7 7 7 z M 13 7L19.541016 7C20.133608 8.1453771 21 10.102801 21 12C21 15 20 18 18 18L16 18C15.448 18 15 17.552 15 17L15 16.5L14.998047 16.498047 A 1.5 1.5 0 0 0 13.5 15L13 15L13 12.167969 A 1.0001 1.0001 0 0 0 13 11.841797L13 7 z M 4 13L11 13L11 15L3.9921875 15 A 1.0001 1.0001 0 0 0 4 14.878906L4 13 z M 7.5 21C8.0833329 21 8.3935594 21.182744 8.6269531 21.445312C8.8603469 21.707881 9 22.097222 9 22.5C9 22.902778 8.8603469 23.292118 8.6269531 23.554688C8.3935594 23.817256 8.0833329 24 7.5 24C6.9166671 24 6.6064406 23.817256 6.3730469 23.554688C6.1396531 23.292119 6 22.902778 6 22.5C6 22.097222 6.1396531 21.707882 6.3730469 21.445312C6.6064406 21.182744 6.9166671 21 7.5 21 z M 24.5 21C25.083333 21 25.393559 21.182744 25.626953 21.445312C25.860347 21.707881 26 22.097222 26 22.5C26 22.902778 25.860347 23.292118 25.626953 23.554688C25.393559 23.817256 25.083333 24 24.5 24C23.916667 24 23.606441 23.817256 23.373047 23.554688C23.139653 23.292119 23 22.902778 23 22.5C23 22.097222 23.139653 21.707882 23.373047 21.445312C23.606441 21.182744 23.916667 21 24.5 21 z" fill="#FFFFFF" />
</svg>