<?xml version="1.0" encoding="utf-8"?>
<svg xmlns="http://www.w3.org/2000/svg" viewBox="0 0 30 30" width="32" height="32">
  <path d="M15 3 A 2 2 0 0 0 13 5 A 2 2 0 0 0 14 6.7304688L14 12L12.373047 12C11.701999 12 11.099745 12.34593 10.732422 12.884766C10.286347 12.452442 9.5743443 12 8.4648438 12C6.6048437 12 5.3644688 13.428797 5.2304688 13.591797L6.7695312 14.869141C6.7765313 14.860141 7.5318438 14 8.4648438 14C9.2373902 14 9.7697858 14.162012 10.117188 14.292969L8.203125 19.261719C8.203125 19.261719 8.207016 19.259775 8.2070312 19.259766C8.0959972 19.545083 8.0292969 19.757812 8.0292969 19.757812 A 1.0004597 1.0004597 0 1 0 9.9707031 20.242188C9.9707031 20.242188 10.161605 19.475179 10.869141 18.652344C11.576676 17.829509 12.713798 17 14.878906 17C17.044014 17 18.261304 17.839511 19.033203 18.677734C19.805102 19.515958 20.044922 20.296875 20.044922 20.296875 A 1.0001544 1.0001544 0 1 0 21.955078 19.703125C21.955078 19.703125 21.850608 19.380059 21.609375 18.912109L20.330078 15.523438C19.757956 13.877452 21.091515 12 22 12C22.922 12 23.449219 12.621094 23.449219 12.621094L24.388672 12.269531C24.388672 11.565531 24.152141 9.688625 22.744141 8.515625L23 7C23 7 19.999094 6.99975 18.871094 9.21875C18.285094 10.15775 17.878 12 16 12L16 6.7285156 A 2 2 0 0 0 17 5 A 2 2 0 0 0 15 3 z M 14.984375 18.986328 A 1.0001 1.0001 0 0 0 14 20L14 24L5 24 A 1.0001 1.0001 0 1 0 5 26L14.832031 26 A 1.0001 1.0001 0 0 0 15.158203 26L25 26 A 1.0001 1.0001 0 1 0 25 24L16 24L16 20 A 1.0001 1.0001 0 0 0 14.984375 18.986328 z" fill="#FFFFFF" />
</svg>