<?xml version="1.0" encoding="utf-8"?>
<svg xmlns="http://www.w3.org/2000/svg" viewBox="0 0 30 30" width="32" height="32">
  <path d="M14.984375 1.9863281 A 1.0001 1.0001 0 0 0 14 3L14 3.0996094C12.040942 3.4973237 10.497324 5.0409417 10.099609 7L10 7 A 1.0001 1.0001 0 1 0 10 9L20 9 A 1.0001 1.0001 0 1 0 20 7L19.900391 7C19.502676 5.0409417 17.959058 3.4973237 16 3.0996094L16 3 A 1.0001 1.0001 0 0 0 14.984375 1.9863281 z M 10 11L10 15.382812L4.5527344 18.105469 A 1.0001161 1.0001161 0 0 0 5 20L5 26L11 26L11 24.171875C11 22.082875 12.527422 20.217531 14.607422 20.019531C16.993422 19.791531 19 21.661 19 24L19 26L25 26L25 20 A 1.0001163 1.0001163 0 0 0 25.447266 18.105469L20 15.382812L20 11L18 11L18 14.382812L16 13.382812L16 11L14 11L14 13.382812L12 14.382812L12 11L10 11 z" fill="#FFFFFF" />
</svg>