<?xml version="1.0" encoding="utf-8"?>
<svg xmlns="http://www.w3.org/2000/svg" viewBox="0 0 30 30" width="32" height="32">
  <path d="M13.011719 5.9863281 A 1.0001 1.0001 0 0 0 12.841797 6L10 6 A 1.0001 1.0001 0 1 0 10 8L11.611328 8L9.2792969 15L6 15L6 8 A 1.0001 1.0001 0 0 0 4.984375 6.9863281 A 1.0001 1.0001 0 0 0 4.8398438 7L1 7L1 10L4 10L4 15L2 15C1.448 15 1 15.448 1 16L1 17L2.5292969 21.056641C3.1422969 20.959641 3.7777969 21.033406 4.3417969 21.316406C4.7227969 21.501406 5.97 22 7 22C8.03 22 9.277875 21.502547 9.671875 21.310547C10.511875 20.901547 11.505797 20.898406 12.341797 21.316406C12.722797 21.501406 13.97 22 15 22C16.03 22 17.277875 21.502547 17.671875 21.310547C18.511875 20.901547 19.505797 20.898406 20.341797 21.316406C20.722797 21.501406 21.97 22 23 22C24.03 22 25.277875 21.502547 25.671875 21.310547C25.822875 21.236547 25.983578 21.191531 26.142578 21.144531L29 16L29 14C29 13.448 28.552 13 28 13L25.515625 13L21.412109 7.2578125C20.850001 6.4693624 19.938685 6 18.970703 6L13.160156 6 A 1.0001 1.0001 0 0 0 13.011719 5.9863281 z M 13.720703 8L18.970703 8C19.294722 8 19.595311 8.1544188 19.783203 8.4179688 A 1.0001 1.0001 0 0 0 19.785156 8.4199219L23.642578 13.820312C22.440687 14.372969 20.366057 15 17 15L11.388672 15L13.720703 8 z M 2.9648438 22.994141 A 1.0001 1.0001 0 0 0 2.5527344 24.894531C2.5527344 24.894531 4.6666667 26 7 26C8.9465696 26 10.458804 25.333203 11 25.078125C11.541196 25.333203 13.05343 26 15 26C16.94657 26 18.458804 25.333203 19 25.078125C19.541196 25.333203 21.05343 26 23 26C25.333333 26 27.447266 24.894531 27.447266 24.894531 A 1.0001163 1.0001163 0 1 0 26.552734 23.105469C26.552734 23.105469 24.666667 24 23 24C21.333333 24 19.447266 23.105469 19.447266 23.105469 A 1.0001 1.0001 0 0 0 18.552734 23.105469C18.552734 23.105469 16.666667 24 15 24C13.333333 24 11.447266 23.105469 11.447266 23.105469 A 1.0001 1.0001 0 0 0 10.552734 23.105469C10.552734 23.105469 8.6666667 24 7 24C5.3333333 24 3.4472656 23.105469 3.4472656 23.105469 A 1.0001 1.0001 0 0 0 2.9648438 22.994141 z" fill="#FFFFFF" />
</svg>