<?xml version="1.0" encoding="utf-8"?>
<svg xmlns="http://www.w3.org/2000/svg" viewBox="0 0 30 30" width="32" height="32">
  <path d="M15 3C14.194938 3 13.504718 3.4768764 13.1875 4.1621094C11.484826 4.4465004 9.9164685 5.1205035 8.5722656 6.09375C8.38971 6.0389254 8.2004695 6 8 6C6.895 6 6 6.895 6 8C6 8.2004695 6.0389254 8.38971 6.09375 8.5722656C5.1205035 9.9164685 4.4465004 11.484826 4.1621094 13.1875C3.4768764 13.504718 3 14.194938 3 15C3 15.801948 3.4733377 16.489706 4.1542969 16.808594C4.4371587 18.512531 5.1239002 20.076199 6.0957031 21.421875C6.0397338 21.60616 6 21.797367 6 22C6 23.105 6.895 24 8 24C8.1967968 24 8.3828945 23.963063 8.5625 23.910156C8.6667838 23.985666 8.7797259 24.04921 8.8867188 24.121094L8.1230469 25.521484 A 1.0001 1.0001 0 1 0 9.8769531 26.478516L15 17.085938L18.404297 23.328125C17.837728 23.560233 17.239154 23.725194 16.621094 23.837891C16.258221 23.33232 15.670147 23 15 23C13.895 23 13 23.895 13 25C13 26.105 13.895 27 15 27C15.80723 27 16.498415 26.520243 16.814453 25.832031C17.704322 25.683742 18.556722 25.432423 19.361328 25.083984L20.123047 26.478516 A 1.0001 1.0001 0 1 0 21.876953 25.521484L16.703125 16.037109C16.88786 15.734114 17 15.381011 17 15C17 13.895 16.105 13 15 13C13.895 13 13 13.895 13 15C13 15.381011 13.11214 15.734114 13.296875 16.037109L9.9902344 22.099609C9.991927 22.065849 10 22.034183 10 22C10 20.895 9.105 20 8 20C7.8519116 20 7.7092088 20.018328 7.5703125 20.048828C6.879391 19.034632 6.3928987 17.876627 6.1640625 16.621094C6.6689382 16.258142 7 15.669604 7 15C7 14.325885 6.6649575 13.73337 6.1542969 13.371094C6.3822851 12.11897 6.8600262 10.955529 7.546875 9.9433594C7.6932119 9.977421 7.8432571 10 8 10C9.105 10 10 9.105 10 8C10 7.8432571 9.977421 7.6932119 9.9433594 7.546875C10.955529 6.8600262 12.11897 6.3822851 13.371094 6.1542969C13.73337 6.6649575 14.325885 7 15 7C15.674115 7 16.26663 6.6649575 16.628906 6.1542969C17.88103 6.3822851 19.044471 6.8600262 20.056641 7.546875C20.022579 7.6932119 20 7.8432571 20 8C20 9.105 20.895 10 22 10C22.156743 10 22.306788 9.977421 22.453125 9.9433594C23.139974 10.955529 23.617715 12.11897 23.845703 13.371094C23.335042 13.73337 23 14.325885 23 15C23 15.675107 23.335721 16.26874 23.847656 16.630859C23.618463 17.883232 23.129925 19.039729 22.439453 20.052734C22.297389 20.020745 22.151761 20 22 20C21.7 20 21.418109 20.071453 21.162109 20.189453L23.068359 23.685547C23.626359 23.330547 24 22.71 24 22C24 21.803858 23.962724 21.618531 23.910156 21.439453C24.885958 20.092052 25.568556 18.515073 25.851562 16.804688C26.529091 16.48448 27 15.799446 27 15C27 14.194938 26.523124 13.504718 25.837891 13.1875C25.5535 11.484826 24.879496 9.9164685 23.90625 8.5722656C23.961075 8.38971 24 8.2004695 24 8C24 6.895 23.105 6 22 6C21.799531 6 21.61029 6.0389254 21.427734 6.09375C20.083532 5.1205035 18.515174 4.4465004 16.8125 4.1621094C16.495282 3.4768764 15.805062 3 15 3 z" fill="#FFFFFF" />
</svg>