<?xml version="1.0" encoding="utf-8"?>
<svg xmlns="http://www.w3.org/2000/svg" viewBox="0 0 30 30" width="32" height="32">
  <path d="M5.984375 3.9863281 A 1.0001 1.0001 0 0 0 5.8398438 4L5 4 A 1.0001 1.0001 0 1 0 5 6L5 14 A 1.0001 1.0001 0 0 0 5.0136719 14.173828C3.3929629 14.682794 2 16.333062 2 18L2 22C2 24.197294 3.8027056 26 6 26C7.8503017 26 9.4055915 24.715786 9.8554688 23L20.144531 23C20.594409 24.715786 22.149699 26 24 26C26.197294 26 28 24.197294 28 22L28 18L28 17C28 16.287059 26.473247 15.075973 24.873047 14.433594L22.328125 5.9472656 A 1.0001 1.0001 0 0 0 22 4L21.150391 4 A 1.0001 1.0001 0 0 0 20.990234 3.9863281 A 1.0001 1.0001 0 0 0 20.839844 4L6.1542969 4 A 1.0001 1.0001 0 0 0 5.984375 3.9863281 z M 7 6L20.257812 6L22.785156 14.429688L21.919922 16.160156L18.724609 12.353516L19.351562 11.841797 A 1.0001 1.0001 0 0 0 18.705078 10.056641 A 1.0001 1.0001 0 0 0 18.089844 10.291016L15.369141 12.503906 A 1.0003647 1.0003647 0 1 0 16.630859 14.056641L17.173828 13.615234L20.855469 18L18 18L16 16C16 16 12.797392 15.214037 9.9257812 14.625L9.3203125 11.607422C9.1333125 10.672422 8.312375 10 7.359375 10L7 10L7 6 z M 6 20C7.1164141 20 8 20.883586 8 22C8 23.116414 7.1164141 24 6 24C4.8835859 24 4 23.116414 4 22C4 20.883586 4.8835859 20 6 20 z M 24 20C25.116414 20 26 20.883586 26 22C26 23.116414 25.116414 24 24 24C22.883586 24 22 23.116414 22 22C22 20.883586 22.883586 20 24 20 z" fill="#FFFFFF" />
</svg>