<?xml version="1.0" encoding="utf-8"?>
<svg xmlns="http://www.w3.org/2000/svg" viewBox="0 0 30 30" width="32" height="32">
  <path d="M11 3L9.5429688 10L14 10L14 3L11 3 z M 16 3L16 10L20.457031 10L19 3L16 3 z M 5.984375 11.986328 A 1.0001 1.0001 0 0 0 5.8398438 12L3 12 A 1.0001 1.0001 0 1 0 3 14L5 14L5 15 A 1.0001 1.0001 0 1 0 7 15L7 14L23 14L23 15 A 1.0001 1.0001 0 1 0 25 15L25 14L27 14 A 1.0001 1.0001 0 1 0 27 12L24.154297 12 A 1.0001 1.0001 0 0 0 23.984375 11.986328 A 1.0001 1.0001 0 0 0 23.839844 12L6.1542969 12 A 1.0001 1.0001 0 0 0 5.984375 11.986328 z M 8.2929688 16L6 27L14 27L14 16L8.2929688 16 z M 16 16L16 27L24 27L21.707031 16L16 16 z" fill="#FFFFFF" />
</svg>