<?xml version="1.0" encoding="utf-8"?>
<svg xmlns="http://www.w3.org/2000/svg" viewBox="0 0 30 30" width="32" height="32">
  <path d="M7.9980469 3C7.9065469 3 7.81625 3.05175 7.78125 3.15625L7.2558594 4.7148438L5.6113281 4.7324219C5.3913281 4.7354219 5.2995625 5.0174375 5.4765625 5.1484375L6.7949219 6.1308594L6.3046875 7.6992188C6.2396875 7.9102187 6.4782031 8.0830781 6.6582031 7.9550781L8 7.0058594L9.3417969 7.9550781C9.5217969 8.0830781 9.7613125 7.9092187 9.6953125 7.6992188L9.2050781 6.1308594L10.523438 5.1484375C10.700437 5.0174375 10.608719 4.7354219 10.386719 4.7324219L8.7421875 4.7148438L8.2167969 3.15625C8.1817969 3.05175 8.0895469 3 7.9980469 3 z M 15 3C14.9085 3 14.81625 3.05175 14.78125 3.15625L14.255859 4.7148438L12.611328 4.7324219C12.391328 4.7354219 12.299563 5.0174375 12.476562 5.1484375L13.796875 6.1308594L13.306641 7.6992188C13.240641 7.9092187 13.478203 8.0830781 13.658203 7.9550781L15 7.0058594L16.341797 7.9550781C16.521797 8.0830781 16.761312 7.9092187 16.695312 7.6992188L16.205078 6.1308594L17.523438 5.1484375C17.700437 5.0174375 17.609672 4.7354219 17.388672 4.7324219L15.744141 4.7148438L15.21875 3.15625C15.18375 3.05175 15.0915 3 15 3 z M 22 3C21.9085 3 21.81625 3.05175 21.78125 3.15625L21.255859 4.7148438L19.611328 4.7324219C19.391328 4.7354219 19.299563 5.0174375 19.476562 5.1484375L20.796875 6.1308594L20.306641 7.6992188C20.240641 7.9092187 20.478203 8.0830781 20.658203 7.9550781L22 7.0058594L23.341797 7.9550781C23.521797 8.0830781 23.761312 7.9092187 23.695312 7.6992188L23.205078 6.1308594L24.523438 5.1484375C24.700438 5.0174375 24.609672 4.7354219 24.388672 4.7324219L22.744141 4.7148438L22.21875 3.15625C22.18375 3.05175 22.0915 3 22 3 z M 6 10 A 1.0001 1.0001 0 1 0 6 12L6 26L12 26L12 21L18 21L18 26L24 26L24 12 A 1.0001 1.0001 0 1 0 24 10L6 10 z M 8 13L10 13L10 15L8 15L8 13 z M 12 13L14 13L14 15L12 15L12 13 z M 16 13L18 13L18 15L16 15L16 13 z M 20 13L22 13L22 15L20 15L20 13 z M 8 17L10 17L10 19L8 19L8 17 z M 12 17L14 17L14 19L12 19L12 17 z M 16 17L18 17L18 19L16 19L16 17 z M 20 17L22 17L22 19L20 19L20 17 z M 8 21L10 21L10 23L8 23L8 21 z M 20 21L22 21L22 23L20 23L20 21 z" fill="#FFFFFF" />
</svg>