<?xml version="1.0" encoding="utf-8"?>
<svg xmlns="http://www.w3.org/2000/svg" viewBox="0 0 30 30" width="32" height="32">
  <path d="M15 2 A 3 3 0 0 0 12 5 A 3 3 0 0 0 15 8 A 3 3 0 0 0 18 5 A 3 3 0 0 0 15 2 z M 4.9550781 6.9941406 A 1.0001 1.0001 0 0 0 4.5625 8.8984375L12 12.527344L12 16L6.375 23.210938L6.2929688 23.292969 A 1.0001 1.0001 0 1 0 7.7070312 24.707031L7.8359375 24.576172L7.859375 24.554688L15 18L22.164062 24.576172L22.292969 24.707031 A 1.0001 1.0001 0 1 0 23.707031 23.292969L23.625 23.210938L18 16L18 12.527344L25.4375 8.8984375 A 1.0001 1.0001 0 0 0 25.013672 6.9941406 A 1.0001 1.0001 0 0 0 24.5625 7.1015625L24.515625 7.125L17 10L15 10L13 10L5.484375 7.125L5.4375 7.1015625 A 1.0001 1.0001 0 0 0 4.9550781 6.9941406 z M 15 25C10.359284 25 6.5214844 27.123047 6.5214844 27.123047 A 1.0001 1.0001 0 1 0 7.4785156 28.876953C7.4785156 28.876953 10.974716 27 15 27C19.025284 27 22.521484 28.876953 22.521484 28.876953 A 1.0001 1.0001 0 1 0 23.478516 27.123047C23.478516 27.123047 19.640716 25 15 25 z" fill="#FFFFFF" />
</svg>