<?xml version="1.0" encoding="utf-8"?>
<svg xmlns="http://www.w3.org/2000/svg" viewBox="0 0 30 30" width="32" height="32">
  <path d="M18.984375 -0.013671875 A 1.0001 1.0001 0 0 0 18 1C18 1.6225 17.698393 2.0326752 17.113281 2.40625C16.52817 2.7798248 15.675377 3 15 3 A 1.0001 1.0001 0 1 0 15 5C16.059623 5 17.208315 4.7201752 18.189453 4.09375C19.170592 3.4673248 20 2.3775 20 1 A 1.0001 1.0001 0 0 0 18.984375 -0.013671875 z M 14 0C12.333333 0 11.217391 0.43021875 10.525391 0.94921875C10.267136 1.1429096 10.124285 1.3333226 9.9785156 1.5175781C9.6589777 1.4868784 9.5156752 1.4212156 8.9609375 1.5136719C8.015436 1.6712555 6.7694471 2.2247777 6.1054688 3.5527344 A 1.0001163 1.0001163 0 1 0 7.8945312 4.4472656C8.2305529 3.7752223 8.734564 3.5787445 9.2890625 3.4863281C9.843561 3.3939117 10.304687 3.4804688 10.304688 3.4804688 A 1.0001 1.0001 0 0 0 11.449219 2.8164062C11.449219 2.8164062 11.420191 2.8755955 11.457031 2.8203125C11.493891 2.7650265 11.570609 2.6662812 11.724609 2.5507812C12.032621 2.3197776 12.666667 2 14 2 A 1.0001 1.0001 0 1 0 14 0 z M 22 6L17 10L17 13L9 13L8.5 7L5.5 7L5 13L3 13L3 25 A 1.0001 1.0001 0 1 0 3 27L27 27 A 1.0001 1.0001 0 1 0 27 25L27 10L22 6 z M 19 11L21 11L21 13L19 13L19 11 z M 23 11L25 11L25 13L23 13L23 11 z M 5 15L7 15L7 17L5 17L5 15 z M 9 15L11 15L11 17L9 17L9 15 z M 19 15L21 15L21 17L19 17L19 15 z M 23 15L25 15L25 17L23 17L23 15 z M 5 19L7 19L7 21L5 21L5 19 z M 9 19L11 19L11 21L9 21L9 19 z M 19 19L21 19L21 21L19 21L19 19 z M 23 19L25 19L25 21L23 21L23 19 z M 5 23L7 23L7 25L5 25L5 23 z M 9 23L11 23L11 25L9 25L9 23 z M 19 23L21 23L21 25L19 25L19 23 z M 23 23L25 23L25 25L23 25L23 23 z" fill="#FFFFFF" />
</svg>