<?xml version="1.0" encoding="utf-8"?>
<svg xmlns="http://www.w3.org/2000/svg" viewBox="0 0 30 30" width="32" height="32">
  <path d="M9.6289062 4C7.9309063 4 6.4135156 5.0767344 5.8535156 6.6777344L3.7949219 12.558594C2.6959219 13.281594 2 14.530297 2 15.904297L2 23C2 24.105 2.895 25 4 25C5.105 25 6 24.105 6 23L6 21.738281C6 21.738281 11.281 22 15 22C18.719 22 24 21.738281 24 21.738281L24 23C24 24.105 24.895 25 26 25C27.105 25 28 24.105 28 23L28 15.904297C28 14.530297 27.302078 13.280594 26.205078 12.558594L24.148438 6.6796875C23.587438 5.0776875 22.069094 4 20.371094 4L9.6289062 4 z M 9.6289062 6L20.371094 6C21.221094 6 21.978766 6.5378437 22.259766 7.3398438L23.404297 10.613281C23.584297 11.128281 23.156188 11.647547 22.617188 11.560547C20.656187 11.243547 18.135 11 15 11C11.865 11 9.3438125 11.243547 7.3828125 11.560547C6.8438125 11.647547 6.4157031 11.128281 6.5957031 10.613281L7.7402344 7.3398438C8.0212344 6.5378438 8.7789062 6 9.6289062 6 z M 11.5 7 A 1.5 1.5 0 0 0 10 8.5 A 1.5 1.5 0 0 0 11.5 10 A 1.5 1.5 0 0 0 13 8.5 A 1.5 1.5 0 0 0 11.5 7 z M 18.5 7 A 1.5 1.5 0 0 0 17 8.5 A 1.5 1.5 0 0 0 18.5 10 A 1.5 1.5 0 0 0 20 8.5 A 1.5 1.5 0 0 0 18.5 7 z M 6.5 15C7.328 15 8 15.672 8 16.5C8 17.328 7.328 18 6.5 18C5.672 18 5 17.328 5 16.5C5 15.672 5.672 15 6.5 15 z M 12 15L18 15C18.552 15 19 15.448 19 16C19 16.552 18.552 17 18 17L12 17C11.448 17 11 16.552 11 16C11 15.448 11.448 15 12 15 z M 23.5 15C24.328 15 25 15.672 25 16.5C25 17.328 24.328 18 23.5 18C22.672 18 22 17.328 22 16.5C22 15.672 22.672 15 23.5 15 z" fill="#FFFFFF" />
</svg>