<?xml version="1.0" encoding="utf-8"?>
<svg xmlns="http://www.w3.org/2000/svg" viewBox="0 0 30 30" width="32" height="32">
  <path d="M14 6 A 1.0001 1.0001 0 1 0 14 8L16.464844 8L17.640625 9.7636719C16.683694 10.329181 16 11 16 11L11 11C11 11 6.981 10 2.5 10 A 1.5 1.5 0 0 0 1 11.5 A 1.5 1.5 0 0 0 2.5 13C4.9793033 13 7.1667403 13.813219 8.7089844 14.59375L7.3398438 16.40625C6.7760519 16.150481 6.1561909 16 5.5 16C3.0265633 16 1 18.026563 1 20.5C1 22.973437 3.0265633 25 5.5 25C7.4453687 25 9.0967519 23.738664 9.7207031 22L11 22L18 22L20.279297 22C20.903248 23.738664 22.554631 25 24.5 25C26.973437 25 29 22.973437 29 20.5C29 18.026563 26.973437 16 24.5 16C23.862725 16 23.25796 16.138821 22.707031 16.380859L20.753906 13.736328L21 13C23.921409 13 26.496729 13.88356 26.632812 13.929688 A 1 1 0 0 0 26.636719 13.931641C26.639795 13.932682 26.681617 13.945336 26.681641 13.945312 A 1 1 0 0 0 27 14 A 1 1 0 0 0 28 13 A 1 1 0 0 0 27.5625 12.173828 A 1 1 0 0 0 27.541016 12.158203C27.482144 12.106022 23.966553 9 20 9C19.8554 9 19.712203 9.0294308 19.568359 9.0488281L17.832031 6.4453125 A 1.0001 1.0001 0 0 0 17 6L14 6 z M 10.449219 15.609375C10.749969 15.81582 11 16 11 16L11 20L9.9492188 20C9.8471854 19.100096 9.4842205 18.28428 8.9277344 17.623047L10.449219 15.609375 z M 19.982422 16.054688L21.107422 17.582031C20.531385 18.250243 20.154202 19.083905 20.046875 20L18.666016 20L19.982422 16.054688 z M 5.5 18C6.8925565 18 8 19.107443 8 20.5C8 21.892557 6.8925565 23 5.5 23C4.1074435 23 3 21.892557 3 20.5C3 19.107443 4.1074435 18 5.5 18 z M 24.5 18C25.892557 18 27 19.107443 27 20.5C27 21.892557 25.892557 23 24.5 23C23.107443 23 22 21.892557 22 20.5C22 19.704318 22.369743 19.010803 22.939453 18.554688 A 1.0001 1.0001 0 0 0 23.130859 18.40625C23.523347 18.150841 23.991372 18 24.5 18 z" fill="#FFFFFF" />
</svg>