<?xml version="1.0" encoding="utf-8"?>
<svg xmlns="http://www.w3.org/2000/svg" viewBox="0 0 30 30" width="32" height="32">
  <path d="M3 5C1.3550302 5 0 6.3550302 0 8L0 19L30 19L30 8C30 6.3550302 28.64497 5 27 5L3 5 z M 3 7L6 7C6.552 7 7 7.448 7 8L7 13C7 13.552 6.552 14 6 14L3 14C2.448 14 2 13.552 2 13L2 12L2 8C2 7.4349698 2.4349698 7 3 7 z M 10 7L13 7C13.552 7 14 7.448 14 8L14 13C14 13.552 13.552 14 13 14L10 14C9.448 14 9 13.552 9 13L9 8C9 7.448 9.448 7 10 7 z M 17 7L20 7C20.552 7 21 7.448 21 8L21 13C21 13.552 20.552 14 20 14L17 14C16.448 14 16 13.552 16 13L16 8C16 7.448 16.448 7 17 7 z M 24 7L27 7C27.56503 7 28 7.4349698 28 8L28 13C28 13.552 27.552 14 27 14L24 14C23.448 14 23 13.552 23 13L23 8C23 7.448 23.448 7 24 7 z M 1 21 A 1.0001 1.0001 0 1 0 1 23L2.1875 23C2.0739423 23.314894 2 23.648149 2 24C2 25.64501 3.3549904 27 5 27C5.7686023 27 6.4666507 26.69587 7 26.212891C7.5333493 26.69587 8.2313977 27 9 27C10.64501 27 12 25.64501 12 24C12 23.648149 11.926058 23.314894 11.8125 23L18.1875 23C18.073942 23.314894 18 23.648149 18 24C18 25.64501 19.35499 27 21 27C21.768603 27 22.466651 26.69587 23 26.212891C23.533349 26.69587 24.231397 27 25 27C26.64501 27 28 25.64501 28 24C28 23.648149 27.926058 23.314894 27.8125 23L29 23 A 1.0001 1.0001 0 1 0 29 21L25 21L21 21L9 21L5 21L1 21 z M 5 23C5.5641294 23 6 23.435871 6 24C6 24.564129 5.5641294 25 5 25C4.4358706 25 4 24.564129 4 24C4 23.435871 4.4358706 23 5 23 z M 9 23C9.5641294 23 10 23.435871 10 24C10 24.564129 9.5641294 25 9 25C8.4358706 25 8 24.564129 8 24C8 23.435871 8.4358706 23 9 23 z M 21 23C21.564129 23 22 23.435871 22 24C22 24.564129 21.564129 25 21 25C20.435871 25 20 24.564129 20 24C20 23.435871 20.435871 23 21 23 z M 25 23C25.564129 23 26 23.435871 26 24C26 24.564129 25.564129 25 25 25C24.435871 25 24 24.564129 24 24C24 23.435871 24.435871 23 25 23 z" fill="#FFFFFF" />
</svg>