<?xml version="1.0" encoding="utf-8"?>
<svg xmlns="http://www.w3.org/2000/svg" viewBox="0 0 30 30" width="32" height="32">
  <path d="M12.5 4C7.8175204 4 4 7.8175204 4 12.5C4 12.605451 4.0117865 12.70796 4.015625 12.8125 A 1.0001 1.0001 0 0 0 4 13L4 25 A 1.0001 1.0001 0 1 0 6 25L6 17.962891C7.5611982 19.817104 9.8953754 21 12.5 21C13.011671 21 13.512456 20.95026 14 20.863281L14 25 A 1.0001 1.0001 0 1 0 16 25L16 20.427734 A 1.0001 1.0001 0 0 0 15.994141 20.314453C17.024218 19.968321 18.182361 19.518125 19.423828 19.001953C20.985778 18.352533 22.556967 17.645521 24 16.984375L24 25 A 1.0001 1.0001 0 1 0 26 25L26 15.460938 A 1.0004595 1.0004595 0 0 0 25.998047 15.394531 A 1.0001 1.0001 0 0 0 25.998047 15.361328 A 1.0004595 1.0004595 0 0 0 25.996094 15.353516 A 1.0001 1.0001 0 0 0 25.986328 15.261719 A 1.0001 1.0001 0 0 0 24.984375 14.414062 A 1.0001 1.0001 0 0 0 24.457031 14.576172C22.776033 15.359595 20.64869 16.32589 18.65625 17.154297C16.621007 18.000501 14.688212 18.699829 13.738281 18.882812C13.337875 18.959947 12.923792 19 12.5 19C8.8984796 19 6 16.10152 6 12.5C6 8.8984796 8.8984796 6 12.5 6C13.850381 6 15.095224 6.4081133 16.132812 7.109375 A 1.0001 1.0001 0 1 0 17.253906 5.453125C15.897496 4.5363867 14.255619 4 12.5 4 z M 24.900391 7 A 1.1 1.1 0 0 0 23.800781 8.0996094 A 1.1 1.1 0 0 0 24.322266 9.0332031L23.15625 9.5292969 A 1.1 1.1 0 0 0 23.25 9.0898438 A 1.1 1.1 0 0 0 22.150391 7.9902344 A 1.1 1.1 0 0 0 21.050781 9.0898438 A 1.1 1.1 0 0 0 21.767578 10.121094L20.830078 10.519531L21.820312 12.939453C21.930312 13.269453 22.369219 13.379531 22.699219 13.269531L26 11.839844L26 8.3203125L25.974609 8.3320312 A 1.1 1.1 0 0 0 26 8.0996094 A 1.1 1.1 0 0 0 24.900391 7 z M 17.970703 9.75 A 1.1 1.1 0 0 0 16.869141 10.849609 A 1.1 1.1 0 0 0 17.65625 11.904297L16.425781 12.435547 A 1.1 1.1 0 0 0 16.539062 11.949219 A 1.1 1.1 0 0 0 15.439453 10.849609 A 1.1 1.1 0 0 0 14.339844 11.949219 A 1.1 1.1 0 0 0 15.117188 13L15 13.050781C13.9 13.490781 13.460391 14.810781 13.900391 15.800781L14.009766 16.130859C14.229766 16.570859 14.669375 16.790313 15.109375 16.570312L20.390625 14.259766C20.720625 14.149766 20.830703 13.710234 20.720703 13.490234L19.839844 10.960938L18.953125 11.34375 A 1.1 1.1 0 0 0 19.070312 10.849609 A 1.1 1.1 0 0 0 17.970703 9.75 z" fill="#FFFFFF" />
</svg>