<?xml version="1.0" encoding="utf-8"?>
<svg xmlns="http://www.w3.org/2000/svg" viewBox="0 0 30 30" width="32" height="32">
  <path d="M24.298828 5.2675781 A 1.5 1.5 0 0 0 22.798828 6.7675781 A 1.5 1.5 0 0 0 24.298828 8.2675781 A 1.5 1.5 0 0 0 25.798828 6.7675781 A 1.5 1.5 0 0 0 24.298828 5.2675781 z M 3.6171875 8.9140625 A 1.5 1.5 0 0 0 2.1171875 10.414062 A 1.5 1.5 0 0 0 3.6171875 11.914062 A 1.5 1.5 0 0 0 5.1171875 10.414062 A 1.5 1.5 0 0 0 3.6171875 8.9140625 z M 25.628906 9.1132812C25.496051 9.1096543 25.360609 9.1205313 25.224609 9.1445312C24.137609 9.3365312 23.411516 10.372938 23.603516 11.460938L23.949219 13.429688L16.546875 14.734375 A 2 2 0 0 0 15 14 A 2 2 0 0 0 13.115234 15.339844L6.2226562 16.554688L5.8769531 14.585938C5.6849531 13.497937 4.6465938 12.772844 3.5585938 12.964844C2.4705937 13.156844 1.7455 14.19325 1.9375 15.28125L2.2832031 17.25 A 1.0003975 1.0003975 0 0 0 2.6308594 19.220703L13.488281 17.306641 A 2 2 0 0 0 14 17.730469L14 21.183594C12.837162 21.596684 12 22.695375 12 24L14.832031 24 A 1.0001 1.0001 0 0 0 15.158203 24L18 24C18 22.695375 17.162838 21.596684 16 21.183594L16 17.728516 A 2 2 0 0 0 16.867188 16.710938L28.236328 14.705078 A 1.0001 1.0001 0 0 0 28.058594 12.716797 A 1.0001 1.0001 0 0 0 27.888672 12.734375L27.542969 10.765625C27.374969 9.8145 26.558895 9.1386699 25.628906 9.1132812 z M 25.628906 17.195312L23.658203 17.542969L24.005859 19.511719C24.101859 20.055719 24.621062 20.418266 25.164062 20.322266C25.708063 20.226266 26.070609 19.707062 25.974609 19.164062L25.628906 17.195312 z M 7.9023438 20.320312L5.9335938 20.667969L6.28125 22.638672C6.37625 23.182672 6.8954531 23.545219 7.4394531 23.449219C7.9834531 23.354219 8.346 22.835016 8.25 22.291016L7.9023438 20.320312 z" fill="#FFFFFF" />
</svg>