<?xml version="1.0" encoding="utf-8"?>
<svg xmlns="http://www.w3.org/2000/svg" viewBox="0 0 30 30" width="32" height="32">
  <path d="M10 5C8.895 5 8 5.895 8 7L8 8.9296875C8 9.5986875 8.333625 10.22275 8.890625 10.59375L11 12L18 12C19.105 12 20 11.105 20 10L27 10 A 1.0001 1.0001 0 1 0 27 8L19.966797 8C19.886903 7.3385415 19.500068 6.750034 18.894531 6.4472656L16.421875 5.2109375C16.144875 5.0719375 15.837344 5 15.527344 5L10 5 z M 7 14C5.3021944 14 3.8598854 15.062087 3.2792969 16.554688C2.5095477 17.100218 2 17.994168 2 19C2 19.693284 2.2537773 20.323702 2.6425781 20.824219 A 1.0001 1.0001 0 0 0 2.7519531 20.986328L4.9550781 23.59375 A 1.0001 1.0001 0 0 0 5.3125 23.861328L5.3164062 23.863281C6.0257567 24.530197 6.9426813 25 8 25L22 25C23.057319 25 23.97424 24.530244 24.683594 23.863281C24.684594 23.8623 24.6865 23.862358 24.6875 23.861328 A 1.0001 1.0001 0 0 0 25.044922 23.59375L27.248047 20.986328 A 1.0001 1.0001 0 0 0 27.365234 20.814453C27.749632 20.315464 28 19.688738 28 19C28 17.994168 27.490452 17.100218 26.720703 16.554688C26.140115 15.062087 24.697806 14 23 14L7 14 z M 5 18L25 18C25.56503 18 26 18.43497 26 19C26 19.252094 25.90882 19.469929 25.744141 19.65625 A 1.0001 1.0001 0 0 0 25.558594 19.962891L25.611328 19.824219L23.666016 22.126953L23.847656 22.046875 A 1.0001 1.0001 0 0 0 23.5 22.302734C23.125328 22.733266 22.603115 23 22 23L8 23C7.396885 23 6.8746719 22.733266 6.5 22.302734 A 1.0001 1.0001 0 0 0 6.1855469 22.0625L6.3339844 22.126953L4.3886719 19.824219L4.4414062 19.962891 A 1.0001 1.0001 0 0 0 4.2558594 19.65625C4.0911793 19.469929 4 19.252094 4 19C4 18.43497 4.4349698 18 5 18 z M 9 19 A 1 1 0 0 0 8 20 A 1 1 0 0 0 9 21 A 1 1 0 0 0 10 20 A 1 1 0 0 0 9 19 z M 13 19 A 1 1 0 0 0 12 20 A 1 1 0 0 0 13 21 A 1 1 0 0 0 14 20 A 1 1 0 0 0 13 19 z M 17 19 A 1 1 0 0 0 16 20 A 1 1 0 0 0 17 21 A 1 1 0 0 0 18 20 A 1 1 0 0 0 17 19 z M 21 19 A 1 1 0 0 0 20 20 A 1 1 0 0 0 21 21 A 1 1 0 0 0 22 20 A 1 1 0 0 0 21 19 z" fill="#FFFFFF" />
</svg>