<?xml version="1.0" encoding="utf-8"?>
<svg xmlns="http://www.w3.org/2000/svg" viewBox="0 0 30 30" width="32" height="32">
  <path d="M6 3C5.447 3 5 3.448 5 4C5 4.552 5.447 5 6 5L7 5L7 15L5 15L5 13C5 12.837 4.9518125 12.487563 4.8828125 12.351562C4.6128125 11.567563 3.876 11 3 11C1.895 11 1 11.895 1 13C1 14.105 1.895 15 3 15L3 17C1.895 17 1 17.895 1 19C1 20.105 1.895 21 3 21C4.105 21 5 20.105 5 19L5 17L7 17L7 24C7 26.206 8.794 28 11 28C13.206 28 15 26.206 15 24L19 24L24.646484 24C25.880484 24 26.972641 23.259281 27.431641 22.113281L28.484375 19.486328C28.866375 18.527328 28.865422 17.472672 28.482422 16.513672L27.179688 13.257812C26.875687 12.493813 26.145266 12 25.322266 12L25 12L24.646484 12C24.290484 12 24 11.709516 24 11.353516L24 10C24 8.346 22.654 7 21 7C19.346 7 18 8.346 18 10L18 11C18 11.551 17.552 12 17 12L16 12L16 6C16 4.346 14.654 3 13 3L10 3L8 3L6 3 z M 19 24 A 2 2 0 0 0 19 28 A 2 2 0 0 0 19 24 z M 9 5L10 5L13 5C13.552 5 14 5.449 14 6L14 12L9 12L9 5 z M 21 9C21.552 9 22 9.449 22 10L22 11.353516C22 11.577516 22.036844 11.792 22.089844 12L19.816406 12C19.928406 11.686 20 11.352 20 11L20 10C20 9.449 20.448 9 21 9 z M 11 22C12.103 22 13 22.897 13 24C13 25.103 12.103 26 11 26C9.897 26 9 25.103 9 24C9 22.897 9.897 22 11 22 z M 25 24 A 2 2 0 0 0 25 28 A 2 2 0 0 0 25 24 z" fill="#FFFFFF" />
</svg>