<?xml version="1.0" encoding="utf-8"?>
<svg xmlns="http://www.w3.org/2000/svg" viewBox="0 0 30 30" width="32" height="32">
  <path d="M15 3C13.992265 3 13.083741 3.3824211 12.384766 4L11 4C9.895 4 9 4.895 9 6L9 25C9 26.105 9.895 27 11 27L19 27C20.105 27 21 26.105 21 25L21 6C21 4.895 20.105 4 19 4L17.615234 4C16.916259 3.3824211 16.007735 3 15 3 z M 4 6L4.3671875 7.1035156C4.7441875 8.2365156 5.806 9 7 9L7 6L4 6 z M 15 6C16.105 6 17 6.895 17 8C17 9.105 16.105 10 15 10C13.895 10 13 9.105 13 8C13 6.895 13.895 6 15 6 z M 23 6L23 9C24.194 9 25.255812 8.2365156 25.632812 7.1035156L26 6L23 6 z M 15 13C16.105 13 17 13.895 17 15C17 16.105 16.105 17 15 17C13.895 17 13 16.105 13 15C13 13.895 13.895 13 15 13 z M 4 14L4.3671875 15.103516C4.7441875 16.236516 5.806 17 7 17L7 14L4 14 z M 23 14L23 17C24.194 17 25.255812 16.236516 25.632812 15.103516L26 14L23 14 z M 15 20C16.105 20 17 20.895 17 22C17 23.105 16.105 24 15 24C13.895 24 13 23.105 13 22C13 20.895 13.895 20 15 20 z M 4 22L4.3671875 23.103516C4.7441875 24.236516 5.806 25 7 25L7 22L4 22 z M 23 22L23 25C24.194 25 25.255812 24.236516 25.632812 23.103516L26 22L23 22 z" fill="#FFFFFF" />
</svg>