<?xml version="1.0" encoding="utf-8"?>
<svg xmlns="http://www.w3.org/2000/svg" viewBox="0 0 30 30" width="32" height="32">
  <path d="M17.013672 5C15.688672 5 14.512672 5.8843437 14.138672 7.1523438C14.806672 7.3123438 15.431656 7.5940469 15.972656 7.9980469L16.050781 7.7285156C16.172781 7.2975156 16.565672 7 17.013672 7L22.986328 7C23.433328 7 23.827219 7.2975156 23.949219 7.7285156L24.304688 8.9863281C24.421688 9.4003281 24.080297 9.7972813 23.654297 9.7382812C22.638297 9.5952812 21.429 9.5 20 9.5C19.019 9.5 18.148234 9.5470938 17.365234 9.6210938C17.540234 9.9420937 17.694875 10.279578 17.796875 10.642578L18.181641 12L20.986328 12L21 12C21.003 12 21.005766 12.001953 21.009766 12.001953C21.833766 12.005953 22.623312 12.214984 23.320312 12.583984C23.594313 12.230984 24.018 12 24.5 12C25.328 12 26 12.672 26 13.5C26 13.988 25.763344 14.416453 25.402344 14.689453C25.563344 14.989453 25.703828 15.303625 25.798828 15.640625L26.402344 17.779297C26.570344 17.909297 26.771 18 27 18C27.552 18 28 17.552 28 17L28 16.308594L28 15L28 12.306641C28 11.511641 27.525641 10.805188 26.806641 10.492188L25.873047 7.1855469C25.511047 5.8985469 24.323328 5 22.986328 5L17.013672 5 z M 7.0136719 9C5.6766719 9 4.4899531 9.8985469 4.1269531 11.185547L3.1933594 14.492188C2.4743594 14.805187 2 15.511641 2 16.306641L2 20.308594L2 21C2 21.552 2.448 22 3 22C3.552 22 4 21.552 4 21L4 20.566406C5.1337589 20.700254 6.6035292 20.853806 8.0429688 20.9375C8.1439688 19.8655 8.6506094 18.883797 9.4746094 18.216797L10.201172 15.642578C10.429172 14.832578 10.855063 14.117109 11.414062 13.537109C10.966062 13.515109 10.501 13.5 10 13.5C8.571 13.5 7.36075 13.595281 6.34375 13.738281C5.91775 13.798281 5.5783125 13.401328 5.6953125 12.986328L6.0507812 11.728516C6.1727813 11.297516 6.5656719 11 7.0136719 11L12.986328 11C13.433328 11 13.827219 11.297516 13.949219 11.728516L14.054688 12.103516C14.367688 12.041516 14.686672 12 15.013672 12L16.103516 12L15.873047 11.185547C15.511047 9.8985469 14.323328 9 12.986328 9L7.0136719 9 z M 15.013672 14C13.676672 14 12.489953 14.898547 12.126953 16.185547L11.191406 19.492188C10.473406 19.805188 10 20.511641 10 21.306641L10 25.308594L10 26C10 26.552 10.448 27 11 27C11.552 27 12 26.552 12 26L12 25.558594C13.658375 25.762481 15.887625 26 18 26C20.112375 26 22.341625 25.762481 24 25.558594L24 26C24 26.552 24.448 27 25 27C25.552 27 26 26.552 26 26L26 25.308594L26 21.306641C26 20.511641 25.525641 19.805188 24.806641 19.492188L23.873047 16.185547C23.511047 14.898547 22.323328 14 20.986328 14L15.013672 14 z M 5.5 16C6.328 16 7 16.672 7 17.5C7 18.328 6.328 19 5.5 19C4.672 19 4 18.328 4 17.5C4 16.672 4.672 16 5.5 16 z M 15.013672 16L20.986328 16C21.433328 16 21.827219 16.297516 21.949219 16.728516L22.304688 17.986328C22.421688 18.400328 22.080297 18.797281 21.654297 18.738281C20.638297 18.595281 19.429 18.5 18 18.5C16.571 18.5 15.36075 18.595281 14.34375 18.738281C13.91775 18.798281 13.578313 18.401328 13.695312 17.986328L14.050781 16.728516C14.172781 16.297516 14.565672 16 15.013672 16 z M 13.5 21C14.328 21 15 21.672 15 22.5C15 23.328 14.328 24 13.5 24C12.672 24 12 23.328 12 22.5C12 21.672 12.672 21 13.5 21 z M 22.5 21C23.328 21 24 21.672 24 22.5C24 23.328 23.328 24 22.5 24C21.672 24 21 23.328 21 22.5C21 21.672 21.672 21 22.5 21 z" fill="#FFFFFF" />
</svg>