<?xml version="1.0" encoding="utf-8"?>
<svg xmlns="http://www.w3.org/2000/svg" viewBox="0 0 30 30" width="32" height="32">
  <path d="M14.949219 2.0019531 A 1.0001 1.0001 0 0 0 14.1875 2.4179688L9.4785156 9L5.1542969 9 A 1.0001 1.0001 0 0 0 4.984375 8.9863281 A 1.0001 1.0001 0 0 0 4.8398438 9L3 9 A 1.0001 1.0001 0 1 0 3 11L4 11L4 12 A 1.0001 1.0001 0 1 0 6 12L6 11L8.9863281 11L9 19.763672L6.1054688 25.552734 A 1.0001 1.0001 0 0 0 7.2421875 26.970703L15 25.03125L22.757812 26.970703 A 1.0001 1.0001 0 0 0 23.894531 25.552734L21 19.763672L21.013672 11L24 11L24 12 A 1.0001 1.0001 0 1 0 26 12L26 11L27 11 A 1.0001 1.0001 0 1 0 27 9L25.154297 9 A 1.0001 1.0001 0 0 0 24.984375 8.9863281 A 1.0001 1.0001 0 0 0 24.839844 9L20.521484 9L15.8125 2.4179688 A 1.0001 1.0001 0 0 0 14.949219 2.0019531 z M 15 4.71875L18.0625 9L11.9375 9L15 4.71875 z M 12.414062 11L17.585938 11L15 13.585938L12.414062 11 z M 10.990234 12.404297L13.585938 15L10.996094 17.589844L10.990234 12.404297 z M 19.009766 12.404297L19.003906 17.589844L16.414062 15L19.009766 12.404297 z M 15 16.414062L18.501953 19.916016L15 22.71875L11.498047 19.916016L15 16.414062 z M 10.341797 21.554688L12.796875 23.519531L8.8671875 24.501953L10.341797 21.554688 z M 19.658203 21.554688L21.132812 24.501953L17.203125 23.519531L19.658203 21.554688 z" fill="#FFFFFF" />
</svg>