<?xml version="1.0" encoding="utf-8"?>
<svg xmlns="http://www.w3.org/2000/svg" viewBox="0 0 30 30" width="32" height="32">
  <path d="M12 4C7.38 4 4 6.25 4 9C4 11.806 6.0082969 13.200766 8.0292969 13.759766C8.4092969 13.684766 10.294156 12.952922 10.660156 12.669922C7.9931563 12.489922 6.7480469 11.150391 6.7480469 11.150391C6.7480469 11.150391 7.555375 12.056766 11.484375 12.134766C11.707375 11.983766 12.531562 11.355609 12.976562 10.599609C8.3475625 10.586609 6 10.383 6 9C6 7.79 7.49 6 12 6C16.625 6 17.219 14.844 4 16C4 18.86 6.09 21 9.5 21C17 21 21 16.5 21 11C21 5.61 16.84 4 12 4 z M 20.5 4C26.44 5.54 25.119219 8.8408594 22.699219 10.380859C22.806219 11.668859 22.589766 13.570469 22.259766 14.230469C23.359766 13.570469 26 11.479844 26 8.8398438C26 4.5498437 20.5 4 20.5 4 z M 16 6.375C17.125 6.594 19 8.875 19 11C19 13.775 17 17 14 17C14 17 13 19 10 19C7.69 19 6.5292969 17.529297 6.5292969 17.529297C15.280297 15.968297 18.875 10.969 16 6.375 z M 26.9375 19.001953C26.807937 19.009781 26.678187 19.042516 26.554688 19.103516C26.536688 19.113516 24.73 20 23 20C21.678 20 20.318281 19.484328 19.738281 19.236328C18.622281 20.374328 17.209422 21.321469 15.482422 21.980469C16.946422 21.884469 18.316047 21.386656 18.998047 21.097656C19.755047 21.417656 21.36 22 23 22C25.21 22 27.357266 20.938531 27.447266 20.894531C27.940266 20.647531 28.140531 20.048688 27.894531 19.554688C27.710031 19.183438 27.326188 18.978469 26.9375 19.001953 z M 2.9648438 22.994141 A 1.0001 1.0001 0 0 0 2.5527344 24.894531C2.5527344 24.894531 4.6666667 26 7 26C8.9465696 26 10.458804 25.333203 11 25.078125C11.541196 25.333203 13.05343 26 15 26C16.94657 26 18.458804 25.333203 19 25.078125C19.541196 25.333203 21.05343 26 23 26C25.333333 26 27.447266 24.894531 27.447266 24.894531 A 1.0001163 1.0001163 0 1 0 26.552734 23.105469C26.552734 23.105469 24.666667 24 23 24C21.333333 24 19.447266 23.105469 19.447266 23.105469 A 1.0001 1.0001 0 0 0 18.552734 23.105469C18.552734 23.105469 16.666667 24 15 24C13.333333 24 11.447266 23.105469 11.447266 23.105469 A 1.0001 1.0001 0 0 0 10.552734 23.105469C10.552734 23.105469 8.6666667 24 7 24C5.3333333 24 3.4472656 23.105469 3.4472656 23.105469 A 1.0001 1.0001 0 0 0 2.9648438 22.994141 z" fill="#FFFFFF" />
</svg>