<?xml version="1.0" encoding="utf-8"?>
<svg xmlns="http://www.w3.org/2000/svg" x="0" y="0" viewBox="0 0 48 48" width="240" height="240">
  <linearGradient id="SVGID_1_" x1="10.183" x2="36.857" y1="45.121" y2="8.208" gradientTransform="matrix(1 0 0 -1 0 50)" gradientUnits="userSpaceOnUse">
    <stop offset="0" stop-color="#899198" />
    <stop offset="1" stop-color="#787e85" />
  </linearGradient>
  <path fill="url(#SVGID_1_)" d="M37,4H11C9.9,4,9,4.9,9,6v36c0,1.1,0.9,2,2,2h26c1.1,0,2-0.9,2-2V6C39,4.9,38.1,4,37,4z" />
  <linearGradient id="SVGID_00000106839783251033417210000006810349991228238721_" x1="15.332" x2="34.537" y1="42.515" y2="33.619" gradientTransform="matrix(1 0 0 -1 0 50)" gradientUnits="userSpaceOnUse">
    <stop offset="0" stop-color="#4fe5ff" />
    <stop offset="1" stop-color="#2eb7ed" />
  </linearGradient>
  <path fill="url(#SVGID_00000106839783251033417210000006810349991228238721_)" d="M34,15H14c-0.6,0-1-0.4-1-1V9c0-0.6,0.4-1,1-1h20c0.6,0,1,0.4,1,1v5C35,14.6,34.6,15,34,15z" />
  <path fill="#cad2d9" d="M26,24h-4c-0.6,0-1-0.4-1-1v-4c0-0.6,0.4-1,1-1h4c0.6,0,1,0.4,1,1v4C27,23.6,26.6,24,26,24z" />
  <path fill="#cad2d9" d="M18,24h-4c-0.6,0-1-0.4-1-1v-4c0-0.6,0.4-1,1-1h4c0.6,0,1,0.4,1,1v4C19,23.6,18.6,24,18,24z" />
  <path fill="#cad2d9" d="M26,32h-4c-0.6,0-1-0.4-1-1v-4c0-0.6,0.4-1,1-1h4c0.6,0,1,0.4,1,1v4C27,31.6,26.6,32,26,32z" />
  <path fill="#cad2d9" d="M18,32h-4c-0.6,0-1-0.4-1-1v-4c0-0.6,0.4-1,1-1h4c0.6,0,1,0.4,1,1v4C19,31.6,18.6,32,18,32z" />
  <path fill="#cad2d9" d="M26,40h-4c-0.6,0-1-0.4-1-1v-4c0-0.6,0.4-1,1-1h4c0.6,0,1,0.4,1,1v4C27,39.6,26.6,40,26,40z" />
  <path fill="#cad2d9" d="M18,40h-4c-0.6,0-1-0.4-1-1v-4c0-0.6,0.4-1,1-1h4c0.6,0,1,0.4,1,1v4C19,39.6,18.6,40,18,40z" />
  <path fill="#cad2d9" d="M34,24h-4c-0.6,0-1-0.4-1-1v-4c0-0.6,0.4-1,1-1h4c0.6,0,1,0.4,1,1v4C35,23.6,34.6,24,34,24z" />
  <linearGradient id="SVGID_00000104685717772177978110000012042862953865783177_" x1="32" x2="32" y1="23.449" y2="10.357" gradientTransform="matrix(1 0 0 -1 0 50)" gradientUnits="userSpaceOnUse">
    <stop offset="0" stop-color="#11498a" />
    <stop offset="1" stop-color="#0f417a" />
  </linearGradient>
  <path fill="url(#SVGID_00000104685717772177978110000012042862953865783177_)" d="M34,40h-4c-0.6,0-1-0.4-1-1V27c0-0.6,0.4-1,1-1h4c0.6,0,1,0.4,1,1v12C35,39.6,34.6,40,34,40z" />
  <linearGradient id="SVGID_00000135653962873606661470000015624617213164156069_" x1="30.929" x2="45.071" y1="19.071" y2="4.929" gradientTransform="matrix(1 0 0 -1 0 50)" gradientUnits="userSpaceOnUse">
    <stop offset="0" stop-color="#21ad64" />
    <stop offset="1" stop-color="#088242" />
  </linearGradient>
  <path fill="url(#SVGID_00000135653962873606661470000015624617213164156069_)" d="M48,38c0,5.5-4.5,10-10,10s-10-4.5-10-10s4.5-10,10-10S48,32.5,48,38z" />
  <path fill="#fff" d="M41.5,40.2c0-3.4-5-2.8-5-4.8c0-1.1,1.2-1.1,1.6-1.1c0.9,0,1.8,0.2,2.4,0.5c0.2,0.1,0.4,0,0.4-0.3v-1c0-0.3-0.1-0.5-0.3-0.6c-0.4-0.2-1.1-0.3-2-0.3v-1.1c0-0.1-0.1-0.2-0.2-0.2h-0.5c-0.1,0-0.2,0.1-0.2,0.2v1.1c-1.5,0.1-3,1-3,2.9c0,3.5,5,2.8,5,4.7c0,0.6-0.4,1.1-1.6,1.1c-1.2,0-2.3-0.4-2.9-0.7c-0.2-0.1-0.4,0-0.4,0.3v1.1c0,0.2,0.1,0.4,0.3,0.5c0.7,0.3,1.7,0.5,2.5,0.6v1.2c0,0.1,0.1,0.2,0.2,0.2h0.5c0.1,0,0.2-0.1,0.2-0.2v-1.2C40.7,43,41.5,41.5,41.5,40.2z" />
</svg>