<?xml version="1.0" encoding="utf-8"?>
<svg xmlns="http://www.w3.org/2000/svg" baseProfile="basic" viewBox="0 0 48 48" width="240" height="240">
  <path fill="#61e3a7" d="M36,6.607V11H26c-0.552,0-1,0.448-1,1v4c0,0.552,0.448,1,1,1h10v4.393c0,0.54,0.653,0.81,1.034,0.428l6.964-6.964c0.473-0.473,0.473-1.241,0-1.714l-6.964-6.964C36.653,5.797,36,6.067,36,6.607z" />
  <path d="M28,14c0,1.04-0.14,2.05-0.42,3H26c-0.55,0-1-0.45-1-1v-4c0-0.55,0.45-1,1-1h1.58C27.86,11.95,28,12.96,28,14z" opacity=".05" />
  <path d="M27.5,14c0,1.04-0.15,2.05-0.44,3H26c-0.55,0-1-0.45-1-1v-4c0-0.55,0.45-1,1-1h1.06C27.35,11.95,27.5,12.96,27.5,14z" opacity=".07" />
  <linearGradient id="vwy5YWSKd8kFsC1bMj6Fya" x1="10.136" x2="24.056" y1="916.864" y2="902.944" gradientTransform="matrix(1 0 0 -1 0 924)" gradientUnits="userSpaceOnUse">
    <stop offset="0" stop-color="#fede00" />
    <stop offset="1" stop-color="#ffd000" />
  </linearGradient>
  <circle cx="17" cy="14" r="10" fill="url(#vwy5YWSKd8kFsC1bMj6Fya)" />
  <circle cx="17" cy="14" r="8" fill="#f5be00" />
  <path fill="#fee119" d="M14.544,18.054v-1.64c0.595,0.365,1.229,0.547,1.901,0.547c0.506,0,0.902-0.12,1.187-0.361s0.428-0.568,0.428-0.981c0-0.863-0.609-1.294-1.828-1.294c-0.397,0-0.877,0.036-1.439,0.109V9.57h4.822v1.567h-3.182v1.743c0.255-0.024,0.496-0.036,0.723-0.036c0.895,0,1.595,0.235,2.101,0.704c0.506,0.47,0.759,1.102,0.759,1.895c0,0.878-0.302,1.596-0.905,2.152c-0.603,0.557-1.421,0.835-2.454,0.835C15.819,18.43,15.115,18.305,14.544,18.054z" />
  <path fill="#35c1f1" d="M12,41.393V37h10c0.552,0,1-0.448,1-1v-4c0-0.552-0.448-1-1-1H12v-4.393c0-0.54-0.653-0.81-1.034-0.428l-6.964,6.964c-0.473,0.473-0.473,1.241,0,1.714l6.964,6.964C11.347,42.203,12,41.933,12,41.393z" />
  <path d="M20,34c0-1.04,0.14-2.05,0.42-3H22c0.55,0,1,0.45,1,1v4c0,0.55-0.45,1-1,1h-1.58C20.14,36.05,20,35.04,20,34z" opacity=".05" />
  <path d="M20.5,34c0-1.04,0.15-2.05,0.44-3H22c0.55,0,1,0.45,1,1v4c0,0.55-0.45,1-1,1h-1.06C20.65,36.05,20.5,35.04,20.5,34z" opacity=".07" />
  <linearGradient id="vwy5YWSKd8kFsC1bMj6Fyb" x1="24.136" x2="38.056" y1="896.864" y2="882.944" gradientTransform="matrix(1 0 0 -1 0 924)" gradientUnits="userSpaceOnUse">
    <stop offset="0" stop-color="#fede00" />
    <stop offset="1" stop-color="#ffd000" />
  </linearGradient>
  <circle cx="31" cy="34" r="10" fill="url(#vwy5YWSKd8kFsC1bMj6Fyb)" />
  <circle cx="31" cy="34" r="8" fill="#f5be00" />
  <path fill="#fee119" d="M28.544,38.054v-1.64c0.595,0.365,1.229,0.547,1.901,0.547c0.506,0,0.902-0.12,1.187-0.361s0.428-0.568,0.428-0.981c0-0.863-0.609-1.294-1.828-1.294c-0.397,0-0.877,0.036-1.439,0.109V29.57h4.822v1.567h-3.182v1.743c0.255-0.024,0.496-0.036,0.723-0.036c0.895,0,1.595,0.235,2.101,0.704c0.506,0.47,0.759,1.102,0.759,1.895c0,0.878-0.302,1.596-0.905,2.152c-0.603,0.557-1.421,0.835-2.454,0.835C29.819,38.43,29.115,38.305,28.544,38.054z" />
</svg>