<?xml version="1.0" encoding="utf-8"?>
<svg xmlns="http://www.w3.org/2000/svg" viewBox="0 0 30 30" width="32" height="32">
  <path d="M10.126953 4.0175781C9.5223125 3.9387812 8.900125 4.1389375 8.453125 4.5859375L8 5.0390625L11.710938 8.2480469L15.853516 6.6035156L10.71875 4.1894531C10.528 4.0997031 10.3285 4.0438437 10.126953 4.0175781 z M 25 5 A 2 2 0 0 0 24.09375 5.2167969L7 12L5.2148438 10.427734C4.7058437 9.9787344 3.9741875 9.8845 3.3671875 10.1875L3 10.371094L5.140625 14.732422 A 2 2 0 0 0 7 16 A 2 2 0 0 0 7.8476562 15.808594L14.566406 13.199219L14 21L14.642578 21C15.485578 21 16.238438 20.470734 16.523438 19.677734L19.558594 11.259766L25.724609 8.8632812 A 2 2 0 0 0 25.736328 8.859375L25.736328 8.8574219 A 2 2 0 0 0 27 7 A 2 2 0 0 0 25 5 z M 4 24 A 1.0001 1.0001 0 1 0 4 26L26 26 A 1.0001 1.0001 0 1 0 26 24L4 24 z" fill="#FFFFFF" />
</svg>