<?xml version="1.0" encoding="utf-8"?>
<svg xmlns="http://www.w3.org/2000/svg" viewBox="0 0 30 30" width="32" height="32">
  <path d="M16 1C15.448 1 15 1.448 15 2L15 3L20 3C20.552 3 21 2.552 21 2C21 1.448 20.552 1 20 1L16 1 z M 15 5 A 1 1 0 0 0 14.449219 5.1640625L4.5351562 11.113281L4.5351562 11.115234 A 1 1 0 0 0 4 12 A 1 1 0 0 0 4.0195312 12.193359C4.1209096 13.758561 5.409153 15 7 15C7.7720844 15 8.4683601 14.699769 9 14.220703C9.5316399 14.699769 10.227916 15 11 15C11.772084 15 12.46836 14.699769 13 14.220703C13.53164 14.699769 14.227916 15 15 15C15.772084 15 16.46836 14.699769 17 14.220703C17.53164 14.699769 18.227916 15 19 15C19.772084 15 20.46836 14.699769 21 14.220703C21.53164 14.699769 22.227916 15 23 15C24.588201 15 25.875276 13.76268 25.980469 12.201172C25.980513 12.200521 25.980425 12.199869 25.980469 12.199219 A 1 1 0 0 0 26 12 A 1 1 0 0 0 25.464844 11.115234L25.464844 11.113281L15.550781 5.1640625L15.550781 5.1660156 A 1 1 0 0 0 15 5 z M 6 17 A 1 1 0 0 0 5.0429688 17.712891L5.0410156 17.714844L3.0546875 24.671875L3.0566406 24.673828 A 1 1 0 0 0 3 25 A 1 1 0 0 0 4 26L11.179688 26C11.656687 26 12.066156 25.663313 12.160156 25.195312L12.839844 21.804688C12.933844 21.336687 13.343312 21 13.820312 21L15 21L16.179688 21C16.656688 21 17.066156 21.336687 17.160156 21.804688L17.839844 25.195312C17.933844 25.663313 18.343313 26 18.820312 26L26 26 A 1 1 0 0 0 27 25 A 1 1 0 0 0 26.943359 24.673828L26.945312 24.671875L24.958984 17.714844L24.957031 17.712891 A 1 1 0 0 0 24 17L15 17L6 17 z" fill="#FFFFFF" />
</svg>