<?xml version="1.0" encoding="utf-8"?>
<svg xmlns="http://www.w3.org/2000/svg" viewBox="0 0 30 30" width="32" height="32">
  <path d="M17 2C16.448 2 16 2.448 16 3L16 4.4550781L11.146484 3L10 3C8.9069372 3 8 3.9069372 8 5L8 15L10 15L10 5L10.853516 5L20 7.7441406L20 25L14 25L14 19C14 17.895 13.105 17 12 17L6 17L6 15C6 14.448 5.552 14 5 14C4.448 14 4 14.448 4 15L4 20L4 27L14 27L22 27L26 27L26 11C26 9.895 25.105 9 24 9L22 9L22 8L22 3C22 2.448 21.552 2 21 2C20.448 2 20 2.448 20 3L20 5.65625L18 5.0566406L18 3C18 2.448 17.552 2 17 2 z M 12 9L12 11L14 11L14 9L12 9 z M 16 9L16 11L18 11L18 9L16 9 z M 22 11L24 11L24 13L22 13L22 11 z M 12 13L12 15L14 15L14 13L12 13 z M 16 13L16 15L18 15L18 13L16 13 z M 22 15L24 15L24 17L22 17L22 15 z M 16 17L16 19L18 19L18 17L16 17 z M 6 19L8 19L8 21L6 21L6 19 z M 10 19L12 19L12 21L10 21L10 19 z M 22 19L24 19L24 21L22 21L22 19 z M 16 21L16 23L18 23L18 21L16 21 z M 6 23L8 23L8 25L6 25L6 23 z M 10 23L12 23L12 25L10 25L10 23 z M 22 23L24 23L24 25L22 25L22 23 z" fill="#FFFFFF" />
</svg>