<?xml version="1.0" encoding="utf-8"?>
<svg xmlns="http://www.w3.org/2000/svg" viewBox="0 0 30 30" width="32" height="32">
  <path d="M16.966797 5.9902344 A 1.0001 1.0001 0 0 0 16.240234 7.6503906L19.96875 12L14.617188 12L13.894531 10.552734 A 1.0001 1.0001 0 0 0 13.015625 9.9882812 A 1.0001 1.0001 0 0 0 12.105469 11.447266L12.382812 12L8.6171875 12L7.8945312 10.552734 A 1.0001 1.0001 0 0 0 7.015625 9.9882812 A 1.0001 1.0001 0 0 0 6.1054688 11.447266L6.3847656 12.007812L1.6933594 12.736328C0.71835937 12.887328 0 13.726891 0 14.712891L0 18.433594C0 19.353594 0.62848438 20.155953 1.5214844 20.376953L3.2617188 20.804688C3.7835452 22.085761 5.0399001 23 6.5 23C7.8831781 23 9.0777088 22.175309 9.6445312 21L21.355469 21C21.922291 22.175309 23.116822 23 24.5 23C25.985982 23 27.257535 22.051304 27.761719 20.734375L28.623047 20.451172C29.445047 20.182172 30 19.414781 30 18.550781L30 15.445312C30 14.571312 29.436562 13.797109 28.601562 13.537109C27.219549 13.107022 24.995723 12.503612 22.759766 12.181641L17.759766 6.3496094 A 1.0001 1.0001 0 0 0 16.966797 5.9902344 z M 6.5 18C7.3408117 18 8 18.659188 8 19.5C8 20.340812 7.3408117 21 6.5 21C5.6591883 21 5 20.340812 5 19.5C5 18.659188 5.6591883 18 6.5 18 z M 24.5 18C25.340812 18 26 18.659188 26 19.5C26 20.340812 25.340812 21 24.5 21C23.659188 21 23 20.340812 23 19.5C23 18.659188 23.659188 18 24.5 18 z" fill="#FFFFFF" />
</svg>