<?xml version="1.0" encoding="utf-8"?>
<svg xmlns="http://www.w3.org/2000/svg" viewBox="0 0 30 30" width="32" height="32">
  <path d="M4 4C3.448 4 3 4.448 3 5L3 5.8925781C3 6.8885781 3.6810625 7.8126562 4.6640625 7.9726562C5.9170625 8.1756562 7 7.215 7 6L7 5.8925781C7 6.8885781 7.6810625 7.8126562 8.6640625 7.9726562C9.9170625 8.1756562 11 7.215 11 6C11 7.105 11.895 8 13 8C14.105 8 15 7.105 15 6C15 7.105 15.895 8 17 8C18.105 8 19 7.105 19 6C19 7.105 19.895 8 21 8C22.105 8 23 7.105 23 6L23 5.8925781C23 6.8885781 23.681062 7.8126562 24.664062 7.9726562C25.917063 8.1756562 27 7.215 27 6L27 5C27 4.448 26.552 4 26 4L23 4L19 4L15 4L11 4L7 4L4 4 z M 5 10L5 14L3 14 A 1.0001 1.0001 0 1 0 3 16L5 16L5 24L5 26 A 1.0001 1.0001 0 1 0 7 26L7 24L15.130859 24C15.278569 24.624411 15.554741 25.223449 16.001953 25.726562C16.685226 26.495244 17.75 27 19 27C20.25 27 21.314774 26.495244 21.998047 25.726562C22.445259 25.223449 22.721431 24.624411 22.869141 24L23 24C24.105 24 25 23.105 25 22L25 14L25 10L23 10L23 14L17.013672 14 A 1.0001 1.0001 0 0 0 16 13L10 13 A 1.0001 1.0001 0 0 0 8.9863281 14L7 14L7 10L5 10 z M 19 21C19.749999 21 20.185226 21.245244 20.501953 21.601562C20.81868 21.957881 21 22.472222 21 23C21 23.527778 20.81868 24.042118 20.501953 24.398438C20.185226 24.754756 19.749999 25 19 25C18.250001 25 17.814774 24.754756 17.498047 24.398438C17.18132 24.042119 17 23.527778 17 23C17 22.472222 17.18132 21.957882 17.498047 21.601562C17.814774 21.245244 18.250001 21 19 21 z" fill="#FFFFFF" />
</svg>