<?xml version="1.0" encoding="utf-8"?>
<svg xmlns="http://www.w3.org/2000/svg" viewBox="0 0 30 30" width="32" height="32">
  <path d="M20.984375 -0.013671875 A 1.0001 1.0001 0 0 0 20 1L20 4 A 1.0001 1.0001 0 1 0 22 4L22 1 A 1.0001 1.0001 0 0 0 20.984375 -0.013671875 z M 24.984375 0.98632812 A 1.0001 1.0001 0 0 0 24 2L24 4 A 1.0001 1.0001 0 1 0 26 4L26 2 A 1.0001 1.0001 0 0 0 24.984375 0.98632812 z M 16.984375 1.9863281 A 1.0001 1.0001 0 0 0 16 3L16 4 A 1.0001 1.0001 0 1 0 18 4L18 3 A 1.0001 1.0001 0 0 0 16.984375 1.9863281 z M 12 7C10.92 7 9.9099219 7.4296875 9.1699219 8.1796875C8.7899219 8.0596875 8.4 8 8 8C6.4 8 4.999375 8.929375 4.359375 10.359375C2.929375 10.999375 2 12.4 2 14L1 14C0.45 14 0 14.45 0 15C0 15.55 0.45 16 1 16L1.0585938 16C1.5512024 19.946649 4.909591 23 8.9902344 23L0 23C0 24.105 0.895 25 2 25L28 25C29.105 25 30 24.105 30 23L24.162109 23C25.161109 23 26.007531 22.262438 26.144531 21.273438L27.931641 8.3261719C28.014641 7.7251719 27.548359 7.1894531 26.943359 7.1894531L15.058594 7.1894531C14.448594 7.1894531 13.980359 7.7309844 14.068359 8.3339844L15.953125 21.289062C16.097125 22.280063 16.943594 23 17.933594 23L14.509766 23C14.239766 22.55 14.050703 22.040469 13.970703 21.480469L13.029297 15L13.025391 15L12.880859 14L4 14C4 13.12 4.5696875 12.349609 5.4296875 12.099609C5.7496875 11.999609 5.9996094 11.749688 6.0996094 11.429688C6.3496094 10.569688 7.12 10 8 10C8.33 10 8.6604687 10.089531 8.9804688 10.269531C9.4404687 10.529531 10.030313 10.389453 10.320312 9.9394531C10.690313 9.3494531 11.31 9 12 9C12.05 9 12.100391 8.9997656 12.150391 9.0097656L12.089844 8.6191406C12.009844 8.0691406 12.080781 7.5195312 12.300781 7.0195312C12.200781 6.9995313 12.1 7 12 7 z" fill="#FFFFFF" />
</svg>