<?xml version="1.0" encoding="utf-8"?>
<svg xmlns="http://www.w3.org/2000/svg" viewBox="0 0 30 30" width="32" height="32">
  <path d="M15 2C8.925 2 4 6.925 4 13C4 20.234 11.152828 23.697906 12.048828 24.503906C12.963828 25.326906 13.718437 27.170797 14.023438 28.216797C14.171437 28.724797 14.588 28.981188 15 28.992188C15.413 28.980187 15.828563 28.723797 15.976562 28.216797C16.281562 27.170797 17.036172 25.327906 17.951172 24.503906C18.847172 23.697906 26 20.234 26 13C26 6.925 21.075 2 15 2 z M 15.001953 8C15.107453 8 15.211781 8.0331094 15.300781 8.0996094L19.300781 11.099609C19.520781 11.265609 19.565391 11.579781 19.400391 11.800781C19.302391 11.931781 19.151 12 19 12L19 17L16 17L16 14L14 14L14 17L11 17L11 11.990234C10.848 11.990234 10.697609 11.931781 10.599609 11.800781C10.434609 11.579781 10.480172 11.265609 10.701172 11.099609L14.701172 8.0996094C14.790172 8.0331094 14.896453 8 15.001953 8 z" fill="#FFFFFF" />
</svg>