<?xml version="1.0" encoding="utf-8"?>
<svg xmlns="http://www.w3.org/2000/svg" viewBox="0 0 30 30" width="32" height="32">
  <path d="M15 3C13 3 14 4 11 4C9.245 4 8.261875 4.7707656 8.046875 5.6347656C7.281875 5.5017656 6.51 5.49 6 6C5 7 4 7 4 8C4 9 5 10 7 10C9 10 7 9 9 9C11 9 12 9 12 8C12 7.887 11.983984 7.7731094 11.958984 7.6621094C12.303984 7.8061094 12.648187 7.9199219 12.992188 7.9199219C13.985188 7.9199219 14 7 15 7C16 7 16 8 16 9C16 10 19.000062 9.9785156 21.039062 9.9785156C23.079062 9.9785156 25 9 25 8C25 7 23 7 22 7C21 7 20 6 20 5C20 4 19 4 18 4C17 4 16 3 15 3 z M 14.091797 9.7363281C13.875797 9.8133281 13.632328 9.8713906 13.361328 9.9003906C13.328328 9.9373906 13.285 9.9620938 13.25 9.9960938C13.267 10.719094 13.210047 11.307359 12.998047 11.443359C12.791047 11.576359 12.299469 11.262297 11.730469 10.779297C11.536469 10.826297 11.338719 10.867484 11.136719 10.896484C11.656719 11.513484 11.883891 12.372422 11.962891 13.232422C12.573891 13.912422 13 14.550813 13 15.007812C13 16.733812 13.013672 17.802734 13.013672 17.802734L11.115234 16.363281C10.588234 16.786281 9.8788125 16.929562 9.1328125 16.976562C10.857813 18.702563 13 21.206 13 23L13 27L17 27L17 23C17 22.282 17.517688 21.305609 18.179688 20.349609C16.603687 19.746609 15 18.685 15 17C15 15.627 15.838734 14.258203 17.427734 13.533203C17.687734 13.059203 18.050406 12.500781 18.441406 11.925781C17.854406 11.887781 17.276234 11.822984 16.740234 11.708984C16.217234 12.384984 15.738563 12.809828 15.476562 12.548828C15.250562 12.322828 15.032938 11.675953 14.835938 10.876953C14.484937 10.581953 14.220797 10.212328 14.091797 9.7363281 z M 6.4414062 11.560547C5.890625 11.53125 5.375 11.625 5 12C4 13 3 13 3 14C3 15 4 16 6 16C8 16 6 15 8 15C10 15 10 15 10 14C10 13 10 12 9 12C8.375 12 7.359375 11.609375 6.4414062 11.560547 z M 25 14C22 14 22 15 20 15C18 15 17 16 17 17C17 18 20 19 21 19C22 19 24 18 25 17C26 16 27 17 27 16C27 15 27 14 25 14 z" fill="#FFFFFF" />
</svg>