<?xml version="1.0" encoding="utf-8"?>
<svg xmlns="http://www.w3.org/2000/svg" viewBox="0 0 30 30" width="32" height="32">
  <path d="M15 3L4.7363281 5.7988281C4.3013281 5.9178281 4 6.3126719 4 6.7636719L4 8C3.447 8 3 8.447 3 9C3 9.553 3.447 10 4 10L26 10C26.553 10 27 9.553 27 9C27 8.447 26.553 8 26 8L26 6.7636719C26 6.3126719 25.698672 5.9178281 25.263672 5.7988281L15 3 z M 4.2207031 12L3.4492188 15.078125 A 2 2 0 0 0 2 17 A 2 2 0 0 0 4 19 A 2 2 0 0 0 6 17 A 2 2 0 0 0 5.3886719 15.564453L6.2792969 12L4.2207031 12 z M 8.6953125 12L8.1777344 17.179688 A 2 2 0 0 0 7 19 A 2 2 0 0 0 9 21 A 2 2 0 0 0 11 19 A 2 2 0 0 0 10.166016 17.378906L10.705078 12L8.6953125 12 z M 13 12L13 24L10 24 A 1.0001 1.0001 0 1 0 10 26L20 26 A 1.0001 1.0001 0 1 0 20 24L17 24L17 12L13 12 z M 19.294922 12L19.833984 17.378906 A 2 2 0 0 0 19 19 A 2 2 0 0 0 21 21 A 2 2 0 0 0 23 19 A 2 2 0 0 0 21.824219 17.179688L21.306641 12L19.294922 12 z M 23.720703 12L24.611328 15.560547 A 2 2 0 0 0 24 17 A 2 2 0 0 0 26 19 A 2 2 0 0 0 28 17 A 2 2 0 0 0 26.550781 15.078125L25.779297 12L23.720703 12 z" fill="#FFFFFF" />
</svg>