<?xml version="1.0" encoding="utf-8"?>
<svg xmlns="http://www.w3.org/2000/svg" viewBox="0 0 30 30" width="32" height="32">
  <path d="M11.048828 4C10.748328 4.010375 10.455297 4.1887969 10.341797 4.5292969L9 8.5527344L6.8183594 7.8261719C6.3803594 7.6801719 5.9135 7.9445313 5.8125 8.3945312L3.4882812 18.810547C4.4452813 18.290547 5.636 18 7 18C9.038 18 10.249766 18.817062 11.134766 19.414062C11.789766 19.856063 12.037078 20 12.455078 20C12.945078 20 13.357688 19.845859 13.929688 19.630859C14.678688 19.350859 15.611656 19 16.847656 19C18.223656 19 19.073062 19.472453 19.664062 19.939453L16.492188 10.371094C16.330188 9.8820937 15.642797 9.8734219 15.466797 10.357422L14.878906 11.972656L11.792969 4.4804688C11.656469 4.1484688 11.349328 3.989625 11.048828 4 z M 25 4 A 2 2 0 0 0 23 6 A 2 2 0 0 0 25 8 A 2 2 0 0 0 27 6 A 2 2 0 0 0 25 4 z M 24 11.867188C23.780125 11.867188 23.560141 11.973 23.431641 12.1875L21.568359 15.294922C21.381359 15.605922 21.604797 16 21.966797 16L22.972656 16L21.080078 19.154297C20.857078 19.526297 21.124594 20 21.558594 20L23 20L23 21.056641C23.706 21.129641 24.378 21.276281 25 21.488281L25 20L26.441406 20C26.875406 20 27.142922 19.526297 26.919922 19.154297L25.027344 16L26.033203 16C26.395203 16 26.619594 15.605922 26.433594 15.294922L24.568359 12.1875C24.439359 11.973 24.219875 11.867188 24 11.867188 z M 7 20C4.72 20 3 21.027031 3 22.957031L3 25.980469L27 26C27 24.619 25 23 22 23C18.5 23 19.168656 21 16.847656 21C15.107656 21 14.168078 22 12.455078 22C10.217078 22 9.72 20 7 20 z" fill="#FFFFFF" />
</svg>