<?xml version="1.0" encoding="utf-8"?>
<svg xmlns="http://www.w3.org/2000/svg" viewBox="0 0 30 30" width="32" height="32">
  <path d="M8.4707031 2.8457031 A 0.50005 0.50005 0 0 0 8.1328125 3.0097656C8.1328125 3.0097656 6.1152858 5.1678659 5.0605469 7.2773438 A 0.50005 0.50005 0 1 0 5.9550781 7.7226562C6.9003392 5.8321341 8.8671875 3.6894531 8.8671875 3.6894531 A 0.50005 0.50005 0 0 0 8.4707031 2.8457031 z M 25.984375 2.9863281 A 1.0001 1.0001 0 0 0 25 4L25 26 A 1.0001 1.0001 0 1 0 27 26L27 4 A 1.0001 1.0001 0 0 0 25.984375 2.9863281 z M 11.498047 3.9960938 A 0.50005 0.50005 0 0 0 11.189453 4.1074219C9.8836253 5.1406904 7.9422533 7.674679 7.0625 9.2578125 A 0.50006103 0.50006103 0 1 0 7.9375 9.7421875C8.7237467 8.327321 10.778375 5.7093096 11.810547 4.8925781 A 0.50005 0.50005 0 0 0 11.498047 3.9960938 z M 22.003906 4.9980469 A 1.0001 1.0001 0 0 0 21.835938 5.0136719L15.835938 6.0136719 A 1.0001 1.0001 0 0 0 15.386719 6.2089844 A 1.0001 1.0001 0 0 0 15.382812 6.2128906C15.369514 6.2223697 12.166893 8.5080134 11.167969 11.919922C10.763969 13.447922 11.286016 15.106188 11.791016 16.617188L9.2539062 16.03125L9.2519531 16.033203 A 1.0001 1.0001 0 0 0 9.0332031 16 A 1.0001 1.0001 0 0 0 8.5527344 16.105469L4.5527344 18.105469 A 1.0001161 1.0001161 0 0 0 5.4433594 19.896484L5.4375 19.902344L9.3652344 18.376953L13.265625 20.679688 A 1.0003764 1.0003764 0 0 0 13.447266 20.763672 A 2.5 2.5 0 0 0 14.5 21 A 2.5 2.5 0 0 0 17 18.5 A 2.5 2.5 0 0 0 16.888672 17.771484L16.890625 17.769531L15.134766 11.607422C15.135766 11.607422 16.998047 8.3046875 16.998047 8.3046875L22.103516 6.9960938L22.164062 6.9863281 A 1.0001 1.0001 0 0 0 22.003906 4.9980469 z M 22.240234 9.0253906L18.664062 9.9414062L21.683594 10.949219C21.788594 10.984219 21.896 11 22 11C22.419 11 22.809219 10.735406 22.949219 10.316406C23.124219 9.7924062 22.840406 9.2257813 22.316406 9.0507812L22.240234 9.0253906 z M 19.5 20 A 2.5 2.5 0 0 0 17 22.5 A 2.5 2.5 0 0 0 19.5 25 A 2.5 2.5 0 0 0 22 22.5 A 2.5 2.5 0 0 0 19.5 20 z" fill="#FFFFFF" />
</svg>