<?xml version="1.0" encoding="utf-8"?>
<svg xmlns="http://www.w3.org/2000/svg" viewBox="0 0 30 30" width="32" height="32">
  <path d="M7.984375 3 A 1.0001 1.0001 0 0 0 7.2929688 3.2929688L6.2929688 4.2929688 A 1.0001 1.0001 0 0 0 6.4707031 5.8652344L5.7929688 6.5429688 A 1.0001 1.0001 0 0 0 5.9707031 8.1152344L5.2929688 8.7929688 A 1.0001 1.0001 0 1 0 6.7070312 10.207031L7 9.9140625L7 11 A 1.0001 1.0001 0 1 0 9 11L9 9.9140625L9.2929688 10.207031 A 1.0001 1.0001 0 1 0 10.707031 8.7929688L10.027344 8.1132812 A 1.0001 1.0001 0 0 0 10.207031 6.5429688L9.5273438 5.8632812 A 1.0001 1.0001 0 0 0 9.7070312 4.2929688L8.7070312 3.2929688 A 1.0001 1.0001 0 0 0 7.984375 3 z M 17.525391 4C17.158391 4 16.802281 4.0980625 16.488281 4.2890625C15.411281 4.9440625 13 6.671 13 9C13 12 16 14 16 18C16 20.567 12.705703 23.132578 10.345703 24.642578C9.7247031 25.039578 10.015953 26 10.751953 26L21.279297 26C21.796297 26 22.289109 25.804266 22.662109 25.447266C23.546109 24.601266 25 22.785 25 20C25 16 17 11 17 8C17 6.284 17.980312 5.2239062 18.820312 4.6289062C19.098312 4.4329063 18.966953 4 18.626953 4L17.525391 4 z M 23.984375 4 A 1.0001 1.0001 0 0 0 23.292969 4.2929688L22.292969 5.2929688 A 1.0001 1.0001 0 0 0 22.470703 6.8652344L21.792969 7.5429688 A 1.0001 1.0001 0 0 0 21.970703 9.1152344L21.292969 9.7929688 A 1.0001 1.0001 0 1 0 22.707031 11.207031L23 10.914062L23 12 A 1.0001 1.0001 0 1 0 25 12L25 10.914062L25.292969 11.207031 A 1.0001 1.0001 0 1 0 26.707031 9.7929688L26.027344 9.1132812 A 1.0001 1.0001 0 0 0 26.207031 7.5429688L25.527344 6.8632812 A 1.0001 1.0001 0 0 0 25.707031 5.2929688L24.707031 4.2929688 A 1.0001 1.0001 0 0 0 23.984375 4 z M 6 14 A 2 2 0 0 0 4.1152344 16.667969 A 3 3 0 0 0 5 21.828125L5 23 A 1.0001 1.0001 0 1 0 7 23L7 21.824219 A 3 3 0 0 0 7.8828125 16.667969 A 2 2 0 0 0 6 14 z" fill="#FFFFFF" />
</svg>