<?xml version="1.0" encoding="utf-8"?>
<svg xmlns="http://www.w3.org/2000/svg" viewBox="0 0 30 30" width="32" height="32">
  <path d="M8 3L3 6L3 12L13 12L13 6L8 3 z M 8 6C9.105 6 10 6.895 10 8C10 9.105 9.105 10 8 10C6.895 10 6 9.105 6 8C6 6.895 6.895 6 8 6 z M 3 14L3 25 A 1 1 0 0 0 4 26 A 1 1 0 0 0 5 25L5 14L3 14 z M 7 14L7 16L11 16L11 18L7 18L7 20L11 20L11 22L7 22L7 24L11 24L11 25 A 1 1 0 0 0 12 26 A 1 1 0 0 0 13 25L13 14L12 14L7 14 z M 15 14L15 17C21 17 18 26 27 26L27 24 A 1 1 0 0 0 26 23C22 23 23 14 15 14 z" fill="#FFFFFF" />
</svg>