<?xml version="1.0" encoding="utf-8"?>
<svg xmlns="http://www.w3.org/2000/svg" viewBox="0 0 30 30" width="32" height="32">
  <path d="M4 4C3.448 4 3 4.448 3 5L3 17C3 18.105 3.895 19 5 19L6.1835938 19C6.5965938 17.837 7.696 17 9 17L21 17C22.304 17 23.403406 17.837 23.816406 19L26 19C26.552 19 27 18.552 27 18L27 17C27 12.037019 23.116857 8.1224517 20.132812 8.0097656 A 1 1 0 0 0 20 8 A 1 1 0 0 0 19 9 A 1 1 0 0 0 19 9.0273438L19 11C19 11.552 18.552 12 18 12L16 12C14.343 12 13 10.657 13 9C13 8.448 12.552 8 12 8C11.448 8 11 8.448 11 9L11 11C11 11.552 10.552 12 10 12L8 12C6.343 12 5 10.657 5 9L5 5C5 4.448 4.552 4 4 4 z M 9 19 A 1 1 0 0 0 8 20 A 1 1 0 0 0 9 21 A 1 1 0 0 0 10 20 A 1 1 0 0 0 9 19 z M 12 19 A 1 1 0 0 0 11 20 A 1 1 0 0 0 12 21 A 1 1 0 0 0 13 20 A 1 1 0 0 0 12 19 z M 18 19 A 1 1 0 0 0 17 20 A 1 1 0 0 0 18 21 A 1 1 0 0 0 19 20 A 1 1 0 0 0 18 19 z M 21 19 A 1 1 0 0 0 20 20 A 1 1 0 0 0 21 21 A 1 1 0 0 0 22 20 A 1 1 0 0 0 21 19 z M 3 23 A 1.0001 1.0001 0 1 0 3 25L27 25 A 1.0001 1.0001 0 1 0 27 23L3 23 z" fill="#FFFFFF" />
</svg>