<?xml version="1.0" encoding="utf-8"?>
<svg xmlns="http://www.w3.org/2000/svg" viewBox="0 0 30 30" width="32" height="32">
  <path d="M15 2 A 3 3 0 0 0 12 5 A 3 3 0 0 0 15 8 A 3 3 0 0 0 18 5 A 3 3 0 0 0 15 2 z M 11.763672 6.0019531C11.325531 6.0187812 10.372203 6.1317031 9.7519531 6.7519531C8.9249531 7.5789531 9.0019531 8.9980469 9.0019531 8.9980469C9.0019531 8.9980469 10.421047 9.0750469 11.248047 8.2480469C12.075047 7.4210469 11.998047 6.0019531 11.998047 6.0019531C11.998047 6.0019531 11.909719 5.9963438 11.763672 6.0019531 z M 18.001953 6.0019531C18.001953 6.0019531 17.924953 7.4210469 18.751953 8.2480469C19.578953 9.0750469 20.998047 8.9980469 20.998047 8.9980469C20.998047 8.9980469 21.075047 7.5789531 20.248047 6.7519531C19.421047 5.9249531 18.001953 6.0019531 18.001953 6.0019531 z M 15 10C13.371099 10 11.940052 11.116747 11.544922 12.697266L10.029297 18.757812 A 1.0004596 1.0004596 0 0 0 11 20L18.972656 20 A 1.0004596 1.0004596 0 0 0 19 20 A 1.0004596 1.0004596 0 0 0 19.970703 18.757812L18.455078 12.697266C18.059948 11.116747 16.628901 10 15 10 z M 12 22L12 25.966797C12 26.536797 12.463203 27 13.033203 27C13.577203 27 14.028453 26.577156 14.064453 26.035156L14.332031 22L12 22 z M 15.667969 22L15.935547 26.035156C15.971547 26.578156 16.422797 27 16.966797 27C17.536797 27 18 26.536797 18 25.966797L18 22L15.667969 22 z" fill="#FFFFFF" />
</svg>