<?xml version="1.0" encoding="utf-8"?>
<svg xmlns="http://www.w3.org/2000/svg" viewBox="0 0 30 30" width="32" height="32">
  <path d="M8 3 A 1.0001 1.0001 0 1 0 8 5L11 5C11.666667 5 12.530651 5.3889236 13.195312 5.8320312C13.534456 6.0581266 13.808233 6.2770359 14 6.4414062L14 10L16 10L16 6.4414062C16.191767 6.2770359 16.465544 6.0581265 16.804688 5.8320312C17.469349 5.3889237 18.333333 5 19 5L22 5 A 1.0001 1.0001 0 1 0 22 3L19 3C17.666667 3 16.530651 3.6110764 15.695312 4.1679688C15.408797 4.358979 15.211328 4.5269929 15 4.6972656C14.788672 4.5269929 14.591203 4.358979 14.304688 4.1679688C13.469349 3.6110763 12.333333 3 11 3L8 3 z M 14 12L14 20.271484 A 2 2 0 0 0 13.269531 21L10 21L10 19C10 17.895 9.105 17 8 17C6.895 17 6 17.895 6 19L6 25C6 26.105 6.895 27 8 27C9.105 27 10 26.105 10 25L10 23L13.271484 23 A 2 2 0 0 0 15 24 A 2 2 0 0 0 16.730469 23L20 23L20 25C20 26.105 20.895 27 22 27C23.105 27 24 26.105 24 25L24 19C24 17.895 23.105 17 22 17C20.895 17 20 17.895 20 19L20 21L16.728516 21 A 2 2 0 0 0 16 20.269531L16 12L14 12 z" fill="#FFFFFF" />
</svg>