<?xml version="1.0" encoding="utf-8"?>
<svg xmlns="http://www.w3.org/2000/svg" viewBox="0 0 30 30" width="32" height="32">
  <path d="M6 3C4.895 3 4 3.895 4 5L4 6L1 10C1 11.105 1.895 12 3 12C4.105 12 5 11.105 5 10L7 6L10 6L9 10C9 11.105 9.895 12 11 12C12.105 12 13 11.105 13 10L13 6L17 6L17 10C17 11.105 17.895 12 19 12C20.105 12 21 11.105 21 10L20 6L23 6L25 10C25 11.105 25.895 12 27 12C28.105 12 29 11.105 29 10L26 6L26 5C26 3.895 25.105 3 24 3L6 3 z M 13 13.443359C12.409 13.787359 11.732 14 11 14C10.27 14 9.5958594 13.788312 9.0058594 13.445312C8.4148594 13.791313 7.733 14 7 14C6.273 14 5.5997188 13.789219 5.0117188 13.449219C4.4197187 13.796219 3.734 14 3 14L3 25C3 26.105 3.895 27 5 27L7 27L7 17L14 17L14 27L16 27L16 17L23 17L23 27L25 27C26.105 27 27 26.105 27 25L27 14C26.266 14 25.580281 13.796219 24.988281 13.449219C24.400281 13.789219 23.727 14 23 14C22.267 14 21.585141 13.791312 20.994141 13.445312C20.404141 13.788312 19.73 14 19 14C18.268 14 17.591 13.787359 17 13.443359C16.409 13.787359 15.732 14 15 14C14.268 14 13.591 13.787359 13 13.443359 z M 12 21C11.448 21 11 21.448 11 22C11 22.552 11.448 23 12 23C12.552 23 13 22.552 13 22C13 21.448 12.552 21 12 21 z M 18 21C17.448 21 17 21.448 17 22C17 22.552 17.448 23 18 23C18.552 23 19 22.552 19 22C19 21.448 18.552 21 18 21 z" fill="#FFFFFF" />
</svg>