<?xml version="1.0" encoding="utf-8"?>
<svg xmlns="http://www.w3.org/2000/svg" viewBox="0 0 30 30" width="32" height="32">
  <path d="M15 2 A 3 3 0 0 0 12 5 A 3 3 0 0 0 15 8 A 3 3 0 0 0 18 5 A 3 3 0 0 0 15 2 z M 13 10C11.346 10 10 11.346 10 13L10 19C10 19.553 10.447 20 11 20C11.553 20 12 19.553 12 19L12 17L18 17L18 19C18 19.553 18.447 20 19 20C19.553 20 20 19.553 20 19L20 13C20 11.346 18.654 10 17 10L16.722656 10C16.376656 10.595 15.739 11 15 11C14.261 11 13.624344 10.595 13.277344 10L13 10 z M 12 20L12 25.966797C12 26.536797 12.463203 27 13.033203 27C13.577203 27 14.028453 26.578156 14.064453 26.035156L14.466797 20L12 20 z M 15.533203 20L15.935547 26.035156C15.971547 26.577156 16.422797 27 16.966797 27C17.536797 27 18 26.536797 18 25.966797L18 20L15.533203 20 z" fill="#FFFFFF" />
</svg>