<?xml version="1.0" encoding="utf-8"?>
<svg xmlns="http://www.w3.org/2000/svg" viewBox="0 0 30 30" width="32" height="32">
  <path d="M12 3 A 2 2 0 0 0 10 5 A 2 2 0 0 0 10.185547 5.8339844L3.2539062 15.779297L2.6367188 15.953125C2.1057187 16.104125 1.7962656 16.658453 1.9472656 17.189453C1.9882656 17.334453 2.06325 17.457453 2.15625 17.564453L5.5195312 20.880859C6.2625313 21.583859 7.3395312 21.896656 8.3945312 21.597656L10.207031 21.083984L10.052734 24L7 24 A 1.0001 1.0001 0 1 0 7 26L17 26 A 1.0001 1.0001 0 1 0 17 24L13.947266 24L13.037109 6.7089844 A 2 2 0 0 0 14 5 A 2 2 0 0 0 12 3 z M 15.945312 5.6054688C15.836313 6.2904688 15.550625 6.9125 15.140625 7.4375L22.9375 10.820312L22.421875 12.419922L15.441406 14.400391L15.712891 19.521484L23.787109 17.230469C24.842109 16.931469 25.593422 16.099328 25.857422 15.111328L26.980469 10.523438C27.002469 10.383437 27.001938 10.23975 26.960938 10.09375C26.809938 9.56275 26.255609 9.2532969 25.724609 9.4042969L25.105469 9.5800781L15.945312 5.6054688 z M 10.876953 8.3378906L10.484375 15.806641L7.0292969 16.787109L5.75 15.695312L10.876953 8.3378906 z" fill="#FFFFFF" />
</svg>