<?xml version="1.0" encoding="utf-8"?>
<svg xmlns="http://www.w3.org/2000/svg" viewBox="0 0 30 30" width="32" height="32">
  <path d="M8 4C5.791 4 4 5.791 4 8L4 26L7 26L7 8C7 7.448 7.448 7 8 7L10 7 A 1 1 0 0 0 11 8 A 1 1 0 0 0 12 7L18 7 A 1 1 0 0 0 19 8 A 1 1 0 0 0 20 7L22 7C22.552 7 23 7.448 23 8L23 26L26 26L26 8C26 5.791 24.209 4 22 4L8 4 z M 11 9 A 1 1 0 0 0 10 10 A 1 1 0 0 0 11 11 A 1 1 0 0 0 12 10 A 1 1 0 0 0 11 9 z M 19 9 A 1 1 0 0 0 18 10 A 1 1 0 0 0 19 11 A 1 1 0 0 0 20 10 A 1 1 0 0 0 19 9 z M 11 12 A 1 1 0 0 0 10 13 A 1 1 0 0 0 11 14 A 1 1 0 0 0 12 13 A 1 1 0 0 0 11 12 z M 19 12 A 1 1 0 0 0 18 13 A 1 1 0 0 0 19 14 A 1 1 0 0 0 20 13 A 1 1 0 0 0 19 12 z M 11 15 A 1 1 0 0 0 10 16 A 1 1 0 0 0 11 17 A 1 1 0 0 0 12 16 A 1 1 0 0 0 11 15 z M 19 15 A 1 1 0 0 0 18 16 A 1 1 0 0 0 19 17 A 1 1 0 0 0 20 16 A 1 1 0 0 0 19 15 z M 11 18 A 1 1 0 0 0 10 19 A 1 1 0 0 0 10.003906 19.066406 A 1.50015 1.50015 0 0 0 9.8300781 21.841797C9.8300781 21.841797 12.1 23 15 23C17.9 23 20.169922 21.841797 20.169922 21.841797 A 1.50015 1.50015 0 0 0 19.996094 19.058594 A 1 1 0 0 0 20 19 A 1 1 0 0 0 19 18 A 1 1 0 0 0 18 19 A 1 1 0 0 0 18.101562 19.4375C17.408486 19.683562 16.303968 20 15 20C13.696032 20 12.591514 19.683562 11.898438 19.4375 A 1 1 0 0 0 12 19 A 1 1 0 0 0 11 18 z" fill="#FFFFFF" />
</svg>