<?xml version="1.0" encoding="utf-8"?>
<svg xmlns="http://www.w3.org/2000/svg" viewBox="0 0 30 30" width="32" height="32">
  <path d="M13 2 A 2 2 0 0 0 11.171875 3.1933594C10.097623 3.4161799 9.0948144 3.8310473 8.1972656 4.4003906 A 2 2 0 0 0 7 4 A 2 2 0 0 0 5 6 A 2 2 0 0 0 5.4003906 7.1953125C4.8296815 8.0949133 4.4082582 9.0988165 4.1855469 10.175781C3.8095469 10.343781 3.5059219 10.629516 3.2949219 10.978516C4.2179219 11.801516 5.2810469 12.657734 6.3730469 13.427734C6.7520469 13.064734 7 12.567 7 12C7 11.344 6.6804063 10.767344 6.1914062 10.402344C6.4004509 9.5123202 6.794118 8.6987443 7.3066406 7.9746094 A 2 2 0 0 0 8.9746094 6.3046875C9.6963315 5.7917099 10.508606 5.400969 11.396484 5.1914062 A 2 2 0 0 0 13 6 A 2 2 0 0 0 14.59375 5.2050781C15.477202 5.4133345 16.302271 5.7741529 17.021484 6.2832031 A 2 2 0 0 0 18.699219 7.9746094C19.061299 8.4869605 19.366245 9.0421098 19.582031 9.6425781C20.094031 9.1425781 20.626453 8.6820625 21.189453 8.2890625C21.017543 7.9111511 20.817946 7.5492072 20.597656 7.2011719 A 2 2 0 0 0 21 6 A 2 2 0 0 0 19 4 A 2 2 0 0 0 17.798828 4.4042969C16.906795 3.8369541 15.905568 3.4369924 14.837891 3.2128906 A 2 2 0 0 0 13 2 z M 25 9C23.611349 8.9993497 22.445367 9.7415943 21.419922 10.660156C20.393988 11.579156 19.448048 12.725538 18.466797 13.835938C16.504295 16.056733 14.499778 18 12 18C9.9308428 18 6.9246399 16.336612 4.5976562 14.605469 A 1.0001 1.0001 0 1 0 3.4023438 16.208984C3.6085426 16.362385 3.843618 16.512029 4.0585938 16.666016 A 1 1 0 0 0 4 17 A 1 1 0 0 0 5 18 A 1 1 0 0 0 5.65625 17.753906C6.7681314 18.449078 7.9473928 19.060025 9.1523438 19.470703 A 1 1 0 0 0 9 20 A 1 1 0 0 0 10 21 A 1 1 0 0 0 11 20 A 1 1 0 0 0 10.996094 19.921875C11.331341 19.966994 11.666151 20 12 20C12.728917 20 13.409378 19.88387 14.052734 19.6875 A 1 1 0 0 0 14 20 A 1 1 0 0 0 15 21 A 1 1 0 0 0 16 20 A 1 1 0 0 0 15.447266 19.107422C17.231996 18.160737 18.686893 16.606305 19.964844 15.160156C20.972343 14.020055 21.896403 12.918515 22.753906 12.150391C23.215248 11.737135 23.637112 11.444419 24.033203 11.253906 A 1 1 0 0 0 25 12 A 1 1 0 0 0 26 11 A 1.0001 1.0001 0 1 0 26 9L25.001953 9L25 9 z M 13 11 A 1 1 0 0 0 12 12 A 1 1 0 0 0 13 13 A 1 1 0 0 0 14 12 A 1 1 0 0 0 13 11 z M 25 13 A 1 1 0 0 0 24 14 A 1 1 0 0 0 25 15 A 1 1 0 0 0 26 14 A 1 1 0 0 0 25 13 z M 20 16 A 1 1 0 0 0 19 17 A 1 1 0 0 0 20 18 A 1 1 0 0 0 21 17 A 1 1 0 0 0 20 16 z M 25 16 A 1 1 0 0 0 24 17 A 1 1 0 0 0 25 18 A 1 1 0 0 0 26 17 A 1 1 0 0 0 25 16 z M 5 19 A 1 1 0 0 0 4 20 A 1 1 0 0 0 5 21 A 1 1 0 0 0 6 20 A 1 1 0 0 0 5 19 z M 20 19 A 1 1 0 0 0 19 20 A 1 1 0 0 0 20 21 A 1 1 0 0 0 21 20 A 1 1 0 0 0 20 19 z M 25 19 A 1 1 0 0 0 24 20 A 1 1 0 0 0 25 21 A 1 1 0 0 0 26 20 A 1 1 0 0 0 25 19 z M 5 22 A 1 1 0 0 0 4 23 A 1.0001 1.0001 0 1 0 4 25L26 25 A 1.0001 1.0001 0 1 0 26 23 A 1 1 0 0 0 25 22 A 1 1 0 0 0 24 23L21 23 A 1 1 0 0 0 20 22 A 1 1 0 0 0 19 23L16 23 A 1 1 0 0 0 15 22 A 1 1 0 0 0 14 23L11 23 A 1 1 0 0 0 10 22 A 1 1 0 0 0 9 23L6 23 A 1 1 0 0 0 5 22 z" fill="#FFFFFF" />
</svg>