<?xml version="1.0" encoding="utf-8"?>
<svg xmlns="http://www.w3.org/2000/svg" viewBox="0 0 30 30" width="32" height="32">
  <path d="M9.2773438 3C7.4822282 3 5.8946711 4.2053552 5.4199219 5.9394531C5.1246901 7.0154424 4.7783627 8.3126481 4.5019531 9.4296875C4.3637483 9.9882072 4.2425937 10.500983 4.1542969 10.927734C4.1485925 10.955305 4.1461315 10.973613 4.140625 11L3 11 A 1.0001 1.0001 0 1 0 3 13L4 13L4 24L4 25C4 26.105 4.895 27 6 27C7.105 27 8 26.105 8 25L8 24.630859C9.7930201 24.829434 12.127593 25 15 25C17.872407 25 20.20698 24.829434 22 24.630859L22 25C22 26.105 22.895 27 24 27C25.105 27 26 26.105 26 25L26 24L26 13L27 13 A 1.0001 1.0001 0 1 0 27 11L25.859375 11C25.853869 10.973614 25.851406 10.955303 25.845703 10.927734C25.757426 10.501001 25.636181 9.9881791 25.498047 9.4296875C25.221778 8.3127043 24.874754 7.0152472 24.580078 5.9394531C24.104281 4.2063823 22.518443 3 20.722656 3L9.2773438 3 z M 9.2773438 5L20.722656 5C21.630869 5 22.412141 5.5938208 22.652344 6.46875C22.944668 7.5359559 23.28766 8.8206864 23.556641 9.9082031C23.691131 10.451962 23.807214 10.947703 23.886719 11.332031C23.9588 11.680479 23.984422 11.922151 23.990234 11.9375 A 1.0001 1.0001 0 0 0 24 12.158203L24 12.429688C24 12.913687 23.658641 13.330063 23.181641 13.414062C21.917641 13.634063 19.191 14 15 14C10.809 14 8.0823594 13.633109 6.8183594 13.412109C6.3413594 13.329109 6 12.913688 6 12.429688L6 12.167969 A 1.0001 1.0001 0 0 0 6.0117188 11.935547C6.017718 11.918108 6.041454 11.679185 6.1132812 11.332031C6.1927969 10.94772 6.3088142 10.453887 6.4433594 9.9101562C6.7124498 8.8226957 7.0568412 7.5357607 7.3496094 6.46875C7.5888602 5.5948479 8.3704591 5 9.2773438 5 z M 7.5 18C8.328 18 9 18.672 9 19.5C9 20.328 8.328 21 7.5 21C6.672 21 6 20.328 6 19.5C6 18.672 6.672 18 7.5 18 z M 22.5 18C23.328 18 24 18.672 24 19.5C24 20.328 23.328 21 22.5 21C21.672 21 21 20.328 21 19.5C21 18.672 21.672 18 22.5 18 z M 12 19L18 19C18.552 19 19 19.448 19 20C19 20.552 18.552 21 18 21L12 21C11.448 21 11 20.552 11 20C11 19.448 11.448 19 12 19 z" fill="#FFFFFF" />
</svg>