<?xml version="1.0" encoding="utf-8"?>
<svg xmlns="http://www.w3.org/2000/svg" viewBox="0 0 30 30" width="32" height="32">
  <path d="M15.041016 3 A 1.0001 1.0001 0 0 0 14.486328 3.1425781L9.4863281 6.1425781 A 1.0001 1.0001 0 0 0 10 8.015625L10 26L12 26L12 23C12 22.448 12.448 22 13 22L17 22C17.552 22 18 22.448 18 23L18 26L20 26L20 8.015625 A 1.0001 1.0001 0 0 0 20.513672 6.1425781L15.513672 3.1425781 A 1.0001 1.0001 0 0 0 15.041016 3 z M 15 7C16.105 7 17 7.895 17 9C17 10.105 16.105 11 15 11C13.895 11 13 10.105 13 9C13 7.895 13.895 7 15 7 z M 3 11C2.448 11 2 11.448 2 12C2 12.552 2.448 13 3 13L3 26L8 26L8 24L6 24L6 22L8 22L8 20L6 20L6 18L8 18L8 16L6 16L6 14L8 14L8 12L8 11L3 11 z M 22 11L22 13L22 14L24 14L24 16L22 16L22 18L24 18L24 20L22 20L22 22L24 22L24 24L22 24L22 26L27 26L27 13C27.552 13 28 12.552 28 12C28 11.448 27.552 11 27 11L22 11 z M 12 14L14 14L14 16L12 16L12 14 z M 16 14L18 14L18 16L16 16L16 14 z M 12 18L14 18L14 20L12 20L12 18 z M 16 18L18 18L18 20L16 20L16 18 z" fill="#FFFFFF" />
</svg>