<?xml version="1.0" encoding="utf-8"?>
<svg xmlns="http://www.w3.org/2000/svg" viewBox="0 0 30 30" width="32" height="32">
  <path d="M5.0097656 3.9941406C3.7597656 3.9941406 2.0197656 5.1534375 2.0097656 7.7734375L2.0097656 7.84375C2.0297656 12.06375 4.6108594 14.184844 4.6308594 14.214844C5.0708594 14.554844 5.1390625 15.183281 4.7890625 15.613281C4.5890625 15.863281 4.2997656 15.994141 4.0097656 15.994141C3.7897656 15.994141 3.570625 15.913438 3.390625 15.773438C3.330625 15.723437 2.7097656 15.214375 2.0097656 14.234375L2.0097656 18.003906L2.0097656 27.003906L9.0097656 27.003906L9.0097656 20L9.0117188 20C9.5637187 20 10.011719 19.552 10.011719 19C10.011719 18.448 9.5637187 18 9.0117188 18L7.6914062 18C8.2412952 16.292156 9.0006264 14.994141 10.009766 14.994141C11.569766 14.994141 13.139766 16.703359 13.009766 19.693359C13.009766 22.303359 12.080938 22.564844 11.210938 22.964844C10.850938 23.124844 10.630859 23.494766 10.630859 23.884766C10.630859 24.484766 11.120156 24.923828 11.660156 24.923828C11.780156 24.923828 11.889766 24.903281 12.009766 24.863281C15.119766 23.733281 17.009766 20.544141 17.009766 12.994141C17.009766 6.8331406 13.670078 4.9941406 11.330078 4.9941406C8.6000781 4.9941406 8.0097656 5.9941406 8.0097656 5.9941406C7.6197656 4.9541406 6.6997656 3.9941406 5.0097656 3.9941406 z M 26.011719 4.2382812 A 3 3 0 1 0 26.011719 10.238281 A 3 3 0 1 0 26.011719 4.2382812 z M 14.009766 10.994141C14.609766 10.994141 15.009766 11.394141 15.009766 11.994141C15.009766 12.594141 14.609766 12.994141 14.009766 12.994141C13.409766 12.994141 13.009766 12.594141 13.009766 11.994141C13.009766 11.394141 13.409766 10.994141 14.009766 10.994141 z M 20.011719 12.238281C19.458719 12.238281 19.011719 12.685281 19.011719 13.238281C19.011719 13.791281 19.458719 14.238281 20.011719 14.238281L21.011719 14.238281L22.011719 14.238281C22.563719 14.238281 23.011719 14.686281 23.011719 15.238281L23 25.998047C23 26.569047 23.463203 27.03125 24.033203 27.03125C24.577203 27.03125 25.028453 26.609406 25.064453 26.066406L25.513672 20.703125C25.530672 20.441125 25.748719 20.236328 26.011719 20.236328C26.274719 20.236328 26.491766 20.441125 26.509766 20.703125L26.935547 26.066406C26.971547 26.609406 27.422797 27.03125 27.966797 27.03125C28.537797 27.03125 29 26.568047 29 25.998047L29.011719 14.238281C29.011719 13.133281 28.115719 12.238281 27.011719 12.238281L21.011719 12.238281L20.011719 12.238281 z M 4.0097656 20.003906L7.0097656 20.003906L7.0097656 25.003906L4.0097656 25.003906L4.0097656 20.003906 z" fill="#FFFFFF" />
</svg>