<?xml version="1.0" encoding="UTF-8"?>
<!DOCTYPE svg PUBLIC "-//W3C//DTD SVG 1.1//EN" "http://www.w3.org/Graphics/SVG/1.1/DTD/svg11.dtd">
<!-- Creator: CorelDRAW -->
<svg xmlns="http://www.w3.org/2000/svg" xml:space="preserve" width="81.955mm" height="12.1516mm" version="1.1" style="shape-rendering:geometricPrecision; text-rendering:geometricPrecision; image-rendering:optimizeQuality; fill-rule:evenodd; clip-rule:evenodd"
viewBox="0 0 8168.83 1211.21"
 xmlns:xlink="http://www.w3.org/1999/xlink"
 xmlns:xodm="http://www.corel.com/coreldraw/odm/2003">
 <defs>
  <style type="text/css">
   <![CDATA[
    .fil1 {fill:white;fill-rule:nonzero}
    .fil0 {fill:url(#id0)}
   ]]>
  </style>
  <linearGradient id="id0" gradientUnits="userSpaceOnUse" x1="5731.64" y1="611.28" x2="8168.83" y2="611.28">
   <stop offset="0" style="stop-opacity:1; stop-color:#0055CC"/>
   <stop offset="1" style="stop-opacity:1; stop-color:#FF01F9"/>
  </linearGradient>
 </defs>
 <g id="Слой_x0020_1">
  <metadata id="CorelCorpID_0Corel-Layer"/>
  <path class="fil0" d="M5900.36 11.36l2099.74 0c92.8,0 168.72,75.92 168.72,168.72l0 862.4c0,92.8 -75.92,168.72 -168.72,168.72l-2099.74 0c-92.8,0 -168.72,-75.92 -168.72,-168.72l0 -862.4c0,-92.8 75.92,-168.72 168.72,-168.72zm468.93 521.89c73.64,12.01 130.06,39.42 169.28,82.24 39.22,42.82 58.83,95.85 58.83,159.08 0,48.82 -12.8,93.84 -38.41,135.07 -25.62,41.22 -64.63,74.24 -117.06,99.05 -52.43,24.81 -116.66,37.22 -192.69,37.22 -59.24,0 -117.47,-7.8 -174.69,-23.41 -57.23,-15.6 -105.85,-37.82 -145.87,-66.63l75.63 -148.87c32.02,24.01 69.03,42.62 111.06,55.83 42.02,13.21 85.04,19.82 129.06,19.82 48.83,0 87.25,-9.41 115.26,-28.22 28.01,-18.81 42.02,-45.42 42.02,-79.84 0,-68.84 -52.43,-103.25 -157.29,-103.25l-88.84 0 0 -128.47 172.9 -195.69 -357.79 0 0 -156.08 588.3 0 0 126.07 -189.69 216.1zm664.99 -28.82c53.63,0 102.46,10.8 146.47,32.42 44.03,21.61 78.84,52.22 104.46,91.84 25.61,39.62 38.41,85.44 38.41,137.46 0,56.04 -14,105.26 -42.02,147.68 -28.01,42.42 -66.23,75.04 -114.66,97.85 -48.42,22.81 -102.25,34.22 -161.48,34.22 -117.66,0 -209.71,-36.02 -276.13,-108.06 -66.43,-72.03 -99.65,-174.88 -99.65,-308.55 0,-95.24 18.01,-176.88 54.02,-244.92 36.02,-68.03 86.25,-119.66 150.68,-154.87 64.43,-35.22 139.08,-52.83 223.91,-52.83 44.82,0 87.84,4.99 129.07,15.01 41.22,10.01 76.24,24.2 105.05,42.62l-72.03 142.87c-41.61,-28.02 -94.04,-42.02 -157.28,-42.02 -71.24,0 -127.66,20.8 -169.29,62.43 -41.61,41.61 -64.03,102.05 -67.23,181.29 49.63,-49.63 118.86,-74.44 207.7,-74.44zm-39.62 396.21c41.62,0 75.44,-11.21 101.46,-33.63 26.01,-22.41 39.01,-52.82 39.01,-91.24 0,-38.41 -13.01,-69.03 -39.01,-91.84 -26.02,-22.82 -60.63,-34.22 -103.85,-34.22 -42.43,0 -77.25,11.8 -104.46,35.41 -27.21,23.61 -40.82,53.82 -40.82,90.64 0,36.82 13.21,66.83 39.61,90.05 26.42,23.21 62.44,34.83 108.06,34.83zm630.18 -393.8c118.45,0 205.91,23.61 262.32,70.84 56.44,47.23 84.64,110.46 84.64,189.69 0,51.23 -12.8,97.85 -38.41,139.87 -25.62,42.02 -64.63,75.63 -117.06,100.85 -52.43,25.21 -117.06,37.82 -193.9,37.82 -59.24,0 -117.46,-7.8 -174.69,-23.41 -57.22,-15.6 -105.84,-37.82 -145.87,-66.63l76.84 -148.87c32.02,24.01 68.84,42.62 110.46,55.83 41.61,13.21 84.44,19.82 128.46,19.82 48.82,0 87.25,-9.61 115.26,-28.82 28.01,-19.22 42.02,-46.02 42.02,-80.45 0,-36.01 -14.61,-63.22 -43.83,-81.63 -29.21,-18.41 -79.84,-27.62 -151.87,-27.62l-214.91 0 43.22 -473.04 512.66 0 0 156.08 -350.58 0 -13.21 159.68 68.44 0z"/>
  <path class="fil1" d="M789.9 1194.98l-254.86 -362.89c-31.51,2.25 -56.27,3.38 -74.27,3.38l-292 0 0 359.51 -168.78 0 0 -1181.47 460.78 0c153.03,0 273.43,36.57 361.19,109.71 87.76,73.13 131.65,173.84 131.65,302.11 0,91.14 -22.51,168.78 -67.51,232.92 -45.01,64.14 -109.14,110.84 -192.41,140.09l280.18 396.63 -183.97 0zm-334.19 -502.97c106.89,0 188.47,-23.06 244.73,-69.2 56.27,-46.13 84.39,-111.95 84.39,-197.48 0,-85.51 -28.13,-151.06 -84.39,-196.63 -56.26,-45.57 -137.84,-68.36 -244.73,-68.36l-286.93 0 0 531.66 286.93 0zm1415.42 60.76c0,12.38 -1.13,28.69 -3.38,48.94l-725.76 0c10.13,78.77 44.72,142.07 103.8,189.88 59.08,47.82 132.5,71.74 220.26,71.74 106.89,0 192.97,-36 258.24,-108.02l89.45 104.64c-40.51,47.27 -90.85,83.27 -151.06,108.03 -60.19,24.75 -127.42,37.13 -201.69,37.13 -94.52,0 -178.35,-19.41 -251.49,-58.23 -73.13,-38.82 -129.68,-93.12 -169.63,-162.88 -39.94,-69.76 -59.91,-148.53 -59.91,-236.29 0,-86.65 19.41,-164.84 58.23,-234.61 38.82,-69.76 92.27,-124.05 160.35,-162.87 68.07,-38.82 144.87,-58.23 230.39,-58.23 85.51,0 161.74,19.41 228.69,58.23 66.95,38.81 119.27,93.11 156.97,162.87 37.7,69.77 56.55,149.66 56.55,239.68zm-442.21 -324.06c-77.65,0 -142.62,23.62 -194.94,70.89 -52.33,47.26 -82.99,109.14 -91.99,185.65l573.86 0c-9,-75.38 -39.66,-136.99 -91.98,-184.82 -52.33,-47.81 -117.31,-71.73 -194.94,-71.73zm1003.59 -136.71c113.64,0 203.94,32.91 270.89,98.74 66.95,65.83 100.43,162.31 100.43,289.45l0 514.79 -162.03 0 0 -496.22c0,-86.64 -20.82,-151.9 -62.45,-195.79 -41.63,-43.88 -101.27,-65.83 -178.92,-65.83 -87.76,0 -156.97,25.61 -207.6,76.8 -50.63,51.2 -75.95,124.62 -75.95,220.26l0 460.78 -162.03 0 0 -894.54 155.28 0 0 135.02c32.63,-46.13 76.8,-81.57 132.5,-106.33 55.7,-24.75 118.99,-37.13 189.88,-37.13zm1033.97 850.66c-23.63,20.25 -52.89,35.72 -87.77,46.41 -34.88,10.7 -70.89,16.04 -108.02,16.04 -90.02,0 -159.78,-24.19 -209.29,-72.57 -49.51,-48.39 -74.27,-117.59 -74.27,-207.6l0 -491.16 -151.9 0 0 -133.33 151.9 0 0 -195.79 162.03 0 0 195.79 256.55 0 0 133.33 -256.55 0 0 484.4c0,48.39 12.09,85.52 36.29,111.4 24.19,25.89 58.79,38.82 103.8,38.82 49.51,0 91.7,-14.06 126.59,-42.19l50.63 116.46zm612.01 65.83c-119.27,0 -226.73,-26.16 -322.37,-78.48 -95.65,-52.33 -170.75,-124.62 -225.32,-216.89 -54.57,-92.26 -81.86,-195.22 -81.86,-308.87 0,-113.64 27.29,-216.6 81.86,-308.86 54.57,-92.27 129.68,-164.56 225.32,-216.89 95.64,-52.32 203.1,-78.48 322.37,-78.48 118.15,0 225.05,26.16 320.68,78.48 95.65,52.33 170.47,124.33 224.49,216.04 54,91.7 81.02,194.94 81.02,309.71 0,114.78 -27.01,218.02 -81.02,309.72 -54.01,91.7 -128.84,163.72 -224.49,216.04 -95.64,52.32 -202.53,78.48 -320.68,78.48zm0 -150.22c86.65,0 164.56,-19.7 233.77,-59.08 69.19,-39.38 123.78,-93.67 163.72,-162.87 39.95,-69.2 59.91,-146.56 59.91,-232.08 0,-85.51 -19.96,-162.87 -59.91,-232.07 -39.94,-69.19 -94.52,-123.49 -163.72,-162.87 -69.2,-39.39 -147.12,-59.08 -233.77,-59.08 -86.64,0 -165.12,19.69 -235.45,59.08 -70.32,39.38 -125.46,93.67 -165.4,162.87 -39.95,69.2 -59.92,146.56 -59.92,232.07 0,85.52 19.97,162.88 59.92,232.08 39.94,69.19 95.08,123.49 165.4,162.87 70.33,39.38 148.81,59.08 235.45,59.08zm1087.99 150.22c-88.89,0 -174.69,-13.78 -257.39,-41.35 -82.71,-27.57 -147.69,-63.29 -194.94,-107.18l62.45 -131.65c45.01,40.51 102.67,73.42 173.01,98.74 70.32,25.32 142.61,37.98 216.88,37.98 97.89,0 171.03,-16.6 219.41,-49.79 48.38,-33.19 72.58,-77.36 72.58,-132.5 0,-40.51 -13.23,-73.42 -39.67,-98.74 -26.44,-25.32 -59.07,-44.72 -97.89,-58.23 -38.82,-13.5 -93.67,-28.69 -164.56,-45.57 -88.89,-21.37 -160.63,-42.75 -215.2,-64.13 -54.57,-21.38 -101.27,-54.29 -140.09,-98.74 -38.81,-44.44 -58.23,-104.37 -58.23,-179.75 0,-63.01 16.6,-119.84 49.8,-170.47 33.19,-50.63 83.55,-91.14 151.06,-121.52 67.51,-30.38 151.34,-45.57 251.49,-45.57 69.76,0 138.4,9 205.91,27.01 67.52,18 125.46,43.88 173.84,77.64l-55.7 135.03c-49.51,-31.51 -102.39,-55.42 -158.65,-71.74 -56.26,-16.32 -111.4,-24.47 -165.4,-24.47 -95.65,0 -167.38,17.43 -215.2,52.32 -47.82,34.88 -71.74,79.89 -71.74,135.03 0,40.5 13.51,73.41 40.51,98.73 27,25.32 60.48,45.01 100.42,59.08 39.95,14.06 94.24,28.98 162.88,44.72 88.89,21.38 160.35,42.76 214.35,64.14 54.01,21.38 100.42,54.01 139.25,97.89 38.82,43.89 58.23,102.96 58.23,177.22 0,61.89 -16.87,118.43 -50.63,169.63 -33.76,51.2 -84.95,91.71 -153.59,121.52 -68.64,29.82 -153.03,44.73 -253.17,44.73z"/>
 </g>
</svg>
