<?xml version="1.0" encoding="UTF-8"?>
<!DOCTYPE svg PUBLIC "-//W3C//DTD SVG 1.1//EN" "http://www.w3.org/Graphics/SVG/1.1/DTD/svg11.dtd">
<!-- Creator: CorelDRAW -->
<svg xmlns="http://www.w3.org/2000/svg" xml:space="preserve" width="81.955mm" height="12.1516mm" version="1.1" style="shape-rendering:geometricPrecision; text-rendering:geometricPrecision; image-rendering:optimizeQuality; fill-rule:evenodd; clip-rule:evenodd"
viewBox="0 0 8001.39 1186.38"
 xmlns:xlink="http://www.w3.org/1999/xlink"
 xmlns:xodm="http://www.corel.com/coreldraw/odm/2003">
 <defs>
  <style type="text/css">
   <![CDATA[
    .fil1 {fill:#070050;fill-rule:nonzero}
    .fil0 {fill:url(#id0)}
   ]]>
  </style>
  <linearGradient id="id0" gradientUnits="userSpaceOnUse" x1="5614.16" y1="598.75" x2="8001.39" y2="598.75">
   <stop offset="0" style="stop-opacity:1; stop-color:#0055CC"/>
   <stop offset="1" style="stop-opacity:1; stop-color:#FF01F9"/>
  </linearGradient>
 </defs>
 <g id="Слой_x0020_1">
  <metadata id="CorelCorpID_0Corel-Layer"/>
  <path class="fil0" d="M5779.42 11.13l2056.71 0c90.89,0 165.26,74.37 165.26,165.26l0 844.73c0,90.89 -74.37,165.26 -165.26,165.26l-2056.71 0c-90.89,0 -165.26,-74.37 -165.26,-165.26l0 -844.73c0,-90.89 74.37,-165.26 165.26,-165.26zm459.32 511.19c72.13,11.76 127.39,38.61 165.81,80.56 38.42,41.94 57.62,93.88 57.62,155.82 0,47.82 -12.54,91.92 -37.63,132.3 -25.09,40.37 -63.3,72.72 -114.66,97.02 -51.35,24.3 -114.27,36.46 -188.74,36.46 -58.02,0 -115.06,-7.64 -171.11,-22.93 -56.06,-15.28 -103.68,-37.04 -142.88,-65.27l74.08 -145.82c31.36,23.52 67.62,41.75 108.78,54.68 41.16,12.94 83.3,19.41 126.41,19.41 47.83,0 85.46,-9.22 112.9,-27.64 27.43,-18.42 41.16,-44.49 41.16,-78.2 0,-67.42 -51.35,-101.14 -154.06,-101.14l-87.02 0 0 -125.84 169.35 -191.68 -350.46 0 0 -152.88 576.24 0 0 123.48 -185.8 211.67zm651.36 -28.23c52.54,0 100.36,10.58 143.47,31.76 43.12,21.17 77.23,51.15 102.32,89.96 25.08,38.81 37.63,83.69 37.63,134.64 0,54.89 -13.72,103.1 -41.16,144.65 -27.43,41.55 -64.88,73.51 -112.31,95.84 -47.43,22.34 -100.15,33.52 -158.17,33.52 -115.24,0 -205.41,-35.28 -270.47,-105.84 -65.07,-70.56 -97.61,-171.29 -97.61,-302.23 0,-93.29 17.64,-173.26 52.92,-239.9 35.28,-66.63 84.48,-117.21 147.59,-151.7 63.11,-34.5 136.23,-51.74 219.32,-51.74 43.9,0 86.04,4.89 126.42,14.7 40.37,9.8 74.68,23.7 102.89,41.75l-70.56 139.94c-40.76,-27.44 -92.12,-41.16 -154.05,-41.16 -69.78,0 -125.05,20.38 -165.82,61.15 -40.76,40.76 -62.72,99.96 -65.85,177.57 48.61,-48.61 116.43,-72.91 203.44,-72.91zm-38.81 388.09c40.77,0 73.9,-10.98 99.38,-32.94 25.47,-21.95 38.21,-51.73 38.21,-89.37 0,-37.63 -12.74,-67.62 -38.21,-89.96 -25.48,-22.35 -59.39,-33.52 -101.72,-33.52 -41.56,0 -75.66,11.56 -102.32,34.69 -26.65,23.13 -39.98,52.72 -39.98,88.79 0,36.07 12.94,65.46 38.8,88.2 25.88,22.74 61.16,34.11 105.84,34.11zm617.27 -385.73c116.03,0 201.69,23.13 256.95,69.39 55.28,46.26 82.91,108.2 82.91,185.8 0,50.18 -12.54,95.84 -37.63,137.01 -25.09,41.16 -63.3,74.08 -114.66,98.78 -51.35,24.69 -114.66,37.04 -189.92,37.04 -58.02,0 -115.05,-7.64 -171.11,-22.93 -56.05,-15.28 -103.67,-37.04 -142.88,-65.27l75.26 -145.82c31.36,23.52 67.42,41.75 108.2,54.68 40.76,12.94 82.71,19.41 125.83,19.41 47.82,0 85.46,-9.41 112.9,-28.23 27.43,-18.82 41.16,-45.08 41.16,-78.8 0,-35.27 -14.31,-61.93 -42.93,-79.96 -28.62,-18.03 -78.2,-27.05 -148.76,-27.05l-210.5 0 42.33 -463.34 502.15 0 0 152.88 -343.39 0 -12.94 156.41 67.03 0z"/>
  <path class="fil1" d="M773.71 1170.48l-249.63 -355.45c-30.86,2.21 -55.11,3.31 -72.75,3.31l-286.01 0 0 352.14 -165.32 0 0 -1157.26 451.33 0c149.89,0 267.82,35.82 353.79,107.46 85.96,71.63 128.95,170.28 128.95,295.92 0,89.27 -22.05,165.32 -66.13,228.15 -44.09,62.83 -106.91,108.57 -188.47,137.22l274.43 388.51 -180.2 0zm-327.34 -492.66c104.7,0 184.61,-22.59 239.71,-67.79 55.11,-45.18 82.66,-109.66 82.66,-193.43 0,-83.76 -27.55,-147.96 -82.66,-192.6 -55.1,-44.64 -135.01,-66.96 -239.71,-66.96l-281.05 0 0 520.77 281.05 0zm1386.41 59.52c0,12.13 -1.1,28.1 -3.31,47.94l-710.88 0c9.92,77.16 43.81,139.15 101.67,185.99 57.87,46.84 129.78,70.27 215.75,70.27 104.7,0 189.01,-35.26 252.94,-105.8l87.61 102.49c-39.68,46.3 -88.99,81.56 -147.96,105.81 -58.96,24.24 -124.81,36.37 -197.56,36.37 -92.58,0 -174.69,-19.01 -246.33,-57.04 -71.63,-38.03 -127.02,-91.21 -166.15,-159.54 -39.12,-68.33 -58.69,-145.48 -58.69,-231.45 0,-84.87 19.01,-161.46 57.04,-229.81 38.03,-68.33 90.38,-121.51 157.06,-159.53 66.67,-38.03 141.9,-57.04 225.67,-57.04 83.76,0 158.43,19.01 224.01,57.04 65.58,38.02 116.83,91.2 153.75,159.53 36.92,68.34 55.39,146.59 55.39,234.76zm-433.14 -317.42c-76.05,0 -139.7,23.14 -190.95,69.44 -51.26,46.29 -81.29,106.91 -90.1,181.85l562.09 0c-8.82,-73.84 -38.85,-134.18 -90.09,-181.03 -51.26,-46.83 -114.9,-70.26 -190.95,-70.26zm983.02 -133.91c111.31,0 199.76,32.24 265.33,96.71 65.58,64.48 98.37,158.98 98.37,283.52l0 504.24 -158.71 0 0 -486.05c0,-84.86 -20.4,-148.79 -61.17,-191.78 -40.78,-42.98 -99.19,-64.48 -175.25,-64.48 -85.96,0 -153.75,25.08 -203.35,75.23 -49.6,50.15 -74.4,122.07 -74.4,215.75l0 451.33 -158.71 0 0 -876.2 152.1 0 0 132.25c31.96,-45.18 75.23,-79.9 129.78,-104.15 54.56,-24.24 116.55,-36.37 185.99,-36.37zm1012.78 833.23c-23.15,19.84 -51.8,34.99 -85.97,45.46 -34.16,10.48 -69.44,15.71 -105.8,15.71 -88.17,0 -156.5,-23.7 -205,-71.09 -48.49,-47.4 -72.75,-115.18 -72.75,-203.35l0 -481.09 -148.79 0 0 -130.6 148.79 0 0 -191.78 158.71 0 0 191.78 251.29 0 0 130.6 -251.29 0 0 474.47c0,47.4 11.84,83.77 35.55,109.11 23.7,25.35 57.58,38.03 101.67,38.03 48.49,0 89.82,-13.78 123.99,-41.33l49.6 114.07zm599.47 64.48c-116.83,0 -222.08,-25.63 -315.76,-76.88 -93.69,-51.26 -167.25,-122.07 -220.71,-212.45 -53.45,-90.37 -80.18,-191.22 -80.18,-302.54 0,-111.31 26.73,-212.16 80.18,-302.53 53.45,-90.38 127.02,-161.19 220.71,-212.45 93.68,-51.25 198.93,-76.88 315.76,-76.88 115.73,0 220.43,25.63 314.11,76.88 93.69,51.26 166.98,121.79 219.89,211.62 52.9,89.82 79.35,190.95 79.35,303.36 0,112.42 -26.46,213.55 -79.35,303.37 -52.91,89.82 -126.2,160.36 -219.89,211.62 -93.68,51.25 -198.38,76.88 -314.11,76.88zm0 -147.14c84.87,0 161.19,-19.29 228.98,-57.87 67.78,-38.57 121.24,-91.75 160.36,-159.53 39.13,-67.79 58.69,-143.56 58.69,-227.33 0,-83.76 -19.56,-159.53 -58.69,-227.32 -39.12,-67.78 -92.58,-120.96 -160.36,-159.53 -67.79,-38.58 -144.1,-57.87 -228.98,-57.87 -84.86,0 -161.74,19.28 -230.63,57.87 -68.88,38.57 -122.89,91.75 -162.01,159.53 -39.13,67.79 -58.7,143.56 -58.7,227.32 0,83.77 19.57,159.54 58.7,227.33 39.12,67.78 93.13,120.96 162.01,159.53 68.89,38.57 145.76,57.87 230.63,57.87zm1065.69 147.14c-87.07,0 -171.11,-13.5 -252.11,-40.51 -81.01,-27 -144.66,-62 -190.95,-104.98l61.17 -128.95c44.09,39.68 100.57,71.92 169.46,96.71 68.88,24.8 139.69,37.2 212.44,37.2 95.88,0 167.53,-16.26 214.92,-48.77 47.39,-32.51 71.1,-75.77 71.1,-129.78 0,-39.68 -12.96,-71.92 -38.86,-96.71 -25.9,-24.8 -57.86,-43.81 -95.88,-57.04 -38.03,-13.22 -91.75,-28.1 -161.19,-44.64 -87.07,-20.93 -157.33,-41.87 -210.79,-62.82 -53.45,-20.94 -99.19,-53.18 -137.22,-96.71 -38.02,-43.53 -57.04,-102.23 -57.04,-176.07 0,-61.72 16.26,-117.38 48.78,-166.98 32.51,-49.6 81.83,-89.27 147.96,-119.03 66.13,-29.76 148.23,-44.64 246.33,-44.64 68.33,0 135.56,8.82 201.69,26.46 66.14,17.63 122.89,42.98 170.28,76.05l-54.56 132.26c-48.49,-30.86 -100.29,-54.28 -155.4,-70.27 -55.1,-15.98 -109.11,-23.97 -162.01,-23.97 -93.69,0 -163.95,17.08 -210.79,51.25 -46.84,34.16 -70.27,78.25 -70.27,132.26 0,39.67 13.23,71.91 39.68,96.7 26.45,24.8 59.24,44.09 98.36,57.87 39.13,13.78 92.31,28.38 159.54,43.81 87.07,20.94 157.06,41.88 209.96,62.83 52.91,20.94 98.36,52.91 136.39,95.88 38.03,42.99 57.04,100.85 57.04,173.59 0,60.62 -16.53,116.01 -49.6,166.15 -33.07,50.15 -83.21,89.83 -150.44,119.03 -67.23,29.21 -149.89,43.82 -247.98,43.82z"/>
 </g>
</svg>
