<?xml version="1.0" encoding="utf-8"?>
<svg xmlns="http://www.w3.org/2000/svg" baseProfile="basic" viewBox="0 0 48 48" width="96" height="96">
  <linearGradient id="cgmNG4gc0cJuQYJeUnYZIa" x1="37.277" x2="37.277" y1="2.542" y2="19.072" gradientUnits="userSpaceOnUse">
    <stop offset="0" stop-color="#ffcf54" />
    <stop offset=".261" stop-color="#fdcb4d" />
    <stop offset=".639" stop-color="#f7c13a" />
    <stop offset=".862" stop-color="#f0b421" />
    <stop offset=".982" stop-color="#eba600" />
  </linearGradient>
  <path fill="url(#cgmNG4gc0cJuQYJeUnYZIa)" d="M32.208,9C35.301,9,39,6,41,6c1,0,2,1,2,2c0,5-2.715,10.257-5,11C38,19,29.114,9,32.208,9z" />
  <linearGradient id="cgmNG4gc0cJuQYJeUnYZIb" x1="38.893" x2="35.419" y1="11.096" y2="7.622" gradientUnits="userSpaceOnUse">
    <stop offset="0" stop-color="#eba600" />
    <stop offset="1" stop-color="#c28200" />
  </linearGradient>
  <path fill="url(#cgmNG4gc0cJuQYJeUnYZIb)" d="M32.208,9c-1.115,0-0.671,1.302,0.35,2.964c0.841-0.149,1.913-0.403,2.796-0.821C38.415,9.691,39.217,6,41,6l0,0C39,6,35.302,9,32.208,9z" />
  <linearGradient id="cgmNG4gc0cJuQYJeUnYZIc" x1="-44.169" x2="-44.169" y1="2.542" y2="19.072" gradientTransform="matrix(-1 0 0 1 -33.446 0)" gradientUnits="userSpaceOnUse">
    <stop offset="0" stop-color="#ffcf54" />
    <stop offset=".261" stop-color="#fdcb4d" />
    <stop offset=".639" stop-color="#f7c13a" />
    <stop offset=".862" stop-color="#f0b421" />
    <stop offset=".982" stop-color="#eba600" />
  </linearGradient>
  <path fill="url(#cgmNG4gc0cJuQYJeUnYZIc)" d="M15.792,9C12.699,9,9,6,7,6C6,6,5,7,5,8c0,5,2.715,10.257,5,11C10,19,18.886,9,15.792,9z" />
  <linearGradient id="cgmNG4gc0cJuQYJeUnYZId" x1="19.236" x2="11.083" y1="15.172" y2="7.019" gradientUnits="userSpaceOnUse">
    <stop offset="0" stop-color="#eba600" />
    <stop offset="1" stop-color="#c28200" />
  </linearGradient>
  <path fill="url(#cgmNG4gc0cJuQYJeUnYZId)" d="M15.792,9c1.115,0,0.671,1.302-0.35,2.964c-0.841-0.149-1.913-0.403-2.796-0.821C9.585,9.691,8.783,6,7,6l0,0C9,6,12.698,9,15.792,9z" />
  <path fill="#eba600" d="M39,18c0-5.472-7-11-15-11S9,12.528,9,18c0,0-3,4-3,11c0,3,2,8,9,10c0,0,2.993,5,9,5s9-5,9-5c7-2,9-7,9-10C42,22,39,18,39,18z" />
  <linearGradient id="cgmNG4gc0cJuQYJeUnYZIe" x1="24" x2="24" y1="34.841" y2="46.284" gradientUnits="userSpaceOnUse">
    <stop offset=".264" stop-color="#f0b421" />
    <stop offset=".624" stop-color="#f7c13a" />
    <stop offset=".948" stop-color="#fdcb4d" />
  </linearGradient>
  <path fill="url(#cgmNG4gc0cJuQYJeUnYZIe)" d="M33,39l-9-4.124L15,39c0,0,2.624,5,9,5S33,39,33,39z" />
  <linearGradient id="cgmNG4gc0cJuQYJeUnYZIf" x1="32" x2="32" y1="24.324" y2="20.672" gradientUnits="userSpaceOnUse">
    <stop offset="0" stop-color="#2f2f2f" />
    <stop offset="1" stop-color="#242424" />
  </linearGradient>
  <path fill="url(#cgmNG4gc0cJuQYJeUnYZIf)" d="M34.5,21.644c0,1.878-1.546,2.711-2.791,2.711c-1.231,0-2.209-0.85-2.209-1.666c1.25-2.084,3.75-2.084,5-1.666V21.644z" />
  <linearGradient id="cgmNG4gc0cJuQYJeUnYZIg" x1="16" x2="16" y1="24.324" y2="20.672" gradientUnits="userSpaceOnUse">
    <stop offset="0" stop-color="#2f2f2f" />
    <stop offset="1" stop-color="#242424" />
  </linearGradient>
  <path fill="url(#cgmNG4gc0cJuQYJeUnYZIg)" d="M13.5,21.644c0,1.878,1.546,2.711,2.791,2.711c1.231,0,2.209-0.85,2.209-1.666c-1.25-2.084-3.75-2.084-5-1.666V21.644z" />
  <linearGradient id="cgmNG4gc0cJuQYJeUnYZIh" x1="24" x2="24" y1="8.876" y2="39.334" gradientUnits="userSpaceOnUse">
    <stop offset="0" stop-color="#f0b421" />
    <stop offset=".361" stop-color="#f7c13a" />
    <stop offset=".739" stop-color="#fdcb4d" />
    <stop offset="1" stop-color="#ffcf54" />
  </linearGradient>
  <path fill="url(#cgmNG4gc0cJuQYJeUnYZIh)" d="M33,39c-2,3-7.1,2.63-9-2.25C22.1,41.63,17,42,15,39s-0.41-5.094,2-9.32c1.09-1.912,5-6.68,5-20.59C22.65,9.04,23.32,9,24,9s1.35,0.04,2,0.09c0,13.91,3.91,18.678,5,20.59C33.41,33.906,35,36,33,39z" />
  <linearGradient id="cgmNG4gc0cJuQYJeUnYZIi" x1="24" x2="24" y1="-1167.035" y2="-1171.149" gradientTransform="matrix(1 0 0 -1 0 -1138)" gradientUnits="userSpaceOnUse">
    <stop offset="0" stop-color="#2f2f2f" />
    <stop offset="1" stop-color="#242424" />
  </linearGradient>
  <path fill="url(#cgmNG4gc0cJuQYJeUnYZIi)" d="M24,29c-2.885,0-5,0.677-5,1.676C19,31.07,21.57,33,24,33s5-1.93,5-2.324C29,29.677,26.885,29,24,29z" />
  <path fill="#5c2415" d="M15,16.5c0-0.828-0.672-1.5-1.5-1.5S12,15.672,12,16.5s0.672,1.5,1.5,1.5S15,17.328,15,16.5z M12,32c-0.552,0-1,0.448-1,1c0,0.552,0.448,1,1,1s1-0.448,1-1C13,32.448,12.552,32,12,32z M15,26c-0.552,0-1,0.448-1,1c0,0.552,0.448,1,1,1s1-0.448,1-1C16,26.448,15.552,26,15,26z M34.5,15c-0.828,0-1.5,0.672-1.5,1.5s0.672,1.5,1.5,1.5s1.5-0.672,1.5-1.5S35.328,15,34.5,15z M11,21.5c0-1.465-0.901-2.716-2.178-3.238c-0.473,0.724-1.784,2.988-2.439,6.539C6.736,24.921,7.107,25,7.5,25C9.433,25,11,23.433,11,21.5z M33,26c-0.552,0-1,0.448-1,1c0,0.552,0.448,1,1,1s1-0.448,1-1C34,26.448,33.552,26,33,26z M12,28.5c0-0.828-0.672-1.5-1.5-1.5S9,27.672,9,28.5S9.672,30,10.5,30S12,29.328,12,28.5z M18,11c-1.105,0-2,0.895-2,2c0,1.105,0.895,2,2,2s2-0.895,2-2C20,11.895,19.105,11,18,11z M30,11c-1.105,0-2,0.895-2,2c0,1.105,0.895,2,2,2s2-0.895,2-2C32,11.895,31.105,11,30,11z M37.5,27c-0.828,0-1.5,0.672-1.5,1.5s0.672,1.5,1.5,1.5s1.5-0.672,1.5-1.5S38.328,27,37.5,27z M39.178,18.262C37.901,18.784,37,20.035,37,21.5c0,1.933,1.567,3.5,3.5,3.5c0.393,0,0.764-0.079,1.117-0.199C40.962,21.25,39.651,18.987,39.178,18.262z M37,32c-0.552,0-1,0.448-1,1c0,0.552,0.448,1,1,1s1-0.448,1-1C38,32.448,37.552,32,37,32z M24,13c-0.552,0-1,0.448-1,1c0,0.552,0.448,1,1,1s1-0.448,1-1C25,13.448,24.552,13,24,13z M21.026,7.255C21.157,8.791,22.431,10,24,10s2.843-1.209,2.974-2.745C26.007,7.09,25.012,7,24,7S21.993,7.09,21.026,7.255z M29,17c-0.552,0-1,0.448-1,1c0,0.552,0.448,1,1,1s1-0.448,1-1C30,17.448,29.552,17,29,17z M18,17c-0.552,0-1,0.448-1,1c0,0.552,0.448,1,1,1s1-0.448,1-1C19,17.448,18.552,17,18,17z" />
</svg>