<?xml version="1.0" encoding="utf-8"?>
<svg xmlns="http://www.w3.org/2000/svg" x="0" y="0" viewBox="0 0 48 48" width="32" height="32">
  <path fill="#565b5e" d="M35,42h6c0.6,0,1-0.4,1-1v-5h-8v5C34,41.6,34.4,42,35,42z" />
  <path fill="#565b5e" d="M14,41v-5H6v5c0,0.6,0.4,1,1,1h6C13.6,42,14,41.6,14,41z" />
  <linearGradient id="SVGID_1_" x1="3" x2="45" y1="25.5" y2="25.5" gradientTransform="matrix(.9992 -.03955 -.03955 -.9992 1.027 48.93)" gradientUnits="userSpaceOnUse">
    <stop offset="0" stop-color="#42a3f2" />
    <stop offset="1" stop-color="#42a4eb" />
  </linearGradient>
  <path fill="url(#SVGID_1_)" d="M41.8,18.3l-2.6-8.9c-0.5-1.8-2.2-2.9-4-2.9L11.5,7.5c-1.8,0.1-3.4,1.4-3.8,3.2l-1.9,9.1l-1.7,2.5c-0.7,1.1-1.1,2.3-1.1,3.6l0.4,11c0,1.1,1,2,2.1,1.9l38-1.5c1.1,0,2-1,1.9-2.1l-0.4-11c-0.1-1.3-0.5-2.5-1.3-3.5L41.8,18.3z" />
  <circle cx="38.6" cy="25.9" r="2.5" fill="#fff" />
  <circle cx="9.7" cy="27.1" r="2.5" fill="#fff" />
  <linearGradient id="SVGID_00000088123830800904956890000008709786529808396946_" x1="15" x2="33" y1="16.5" y2="16.5" gradientTransform="matrix(.9992 -.03955 -.03955 -.9992 1.027 48.93)" gradientUnits="userSpaceOnUse">
    <stop offset="0" stop-color="#3079d6" />
    <stop offset="1" stop-color="#297cd2" />
  </linearGradient>
  <path fill="url(#SVGID_00000088123830800904956890000008709786529808396946_)" d="M15.3,29.4l1.6,3.7c0.3,0.7,1.1,1.2,1.9,1.2l11.3-0.4c0.8,0,1.5-0.6,1.8-1.3l1.3-3.8L15.3,29.4z" />
  <linearGradient id="SVGID_00000161616732769801938020000014654717770812700040_" x1="42" x2="47.679" y1="29.893" y2="29.893" gradientTransform="matrix(.9992 -.03955 -.03955 -.9992 1.027 48.93)" gradientUnits="userSpaceOnUse">
    <stop offset="0" stop-color="#42a3f2" />
    <stop offset="1" stop-color="#42a4eb" />
  </linearGradient>
  <path fill="url(#SVGID_00000161616732769801938020000014654717770812700040_)" d="M45.7,19.1l-3.8,0.1l-0.1-1.9c0-1,0.8-1.9,1.8-2l2.8-0.1c0.5,0,1,0.4,1,0.9l0,0.9C47.5,18.2,46.7,19.1,45.7,19.1z" />
  <linearGradient id="SVGID_00000028322454873100838850000014755744380303881865_" x1=".378" x2="6" y1="29.874" y2="29.874" gradientTransform="matrix(.9992 -.03955 -.03955 -.9992 1.027 48.93)" gradientUnits="userSpaceOnUse">
    <stop offset="0" stop-color="#42a3f2" />
    <stop offset="1" stop-color="#42a4eb" />
  </linearGradient>
  <path fill="url(#SVGID_00000028322454873100838850000014755744380303881865_)" d="M2.2,20.9l3.7-0.1l-0.1-1.9c0-1-0.9-1.8-1.9-1.8l-2.8,0.1c-0.5,0-0.9,0.5-0.9,1l0,0.9C0.3,20.1,1.1,20.9,2.2,20.9z" />
  <linearGradient id="SVGID_00000005266672831379809250000004390122982081263509_" x1="7.75" x2="40.25" y1="33.5" y2="33.5" gradientTransform="matrix(.9992 -.03955 -.03955 -.9992 1.027 48.93)" gradientUnits="userSpaceOnUse">
    <stop offset="0" stop-color="#3079d6" />
    <stop offset="1" stop-color="#297cd2" />
  </linearGradient>
  <path fill="url(#SVGID_00000005266672831379809250000004390122982081263509_)" d="M40.1,19.4L40,19.2l-0.1-0.4L37.3,10c-0.3-0.9-1.1-1.5-2-1.4L11.6,9.5c-0.9,0-1.7,0.7-1.9,1.6l-1.9,9.1l-0.1,0.4l-0.1,0.1L40.1,19.4z" />
</svg>