<svg xmlns="http://www.w3.org/2000/svg" viewBox="0 0 24 24">
	<g fill="none">
		<path fill="url(#SVGctHldbmD)" d="M17.753 14a2.25 2.25 0 0 1 2.25 2.25v.905A3.75 3.75 0 0 1 18.696 20C17.13 21.344 14.89 22.001 12 22.001s-5.128-.657-6.691-2a3.75 3.75 0 0 1-1.305-2.844v-.907A2.25 2.25 0 0 1 6.254 14z" />
		<path fill="url(#SVG2f7L8cLU)" d="M17.753 14a2.25 2.25 0 0 1 2.25 2.25v.905A3.75 3.75 0 0 1 18.696 20C17.13 21.344 14.89 22.001 12 22.001s-5.128-.657-6.691-2a3.75 3.75 0 0 1-1.305-2.844v-.907A2.25 2.25 0 0 1 6.254 14z" />
		<path fill="url(#SVGzYQlxdrM)" d="m12 2.5l-.102.007a.75.75 0 0 0-.648.743L11.243 5h1.5l.007-1.75l-.007-.102A.75.75 0 0 0 12 2.5" />
		<path fill="url(#SVG09zmnnkt)" d="M18 6.25A2.25 2.25 0 0 0 15.75 4h-7.5A2.25 2.25 0 0 0 6 6.25v3.5A2.25 2.25 0 0 0 8.25 12h7.5A2.25 2.25 0 0 0 18 9.75z" />
		<path fill="url(#SVGdEN8KqCk)" d="M14.242 6.5a1.25 1.25 0 1 0 0 2.499a1.25 1.25 0 0 0 0-2.499" />
		<path fill="url(#SVGcuqcQbGJ)" d="M9.75 6.5a1.25 1.25 0 1 0 0 2.499a1.25 1.25 0 0 0 0-2.499" />
		<defs>
			<linearGradient id="SVG2f7L8cLU" x1="12.003" x2="15.623" y1="13.047" y2="26.573" gradientUnits="userSpaceOnUse">
				<stop stop-color="#885edb" stop-opacity="0" />
				<stop offset="1" stop-color="#e362f8" />
			</linearGradient>
			<linearGradient id="SVGzYQlxdrM" x1="11.209" x2="12.984" y1="2" y2="3.871" gradientUnits="userSpaceOnUse">
				<stop stop-color="#8b52f4" />
				<stop offset="1" stop-color="#3d35b1" />
			</linearGradient>
			<linearGradient id="SVGdEN8KqCk" x1="13.585" x2="15.479" y1="6.596" y2="9.865" gradientUnits="userSpaceOnUse">
				<stop stop-color="#fdfdfd" />
				<stop offset="1" stop-color="#f9dcfa" />
			</linearGradient>
			<linearGradient id="SVGcuqcQbGJ" x1="9.092" x2="10.986" y1="6.596" y2="9.865" gradientUnits="userSpaceOnUse">
				<stop stop-color="#fdfdfd" />
				<stop offset="1" stop-color="#f9dcfa" />
			</linearGradient>
			<radialGradient id="SVGctHldbmD" cx="0" cy="0" r="1" gradientTransform="rotate(30.408 -21.072 6.342)scale(22.2527 35.445)" gradientUnits="userSpaceOnUse">
				<stop stop-color="#f08af4" />
				<stop offset=".535" stop-color="#9c6cfe" />
				<stop offset="1" stop-color="#4e44db" />
			</radialGradient>
			<radialGradient id="SVG09zmnnkt" cx="0" cy="0" r="1" gradientTransform="rotate(37.695 .063 2.922)scale(19.9992 37.7806)" gradientUnits="userSpaceOnUse">
				<stop stop-color="#f08af4" />
				<stop offset=".535" stop-color="#9c6cfe" />
				<stop offset="1" stop-color="#4e44db" />
			</radialGradient>
		</defs>
	</g>
</svg>
