<svg xmlns="http://www.w3.org/2000/svg" viewBox="0 0 24 24">
	<g fill="none">
		<path fill="url(#SVG3eth4W1S)" d="M6.25 3A3.25 3.25 0 0 0 3 6.25v11.5A3.25 3.25 0 0 0 6.25 21h11.5A3.25 3.25 0 0 0 21 17.75V6.25A3.25 3.25 0 0 0 17.75 3z" />
		<path fill="url(#SVGtSUABdlb)" d="m17.28 9.28l-6.754 6.747a.75.75 0 0 1-1.06 0L6.72 13.28a.75.75 0 0 1 1.06-1.06l2.217 2.216l6.223-6.217a.75.75 0 1 1 1.06 1.062" />
		<defs>
			<linearGradient id="SVG3eth4W1S" x1="3.643" x2="16.065" y1="6.375" y2="19.281" gradientUnits="userSpaceOnUse">
				<stop stop-color="#36dff1" />
				<stop offset="1" stop-color="#2764e7" />
			</linearGradient>
			<linearGradient id="SVGtSUABdlb" x1="8.616" x2="13.467" y1="8.634" y2="24.313" gradientUnits="userSpaceOnUse">
				<stop stop-color="#fff" />
				<stop offset="1" stop-color="#b3e0ff" />
			</linearGradient>
		</defs>
	</g>
</svg>
