<svg xmlns="http://www.w3.org/2000/svg" viewBox="0 0 24 24">
	<g fill="none">
		<path fill="url(#SVGoqKxgbbE)" fill-rule="evenodd" d="M14 4.25V22H3.75a.75.75 0 0 1-.75-.75v-17A2.25 2.25 0 0 1 5.25 2h6.5A2.25 2.25 0 0 1 14 4.25" clip-rule="evenodd" />
		<path fill="url(#SVG7jTG4bQl)" fill-opacity=".2" fill-rule="evenodd" d="M14 4.25V22H3.75a.75.75 0 0 1-.75-.75v-17A2.25 2.25 0 0 1 5.25 2h6.5A2.25 2.25 0 0 1 14 4.25" clip-rule="evenodd" />
		<path fill="url(#SVG0nxXEdEw)" fill-rule="evenodd" d="M14 4.25V22H3.75a.75.75 0 0 1-.75-.75v-17A2.25 2.25 0 0 1 5.25 2h6.5A2.25 2.25 0 0 1 14 4.25" clip-rule="evenodd" />
		<path fill="url(#SVGeMrtmbHT)" d="M8 6a1 1 0 1 1-2 0a1 1 0 0 1 2 0" />
		<path fill="url(#SVGeMrtmbHT)" d="M8 12a1 1 0 1 1-2 0a1 1 0 0 1 2 0" />
		<path fill="url(#SVGeMrtmbHT)" d="M8 9a1 1 0 1 1-2 0a1 1 0 0 1 2 0" />
		<path fill="url(#SVGeMrtmbHT)" d="M8 15a1 1 0 1 1-2 0a1 1 0 0 1 2 0" />
		<path fill="url(#SVGeMrtmbHT)" d="M8 18a1 1 0 1 1-2 0a1 1 0 0 1 2 0" />
		<path fill="url(#SVGkDIjtb1U)" d="M18.75 5A2.25 2.25 0 0 1 21 7.25v14a.75.75 0 0 1-.75.75h-9.247A1 1 0 0 1 10 21V7.25A2.25 2.25 0 0 1 12.25 5z" />
		<path fill="url(#SVGbIcYUb6D)" d="M13 19a1 1 0 0 1 1-1h3a1 1 0 0 1 1 1v3h-5z" />
		<path fill="url(#SVGcRFDOepZ)" d="M15 9a1 1 0 1 1-2 0a1 1 0 0 1 2 0" />
		<path fill="url(#SVGcRFDOepZ)" d="M15 12a1 1 0 1 1-2 0a1 1 0 0 1 2 0" />
		<path fill="url(#SVGcRFDOepZ)" d="M15 15a1 1 0 1 1-2 0a1 1 0 0 1 2 0" />
		<path fill="url(#SVGcRFDOepZ)" d="M18 9a1 1 0 1 1-2 0a1 1 0 0 1 2 0" />
		<path fill="url(#SVGcRFDOepZ)" d="M18 12a1 1 0 1 1-2 0a1 1 0 0 1 2 0" />
		<path fill="url(#SVGcRFDOepZ)" d="M18 15a1 1 0 1 1-2 0a1 1 0 0 1 2 0" />
		<defs>
			<linearGradient id="SVGoqKxgbbE" x1="3.393" x2="15.293" y1="5.75" y2="12.55" gradientUnits="userSpaceOnUse">
				<stop stop-color="#a3a3ff" />
				<stop offset="1" stop-color="#5750e2" />
			</linearGradient>
			<linearGradient id="SVG7jTG4bQl" x1="6.85" x2="10.7" y1="4.5" y2="4.5" gradientUnits="userSpaceOnUse">
				<stop stop-color="#30116e" stop-opacity="0" />
				<stop offset="1" stop-color="#30116e" />
			</linearGradient>
			<linearGradient id="SVG0nxXEdEw" x1="10.838" x2="10.66" y1="8.094" y2="2.001" gradientUnits="userSpaceOnUse">
				<stop stop-color="#a3a3ff" stop-opacity="0" />
				<stop offset="1" stop-color="#a3a3ff" />
			</linearGradient>
			<linearGradient id="SVGeMrtmbHT" x1="5.333" x2="8" y1="4.333" y2="19.667" gradientUnits="userSpaceOnUse">
				<stop stop-color="#fdfdfd" />
				<stop offset="1" stop-color="#d1d1ff" />
			</linearGradient>
			<linearGradient id="SVGkDIjtb1U" x1="10" x2="25.941" y1="5.531" y2="18.736" gradientUnits="userSpaceOnUse">
				<stop stop-color="#3bd5ff" />
				<stop offset="1" stop-color="#2764e7" />
			</linearGradient>
			<linearGradient id="SVGbIcYUb6D" x1="13.804" x2="16.474" y1="18.75" y2="22.218" gradientUnits="userSpaceOnUse">
				<stop stop-color="#0067bf" />
				<stop offset="1" stop-color="#003580" />
			</linearGradient>
			<linearGradient id="SVGcRFDOepZ" x1="14.5" x2="18.706" y1="7.111" y2="16.575" gradientUnits="userSpaceOnUse">
				<stop stop-color="#fdfdfd" />
				<stop offset="1" stop-color="#b3e0ff" />
			</linearGradient>
		</defs>
	</g>
</svg>
