<svg xmlns="http://www.w3.org/2000/svg" viewBox="0 0 32 32">
	<g fill="none">
		<path fill="url(#SVGo93bJbVN)" d="M4.356 20.729L19.69 5.396l6.914 6.914L11.27 27.643l-5.579-1.336z" />
		<path fill="url(#SVGIWCkBdHO)" d="m4.357 20.73l.497-.5s.275 2.396 2.397 4.518s4.517 2.397 4.517 2.397l-.497.498a3.7 3.7 0 0 1-1.841 1.002l-6.22 1.333a1 1 0 0 1-1.188-1.187l1.333-6.221a3.7 3.7 0 0 1 1.002-1.84" />
		<path fill="url(#SVGeBihyeOm)" d="M21.65 3.434a4.89 4.89 0 0 1 6.915 6.914l-3.73 3.73l-6.914-6.915z" />
		<path fill="url(#SVGipvmcbPb)" d="m24.32 14.593l2.83-2.83s-2.398-.278-4.517-2.397c-2.12-2.12-2.397-4.518-2.397-4.518l-2.83 2.83s.276 2.4 2.396 4.519s4.518 2.396 4.518 2.396" />
		<defs>
			<linearGradient id="SVGo93bJbVN" x1="17.289" x2="20.469" y1="11.417" y2="19.854" gradientUnits="userSpaceOnUse">
				<stop stop-color="#ffa43d" />
				<stop offset="1" stop-color="#fb5937" />
			</linearGradient>
			<linearGradient id="SVGIWCkBdHO" x1=".094" x2="7.473" y1="23.098" y2="30.333" gradientUnits="userSpaceOnUse">
				<stop offset=".255" stop-color="#ffd394" />
				<stop offset="1" stop-color="#ff921f" />
			</linearGradient>
			<linearGradient id="SVGeBihyeOm" x1="27.449" x2="23.03" y1="4.494" y2="8.717" gradientUnits="userSpaceOnUse">
				<stop stop-color="#f97dbd" />
				<stop offset="1" stop-color="#dd3ce2" />
			</linearGradient>
			<linearGradient id="SVGipvmcbPb" x1="22.46" x2="15.56" y1="11.523" y2="8.595" gradientUnits="userSpaceOnUse">
				<stop stop-color="#ff921f" />
				<stop offset="1" stop-color="#ffe994" />
			</linearGradient>
		</defs>
	</g>
</svg>
