<svg xmlns="http://www.w3.org/2000/svg" viewBox="0 0 32 32">
	<g fill="none">
		<path fill="url(#SVGUSywGbjV)" d="m22.268 10.178l-1.522-.864l-5.785 10.195l1.522.863z" />
		<path fill="url(#SVGDpcMicmY)" d="m7.876 25.215l3.243 3.51l4.875-1.975l4.569 1.335l3.755-2.434l1.182.712c-.051-2.907-1.817-5.723-4.937-7.258c-4.68-2.31-10.647-.88-13.304 3.189c-.926 1.416-1.32 2.95-1.251 4.456l1.868-1.55z" />
		<path fill="url(#SVGeDl0rdOK)" d="M24.031 24.55a1.13 1.13 0 0 0-1.074.781v.002c-1.042 3.174-5.115 3.132-6.151.152a1.14 1.14 0 0 0-1.073-.76c-.498 0-.901.318-1.056.76v.001c-1.02 2.98-5.093 3.039-6.152-.12a1.12 1.12 0 0 0-1.114-.763c-.512.002-.925.392-1.055.843l-.002.01c-.283 1.164-.804 1.766-1.384 2.11l-.002.002c-.607.367-1.427.522-2.349.539A1.124 1.124 0 0 0 1.5 29.229c0 .608.513 1.121 1.122 1.121c1.14 0 2.411-.195 3.51-.855a4.85 4.85 0 0 0 1.445-1.334c2.177 2.434 6.064 2.415 8.173-.067c2.151 2.52 6.148 2.467 8.28-.114a6.35 6.35 0 0 0 4.848 2.3c.63 0 1.122-.515 1.122-1.121c0-.609-.513-1.122-1.122-1.122c-1.625 0-3.233-1.053-3.772-2.704v-.002a1.13 1.13 0 0 0-1.075-.78" />
		<path fill="url(#SVGPDGSFecW)" d="M27.125 16.509a1 1 0 0 0 1.361-.373l.258-.448c2.502-4.41 1.05-9.957-3.378-12.477c-4.427-2.52-10.061-.98-12.564 3.43l-.377.659a.75.75 0 0 0 .28 1.025z" />
		<path fill="url(#SVGchT7J0OX)" d="M25.251 3.15c-2.058.67-6.038 3.479-8.251 7.609l5.971 3.382c2.403-4.023 2.764-8.88 2.28-10.991" />
		<defs>
			<linearGradient id="SVGUSywGbjV" x1="16.439" x2="24.23" y1="17.683" y2="9.558" gradientUnits="userSpaceOnUse">
				<stop stop-color="#cd3e1d" />
				<stop offset="1" stop-color="#592a00" />
			</linearGradient>
			<linearGradient id="SVGDpcMicmY" x1="15.75" x2="15.75" y1="25.546" y2="18" gradientUnits="userSpaceOnUse">
				<stop stop-color="#ffc7a3" />
				<stop offset="1" stop-color="#ffa43d" />
			</linearGradient>
			<linearGradient id="SVGeDl0rdOK" x1="15.768" x2="15.768" y1="29.219" y2="24.81" gradientUnits="userSpaceOnUse">
				<stop offset=".061" stop-color="#0fafff" />
				<stop offset="1" stop-color="#0078d4" />
			</linearGradient>
			<linearGradient id="SVGPDGSFecW" x1="28.131" x2="15.007" y1="19.45" y2="1.951" gradientUnits="userSpaceOnUse">
				<stop stop-color="#aa1d2d" />
				<stop offset="1" stop-color="#fb6f7b" />
			</linearGradient>
			<linearGradient id="SVGchT7J0OX" x1="25.073" x2="17.683" y1="9.832" y2="7.37" gradientUnits="userSpaceOnUse">
				<stop stop-color="#fecbe6" />
				<stop offset="1" stop-color="#fdafd9" />
			</linearGradient>
		</defs>
	</g>
</svg>
