<svg xmlns="http://www.w3.org/2000/svg" viewBox="0 0 32 32">
	<g fill="none">
		<path fill="url(#SVGjc3ufb1q)" d="M6 29a1 1 0 0 1-1-1v-9h2v9a1 1 0 0 1-1 1" />
		<path fill="url(#SVGDiak0brK)" d="M5 4.5A1.5 1.5 0 0 1 6.5 3H28a1 1 0 0 1 .8 1.6L23.25 12l5.55 7.4A1 1 0 0 1 28 21H6.5A1.5 1.5 0 0 1 5 19.5z" />
		<defs>
			<linearGradient id="SVGjc3ufb1q" x1="7" x2="6.235" y1="32.214" y2="19.363" gradientUnits="userSpaceOnUse">
				<stop stop-color="#889096" />
				<stop offset="1" stop-color="#63686e" />
			</linearGradient>
			<linearGradient id="SVGDiak0brK" x1="-.25" x2="9.688" y1="-2.143" y2="22.178" gradientUnits="userSpaceOnUse">
				<stop stop-color="#f97dbd" />
				<stop offset="1" stop-color="#d7257d" />
			</linearGradient>
		</defs>
	</g>
</svg>
