<svg xmlns="http://www.w3.org/2000/svg" viewBox="0 0 24 24">
	<g fill="none">
		<path fill="#70777d" d="M11 4.5h1.5v2H11z" />
		<path fill="#f83f54" d="M11 2.5a.5.5 0 0 1 .5-.5h4a.5.5 0 0 1 .5.5v2a.5.5 0 0 1-.5.5h-4a.5.5 0 0 1-.5-.5z" />
		<path fill="url(#SVGDJptbWZQ)" d="M5 13a7 7 0 0 1 14 0v.5H5z" />
		<path fill="url(#SVGLDCxLdNP)" d="M5 13a7 7 0 0 1 14 0v.5H5z" />
		<path fill="url(#SVGkd9qNdZB)" d="M2 15.5A2.5 2.5 0 0 1 4.5 13h15a2.5 2.5 0 0 1 2.5 2.5v5.75a.75.75 0 0 1-.75.75H2.75a.75.75 0 0 1-.75-.75z" />
		<path fill="url(#SVGFVuSQbsj)" fill-opacity=".6" d="M2 15.5A2.5 2.5 0 0 1 4.5 13h15a2.5 2.5 0 0 1 2.5 2.5v5.75a.75.75 0 0 1-.75.75H2.75a.75.75 0 0 1-.75-.75z" />
		<path fill="#55595e" d="M9.5 17.75a.75.75 0 0 1 .75-.75h3.5a.75.75 0 0 1 .75.75V22h-5z" />
		<path fill="#63686e" d="M5.75 15.5a.75.75 0 0 1 .75.75v2.5a.75.75 0 0 1-1.5 0v-2.5a.75.75 0 0 1 .75-.75m13.25.75a.75.75 0 0 0-1.5 0v2.5a.75.75 0 0 0 1.5 0z" />
		<path fill="#ca6407" d="M16 9.75a.75.75 0 0 0-1.5 0v1.5a.75.75 0 0 0 1.5 0zM12 9a.75.75 0 0 1 .75.75v1.5a.75.75 0 0 1-1.5 0v-1.5A.75.75 0 0 1 12 9m-2.5.75a.75.75 0 0 0-1.5 0v1.5a.75.75 0 0 0 1.5 0z" />
		<defs>
			<radialGradient id="SVGLDCxLdNP" cx="0" cy="0" r="1" gradientTransform="matrix(0 4.03846 -7.47142 0 16.9 7.154)" gradientUnits="userSpaceOnUse">
				<stop stop-color="#ffd638" />
				<stop offset="1" stop-color="#ffd638" stop-opacity="0" />
			</radialGradient>
			<radialGradient id="SVGFVuSQbsj" cx="0" cy="0" r="1" gradientTransform="rotate(96.929 4.617 15.69)scale(5.1807 11.3238)" gradientUnits="userSpaceOnUse">
				<stop stop-color="#ffb357" />
				<stop offset="1" stop-color="#ffb357" stop-opacity="0" />
			</radialGradient>
			<linearGradient id="SVGDJptbWZQ" x1="12" x2="12" y1="6" y2="13.5" gradientUnits="userSpaceOnUse">
				<stop stop-color="#ffc205" />
				<stop offset=".735" stop-color="#ffa43d" />
				<stop offset="1" stop-color="#e67505" />
			</linearGradient>
			<linearGradient id="SVGkd9qNdZB" x1="9.813" x2="19.143" y1="13" y2="22.541" gradientUnits="userSpaceOnUse">
				<stop stop-color="#aab3bd" />
				<stop offset="1" stop-color="#889096" />
			</linearGradient>
		</defs>
	</g>
</svg>
