<?xml version="1.0" encoding="utf-8"?>
<svg xmlns="http://www.w3.org/2000/svg" baseProfile="basic" viewBox="0 0 48 48" width="32" height="32">
  <linearGradient id="yDQNKZFA3TMCJccu8xKJ7a" x1="3642.526" x2="3664.282" y1="10031.667" y2="10031.667" gradientTransform="matrix(.8034 .5954 -.8397 .6223 5517.696 -8385.664)" gradientUnits="userSpaceOnUse">
    <stop offset="0" stop-color="#21ad64" />
    <stop offset="1" stop-color="#088242" />
  </linearGradient>
  <path fill="url(#yDQNKZFA3TMCJccu8xKJ7a)" d="M31.003,26.003c-7.732,0-14,4.556-14,9.249v1 c0,0.967,0.784,1.749,1.751,1.749h24.499c0.965,0,1.749-0.783,1.749-1.749v-1c0-4.009-4.225-8.041-10.375-9.097 C33.575,25.975,32.132,26.003,31.003,26.003z" />
  <path fill="#7a4107" d="M35.003,27.803c0,1.517-1.6,3.2-4,3.2c-2.4,0-4-1.683-4-3.2 c0-2.111,0-5.628,0-5.628h8C35.003,22.175,35.003,25.692,35.003,27.803z" />
  <path fill="#7a4107" d="M38.645,16.003h-1.132v4h1.281 c0.441,0,0.819-0.312,0.892-0.74l0.296-1.703C40.123,16.745,39.485,16.003,38.645,16.003z" />
  <path fill="#7a4107" d="M23.36,16.003h1.132v4h-1.283 c-0.44,0-0.817-0.312-0.892-0.74l-0.295-1.703C21.881,16.745,22.52,16.003,23.36,16.003z" />
  <radialGradient id="yDQNKZFA3TMCJccu8xKJ7b" cx="-6.001" cy="15859.165" r="6.09" gradientTransform="matrix(1.3333 0 0 1.4014 39.004 -22208.129)" gradientUnits="userSpaceOnUse">
    <stop offset="0" stop-color="#9b6127" />
    <stop offset=".261" stop-color="#995e23" />
    <stop offset=".639" stop-color="#935517" />
    <stop offset="1" stop-color="#8c4b08" />
  </radialGradient>
  <path fill="url(#yDQNKZFA3TMCJccu8xKJ7b)" d="M31.003,7.871c-3.455,0-7-0.476-7,6.991 c0,0.148-1,0.588-1,1.14c0,0.692,1,1.592,1,2.445c0,1.219,0,2.341,0,2.624c0,2.665,4.2,5.932,7,5.932s7-3.267,7-5.932 c0-0.285,0-1.408,0-2.624c0-0.856,1-1.757,1-2.445c0-0.513-1-0.999-1-1.14C38.003,7.395,34.456,7.871,31.003,7.871z" />
  <linearGradient id="yDQNKZFA3TMCJccu8xKJ7c" x1="64.412" x2="77.993" y1="505.09" y2="505.09" gradientTransform="rotate(90 297.428 238.664)" gradientUnits="userSpaceOnUse">
    <stop offset="0" stop-color="#454545" />
    <stop offset="1" stop-color="#212121" />
  </linearGradient>
  <path fill="url(#yDQNKZFA3TMCJccu8xKJ7c)" fill-rule="evenodd" d="M22.001,15.001 c0-0.849,0.267-0.637,0.719-1.285c-0.452-0.485-0.719-1.077-0.719-1.715c0-1.119,0.82-2.096,2.033-2.612 c-0.021-0.127-0.033-0.256-0.033-0.388c0-1.604,1.684-2.915,3.797-2.996c0.729-0.609,1.895-1.004,3.204-1.004 c1.311,0,2.476,0.395,3.205,1.004c2.113,0.081,3.795,1.392,3.795,2.996c0,0.132-0.011,0.261-0.032,0.388 c1.213,0.516,2.032,1.493,2.032,2.612c0,0.637-0.265,1.229-0.717,1.715c0.452,0.648,0.717,0.436,0.717,1.285 c0,1.48-0.805,2.773-2,3.465v-3.464l-2-3.001c-1.601,0.597-2.987,1-5,1s-3.399-0.403-5-1l-2.001,3.001L24,18.467 C22.805,17.776,22.001,16.483,22.001,15.001z" clip-rule="evenodd" />
  <g>
    <radialGradient id="yDQNKZFA3TMCJccu8xKJ7d" cx="-6.001" cy="16245.75" r="8.802" gradientTransform="translate(24.788 -21638.445) scale(1.3333)" gradientUnits="userSpaceOnUse">
      <stop offset="0" stop-color="#261003" />
      <stop offset=".376" stop-color="#261003" />
      <stop offset=".68" stop-color="#431d06" />
      <stop offset="1" stop-color="#662c09" />
    </radialGradient>
    <path fill="url(#yDQNKZFA3TMCJccu8xKJ7d)" d="M16.999,11.833c-8.815,0-11,14.231-11,14.231 c0,2.535,1.177,4.755,3.64,5.343c2.111,0.504,4.767,0.971,7.36,0.971c2.592,0,5.247-0.467,7.359-0.971 c2.463-0.588,3.64-2.809,3.64-5.343C27.997,26.064,25.812,11.833,16.999,11.833z" />
    <linearGradient id="yDQNKZFA3TMCJccu8xKJ7e" x1="-83.474" x2="-79.675" y1="16228.39" y2="16241.452" gradientTransform="translate(97.584 -16198.831)" gradientUnits="userSpaceOnUse">
      <stop offset="0" stop-color="#33bef0" />
      <stop offset="1" stop-color="#0a85d9" />
    </linearGradient>
    <path fill="url(#yDQNKZFA3TMCJccu8xKJ7e)" d="M16.999,30.003c-7.732,0-14,4.556-14,9.249v1 c0,0.965,0.784,1.749,1.749,1.749h24.5c0.965,0,1.749-0.784,1.749-1.749v-1C30.997,34.559,24.729,30.003,16.999,30.003z" />
    <path fill="#d6a321" d="M20.997,32.803c0,1.517-1.6,3.2-3.999,3.2 c-2.4,0-4-1.683-4-3.2c0-2.111,0-4.628,0-4.628h7.999C20.997,28.175,20.997,30.692,20.997,32.803z" />
    <radialGradient id="yDQNKZFA3TMCJccu8xKJ7f" cx="-15727.998" cy="771.409" r="6.428" gradientTransform="matrix(-1.3333 0 0 -1.4105 -20953.666 1109.596)" gradientUnits="userSpaceOnUse">
      <stop offset="0" stop-color="#ffcf54" />
      <stop offset=".261" stop-color="#fdcc4d" />
      <stop offset=".639" stop-color="#f7c23a" />
      <stop offset="1" stop-color="#f0b621" />
    </radialGradient>
    <path fill="url(#yDQNKZFA3TMCJccu8xKJ7f)" d="M16.999,11.065c3.453,0,6.999,0.605,6.999,8.507 c0,0.632,0,5.019,0,5.695c0,2.821-4.287,6.736-6.999,6.736c-2.713,0-7-3.915-7-6.736c0-0.675,0-5.061,0-5.695 C9.999,11.879,13.544,11.065,16.999,11.065z" />
    <radialGradient id="yDQNKZFA3TMCJccu8xKJ7g" cx="-6.001" cy="16245.75" r="21.115" gradientTransform="translate(18.979 -21652.473) scale(1.3333)" gradientUnits="userSpaceOnUse">
      <stop offset="0" stop-color="#c25615" />
      <stop offset=".508" stop-color="#b85215" />
      <stop offset="1" stop-color="#ad3f16" />
    </radialGradient>
    <path fill="url(#yDQNKZFA3TMCJccu8xKJ7g)" d="M16.999,8.003c-4.54,0-5,3-5,3 c-1.847,0.272-6,0.208-6,15c0,3.533,1.613,4.625,2.731,5.088c-3.069-11.544,5.648-10.181,4.269-18.088 c3.54,10.336,15.557,3.339,12.268,18.088c1.716-0.727,2.731-2.903,2.731-5.088C27.997,13.923,23.472,8.003,16.999,8.003z" />
  </g>
</svg>